<svg width="33" height="43" viewBox="0 0 33 43" fill="none" xmlns="http://www.w3.org/2000/svg">
<path d="M18.0216 41.7079C22.3077 36.3441 32.083 23.3437 32.083 16.0415C32.083 7.18526 24.8978 0 16.0415 0C7.18526 0 0 7.18526 0 16.0415C0 23.3437 9.7753 36.3441 14.0614 41.7079C15.089 42.9862 16.994 42.9862 18.0216 41.7079ZM16.0415 10.6943C17.4597 10.6943 18.8197 11.2577 19.8225 12.2605C20.8253 13.2633 21.3887 14.6234 21.3887 16.0415C21.3887 17.4597 20.8253 18.8197 19.8225 19.8225C18.8197 20.8253 17.4597 21.3887 16.0415 21.3887C14.6234 21.3887 13.2633 20.8253 12.2605 19.8225C11.2577 18.8197 10.6943 17.4597 10.6943 16.0415C10.6943 14.6234 11.2577 13.2633 12.2605 12.2605C13.2633 11.2577 14.6234 10.6943 16.0415 10.6943Z" fill="#9747FF"/>
</svg>
