<svg width="129" height="35" viewBox="0 0 129 35" fill="none" xmlns="http://www.w3.org/2000/svg">
<rect width="129" height="34.2797" rx="4.51049" fill="#9155FD"/>
<path d="M33.4177 9.02197C33.6896 9.02197 33.9503 9.1289 34.1425 9.31922C34.3348 9.50954 34.4428 9.76768 34.4428 10.0368V14.2992L39.7867 10.595C39.8635 10.5417 39.9537 10.5103 40.0473 10.5042C40.141 10.4981 40.2345 10.5176 40.3177 10.5605C40.4009 10.6034 40.4707 10.6681 40.5193 10.7476C40.5679 10.8271 40.5936 10.9182 40.5935 11.0111V23.2706C40.5936 23.3635 40.5679 23.4547 40.5193 23.5341C40.4707 23.6136 40.4009 23.6783 40.3177 23.7212C40.2345 23.7641 40.141 23.7836 40.0473 23.7775C39.9537 23.7714 39.8635 23.74 39.7867 23.6867L34.4428 19.9825V24.2449C34.4428 24.514 34.3348 24.7722 34.1425 24.9625C33.9503 25.1528 33.6896 25.2597 33.4177 25.2597H19.0661C18.7943 25.2597 18.5335 25.1528 18.3413 24.9625C18.149 24.7722 18.041 24.514 18.041 24.2449V10.0368C18.041 9.76768 18.149 9.50954 18.3413 9.31922C18.5335 9.1289 18.7943 9.02197 19.0661 9.02197H33.4177Z" fill="white"/>
<path d="M25.1067 13.5327H26.8107V16.0887H29.3666V17.7926H26.8107V20.3486H25.1067V17.7926H22.5508V16.0887H25.1067V13.5327Z" fill="#9155FD"/>
<path d="M68.5993 9.02197C68.8712 9.02197 69.1319 9.1289 69.3242 9.31922C69.5164 9.50954 69.6244 9.76768 69.6244 10.0368V14.2992L74.9683 10.595C75.0452 10.5417 75.1353 10.5103 75.229 10.5042C75.3226 10.4981 75.4161 10.5176 75.4994 10.5605C75.5826 10.6034 75.6523 10.6681 75.7009 10.7476C75.7496 10.8271 75.7752 10.9182 75.7751 11.0111V23.2706C75.7752 23.3635 75.7496 23.4547 75.7009 23.5341C75.6523 23.6136 75.5826 23.6783 75.4994 23.7212C75.4161 23.7641 75.3226 23.7836 75.229 23.7775C75.1353 23.7714 75.0452 23.74 74.9683 23.6867L69.6244 19.9825V24.2449C69.6244 24.514 69.5164 24.7722 69.3242 24.9625C69.1319 25.1528 68.8712 25.2597 68.5993 25.2597H54.2478C53.9759 25.2597 53.7151 25.1528 53.5229 24.9625C53.3307 24.7722 53.2227 24.514 53.2227 24.2449V10.0368C53.2227 9.76768 53.3307 9.50954 53.5229 9.31922C53.7151 9.1289 53.9759 9.02197 54.2478 9.02197H68.5993Z" fill="white"/>
<path d="M57.7324 16.2393H64.5483V17.9432H57.7324V16.2393Z" fill="#9155FD"/>
<path d="M103.781 9.02197C104.053 9.02197 104.314 9.1289 104.506 9.31922C104.698 9.50954 104.806 9.76768 104.806 10.0368V14.2992L110.15 10.595C110.227 10.5417 110.317 10.5103 110.411 10.5042C110.504 10.4981 110.598 10.5176 110.681 10.5605C110.764 10.6034 110.834 10.6681 110.883 10.7476C110.931 10.8271 110.957 10.9182 110.957 11.0111V23.2706C110.957 23.3635 110.931 23.4547 110.883 23.5341C110.834 23.6136 110.764 23.6783 110.681 23.7212C110.598 23.7641 110.504 23.7836 110.411 23.7775C110.317 23.7714 110.227 23.74 110.15 23.6867L104.806 19.9825V24.2449C104.806 24.514 104.698 24.7722 104.506 24.9625C104.314 25.1528 104.053 25.2597 103.781 25.2597H89.4294C89.1575 25.2597 88.8968 25.1528 88.7045 24.9625C88.5123 24.7722 88.4043 24.514 88.4043 24.2449V10.0368C88.4043 9.76768 88.5123 9.50954 88.7045 9.31922C88.8968 9.1289 89.1575 9.02197 89.4294 9.02197H103.781Z" fill="white"/>
<path d="M94.3131 12.0005C94.4855 12.0005 94.6414 12.1076 94.7087 12.273L96.4503 16.5542L95.7951 17.2352L95.3363 16.1071H93.2898L92.8194 17.2631C92.7737 17.3699 92.6895 17.4539 92.5848 17.4968C92.4802 17.5397 92.3636 17.5383 92.26 17.4927C92.1564 17.4471 92.0742 17.3611 92.031 17.2531C91.9878 17.1451 91.9871 17.0238 92.029 16.9153L93.9175 12.273C93.9504 12.1921 94.0055 12.1232 94.0758 12.0747C94.1462 12.0263 94.2287 12.0004 94.3131 12.0005ZM94.9731 15.2144L94.3131 13.5924L93.6538 15.2144H94.9731ZM98.3512 15.3315C98.6443 15.0332 99.0388 14.8671 99.449 14.8695C99.8592 14.8718 100.252 15.0423 100.542 15.344C100.832 15.6456 100.996 16.0541 100.998 16.4807C101 16.9072 100.84 17.3175 100.554 17.6223L97.3197 20.9851C97.1546 21.1568 96.9501 21.2819 96.7256 21.3486L94.5785 21.9868C94.5197 22.0043 94.4574 22.005 94.3981 21.9891C94.3389 21.9731 94.2848 21.9409 94.2415 21.8959C94.1982 21.8509 94.1673 21.7946 94.1519 21.733C94.1366 21.6714 94.1373 21.6066 94.1541 21.5454L94.767 19.3132C94.8312 19.0797 94.9515 18.8671 95.1166 18.6954L98.3512 15.3315Z" fill="#9155FD"/>
</svg>
