<svg width="67" height="67" viewBox="0 0 67 67" fill="none" xmlns="http://www.w3.org/2000/svg">
<path d="M0 33.4964C0 14.9963 14.9979 0 33.5 0C52.002 0 67 14.9963 67 33.4964C67.0073 38.923 65.6907 44.2694 63.1642 49.0722L66.9028 63.4388C67.0272 63.9187 67.024 64.4228 66.8937 64.9011C66.7634 65.3795 66.5104 65.8155 66.1598 66.1661C65.8092 66.5166 65.3731 66.7696 64.8947 66.8999C64.4163 67.0302 63.9122 67.0333 63.4322 66.909L49.0607 63.1675C44.2616 65.6875 38.9207 67.0005 33.5 66.9928C14.9979 66.9928 0 51.9964 0 33.4964ZM33.5 15.0801C32.8336 15.0801 32.1946 15.3447 31.7234 15.8159C31.2522 16.287 30.9875 16.926 30.9875 17.5923V38.5275C30.9875 39.1938 31.2522 39.8328 31.7234 40.3039C32.1946 40.7751 32.8336 41.0398 33.5 41.0398C34.1663 41.0398 34.8054 40.7751 35.2766 40.3039C35.7478 39.8328 36.0125 39.1938 36.0125 38.5275V17.5923C36.0125 16.926 35.7478 16.287 35.2766 15.8159C34.8054 15.3447 34.1663 15.0801 33.5 15.0801ZM30.15 48.5664C30.15 49.4548 30.5029 50.3068 31.1312 50.935C31.7594 51.5631 32.6115 51.916 33.5 51.916C34.3885 51.916 35.2405 51.5631 35.8688 50.935C36.497 50.3068 36.85 49.4548 36.85 48.5664C36.85 47.678 36.497 46.826 35.8688 46.1978C35.2405 45.5697 34.3885 45.2168 33.5 45.2168C32.6115 45.2168 31.7594 45.5697 31.1312 46.1978C30.5029 46.826 30.15 47.678 30.15 48.5664Z" fill="#F24822"/>
</svg>
