<svg width="16" height="16" viewBox="0 0 16 16" fill="none" xmlns="http://www.w3.org/2000/svg">
<rect x="0.266667" y="0.266667" width="15.4667" height="15.4667" rx="7.73333" stroke="white" stroke-width="0.533333"/>
<path d="M12.0311 7.65051V8.35158C12.0311 8.5451 11.9717 8.71033 11.853 8.84726C11.7344 8.98418 11.5801 9.05265 11.3902 9.05265H7.53435L9.13914 10.6629C9.27789 10.7944 9.34727 10.9587 9.34727 11.1559C9.34727 11.353 9.27789 11.5173 9.13914 11.6488L8.72836 12.0651C8.59325 12.2002 8.42894 12.2677 8.23542 12.2677C8.04554 12.2677 7.8794 12.2002 7.737 12.0651L4.1714 8.49398C4.0363 8.35888 3.96875 8.19457 3.96875 8.00104C3.96875 7.81117 4.0363 7.64503 4.1714 7.50263L7.737 3.94251C7.87575 3.80375 8.04189 3.73438 8.23542 3.73438C8.42529 3.73438 8.5896 3.80375 8.72836 3.94251L9.13914 4.34781C9.27789 4.48656 9.34727 4.6527 9.34727 4.84623C9.34727 5.03975 9.27789 5.20589 9.13914 5.34464L7.53435 6.94944H11.3902C11.5801 6.94944 11.7344 7.0179 11.853 7.15483C11.9717 7.29176 12.0311 7.45698 12.0311 7.65051Z" fill="white"/>
</svg>
