<svg width="7" height="12" viewBox="0 0 7 12" fill="none" xmlns="http://www.w3.org/2000/svg">
<path d="M6.58791 0.261937C6.75563 0.429706 6.84985 0.65722 6.84985 0.894445C6.84985 1.13167 6.75563 1.35918 6.58791 1.52695L2.15946 5.9554L6.58791 10.3839C6.75087 10.5526 6.84105 10.7786 6.83901 11.0131C6.83697 11.2477 6.74288 11.4721 6.57701 11.638C6.41114 11.8038 6.18675 11.8979 5.95218 11.9C5.71761 11.902 5.49162 11.8118 5.32289 11.6489L0.261937 6.58791C0.0942189 6.42014 0 6.19263 0 5.9554C0 5.71818 0.0942189 5.49066 0.261937 5.32289L5.32289 0.261937C5.49066 0.094219 5.71818 0 5.9554 0C6.19263 0 6.42014 0.094219 6.58791 0.261937Z" fill="rgba(175, 173, 177, 1)"/>
</svg>
