<svg width="7" height="12" viewBox="0 0 7 12" fill="none" xmlns="http://www.w3.org/2000/svg">
<path d="M0.2617 0.261937C0.0939817 0.429706 -0.000237465 0.65722 -0.000237465 0.894445C-0.000237465 1.13167 0.0939817 1.35918 0.2617 1.52695L4.69015 5.9554L0.2617 10.3839C0.0987349 10.5526 0.00856066 10.7786 0.0105991 11.0131C0.0126371 11.2477 0.106725 11.4721 0.272598 11.638C0.438471 11.8038 0.662857 11.8979 0.897428 11.9C1.132 11.902 1.35799 11.8118 1.52672 11.6489L6.58767 6.58791C6.75539 6.42014 6.84961 6.19263 6.84961 5.9554C6.84961 5.71818 6.75539 5.49066 6.58767 5.32289L1.52672 0.261937C1.35895 0.094219 1.13143 0 0.894207 0C0.656982 0 0.429469 0.094219 0.2617 0.261937Z" fill="rgba(175, 173, 177, 1)"/>
</svg>
