<svg width="18" height="18" viewBox="0 0 18 18" fill="none" xmlns="http://www.w3.org/2000/svg">
<rect width="18" height="18" rx="9" transform="matrix(-1 0 0 1 18 0)" fill="#9E69FD"/>
<path d="M4.46507 8.6056V9.3943C4.46507 9.61202 4.53182 9.7979 4.66533 9.95194C4.79883 10.106 4.97239 10.183 5.18599 10.183H9.52386L7.71847 11.9946C7.56237 12.1424 7.48432 12.3273 7.48432 12.5491C7.48432 12.7709 7.56237 12.9558 7.71847 13.1037L8.1806 13.572C8.33259 13.724 8.51744 13.8 8.73516 13.8C8.94876 13.8 9.13567 13.724 9.29588 13.572L13.3072 9.55451C13.4592 9.40252 13.5352 9.21767 13.5352 8.99995C13.5352 8.78634 13.4592 8.59944 13.3072 8.43923L9.29588 4.4341C9.13978 4.278 8.95287 4.19995 8.73516 4.19995C8.52155 4.19995 8.3367 4.278 8.1806 4.4341L7.71847 4.89007C7.56237 5.04616 7.48432 5.23307 7.48432 5.45079C7.48432 5.6685 7.56237 5.85541 7.71847 6.0115L9.52386 7.8169H5.18599C4.97239 7.8169 4.79883 7.89392 4.66533 8.04796C4.53182 8.20201 4.46507 8.38788 4.46507 8.6056Z" fill="white"/>
</svg>
