<svg width="16" height="20" viewBox="0 0 16 20" fill="none" xmlns="http://www.w3.org/2000/svg">
<path d="M1 17C0.71667 17 0.479337 16.904 0.288004 16.712C0.0966702 16.52 0.000670115 16.2827 3.44827e-06 16C-0.000663218 15.7173 0.0953369 15.48 0.288004 15.288C0.48067 15.096 0.718003 15 1 15H2V8C2 6.61667 2.41667 5.38767 3.25 4.313C4.08334 3.23834 5.16667 2.534 6.5 2.2V1.5C6.5 1.08334 6.646 0.729336 6.938 0.438002C7.23 0.146669 7.584 0.000668939 8 2.27273e-06C8.416 -0.000664394 8.77034 0.145336 9.063 0.438002C9.35567 0.730669 9.50134 1.08467 9.5 1.5V2.2C10.8333 2.53334 11.9167 3.23767 12.75 4.313C13.5833 5.38834 14 6.61734 14 8V15H15C15.2833 15 15.521 15.096 15.713 15.288C15.905 15.48 16.0007 15.7173 16 16C15.9993 16.2827 15.9033 16.5203 15.712 16.713C15.5207 16.9057 15.2833 17.0013 15 17H1ZM8 20C7.45 20 6.97934 19.8043 6.588 19.413C6.19667 19.0217 6.00067 18.5507 6 18H10C10 18.55 9.80434 19.021 9.413 19.413C9.02167 19.805 8.55067 20.0007 8 20ZM7 11V12C7 12.2833 7.096 12.521 7.288 12.713C7.48 12.905 7.71734 13.0007 8 13C8.28267 12.9993 8.52034 12.9033 8.713 12.712C8.90567 12.5207 9.00134 12.2833 9 12V11H10C10.2833 11 10.521 10.904 10.713 10.712C10.905 10.52 11.0007 10.2827 11 10C10.9993 9.71734 10.9033 9.48 10.712 9.288C10.5207 9.096 10.2833 9 10 9H9V8C9 7.71667 8.904 7.47934 8.712 7.288C8.52 7.09667 8.28267 7.00067 8 7C7.71734 6.99934 7.48 7.09534 7.288 7.288C7.096 7.48067 7 7.718 7 8V9H6C5.71667 9 5.47934 9.096 5.288 9.288C5.09667 9.48 5.00067 9.71734 5 10C4.99934 10.2827 5.09534 10.5203 5.288 10.713C5.48067 10.9057 5.718 11.0013 6 11H7Z" fill="white"/>
</svg>
