<svg width="37" height="18" viewBox="0 0 37 18" fill="none" xmlns="http://www.w3.org/2000/svg">
<path d="M7.30575 9.00017C9.6255 9.00017 11.506 7.11964 11.506 4.79989C11.506 2.48014 9.6255 0.599609 7.30575 0.599609C4.986 0.599609 3.10547 2.48014 3.10547 4.79989C3.10547 7.11964 4.986 9.00017 7.30575 9.00017Z" fill="#9155FD"/>
<path d="M13.5641 17.3993H1.04731C0.949176 17.3998 0.852038 17.3797 0.762196 17.3402C0.672354 17.3007 0.591815 17.2428 0.525804 17.1702C0.459794 17.0976 0.409787 17.0119 0.379028 16.9187C0.348269 16.8255 0.337446 16.7269 0.34726 16.6293C0.535838 14.9156 1.35017 13.3317 2.6342 12.1812C3.91824 11.0307 5.58167 10.3945 7.30572 10.3945C9.02978 10.3945 10.6932 11.0307 11.9772 12.1812C13.2613 13.3317 14.0756 14.9156 14.2642 16.6293C14.274 16.7269 14.2632 16.8255 14.2324 16.9187C14.2017 17.0119 14.1517 17.0976 14.0856 17.1702C14.0196 17.2428 13.9391 17.3007 13.8492 17.3402C13.7594 17.3797 13.6623 17.3998 13.5641 17.3993Z" fill="#9155FD"/>
<path d="M21.3068 1.99902H14.3063C13.5331 1.99902 12.9062 2.62587 12.9062 3.39912C12.9062 4.17237 13.5331 4.79921 14.3063 4.79921H21.3068C22.0801 4.79921 22.7069 4.17237 22.7069 3.39912C22.7069 2.62587 22.0801 1.99902 21.3068 1.99902Z" fill="#9155FD"/>
<path d="M21.3068 7.60059H14.3063C13.5331 7.60059 12.9062 8.22743 12.9062 9.00068C12.9062 9.77393 13.5331 10.4008 14.3063 10.4008H21.3068C22.0801 10.4008 22.7069 9.77393 22.7069 9.00068C22.7069 8.22743 22.0801 7.60059 21.3068 7.60059Z" fill="#9155FD"/>
<path d="M21.3055 13.2002H17.1052C16.3319 13.2002 15.7051 13.827 15.7051 14.6003C15.7051 15.3735 16.3319 16.0004 17.1052 16.0004H21.3055C22.0787 16.0004 22.7055 15.3735 22.7055 14.6003C22.7055 13.827 22.0787 13.2002 21.3055 13.2002Z" fill="#9155FD"/>
<path d="M30.4082 3.75L35.6582 9L30.4082 14.25" stroke="#9155FD" stroke-width="2.52" stroke-linecap="round" stroke-linejoin="round"/>
</svg>
