<svg width="25" height="26" viewBox="0 0 25 26" fill="none" xmlns="http://www.w3.org/2000/svg">
<path d="M20.3125 3.625H17.1875V2.0625H15.625V3.625H9.375V2.0625H7.8125V3.625H4.6875C3.82812 3.625 3.125 4.32812 3.125 5.1875V20.8125C3.125 21.6719 3.82812 22.375 4.6875 22.375H20.3125C21.1719 22.375 21.875 21.6719 21.875 20.8125V5.1875C21.875 4.32812 21.1719 3.625 20.3125 3.625ZM20.3125 20.8125H4.6875V9.875H20.3125V20.8125ZM20.3125 8.3125H4.6875V5.1875H7.8125V6.75H9.375V5.1875H15.625V6.75H17.1875V5.1875H20.3125V8.3125Z" fill="#9155FD"/>
</svg>
