<svg width="139" height="138" viewBox="0 0 139 138" fill="none" xmlns="http://www.w3.org/2000/svg">
<path fill-rule="evenodd" clip-rule="evenodd" d="M173.94 14.2018C170.36 11.1949 165.121 9.42014 154.653 5.87436C144.186 2.32858 138.947 0.553799 134.277 0.766386C128.061 1.04797 122.292 3.69303 118.241 8.1199C116.393 10.1266 115.055 12.7548 113.528 16.7119C112.469 19.5949 110.652 22.1478 108.25 24.1292C105.848 26.1105 102.94 27.4548 99.801 28.0351C96.6306 28.5443 93.3525 28.2726 90.2705 27.2451C87.1886 26.2176 84.4025 24.4676 82.1703 22.1573C79.041 18.9959 76.6614 17.0328 74.0785 15.7801C68.4259 13.0447 61.946 12.5298 56.048 14.3475C51.635 15.7096 47.566 19.1008 39.4427 25.8763C31.3083 32.648 27.2541 36.0324 25.2462 40.0155C22.5789 45.3218 22.2756 51.4996 24.3994 57.1893C25.3605 59.7815 27.1128 62.2758 29.9888 65.6347C34.2407 70.5813 35.8366 77.0956 33.8348 83.0051C31.8331 88.9146 26.6067 93.1179 20.2386 94.4552C15.8985 95.3816 12.9911 96.2975 10.6413 97.7682C8.10151 99.3628 5.93186 101.435 4.25773 103.865C2.58359 106.295 1.43817 109.034 0.887654 111.925C0.0650318 116.298 1.22425 121.46 3.56857 131.781C5.91288 142.102 7.07568 147.254 9.74887 151.028C13.3167 156.05 18.7824 159.578 24.9381 160.849C27.7506 161.423 30.8334 161.311 35.2398 160.702C38.4185 160.222 41.697 160.526 44.7711 161.583C47.8451 162.641 50.6152 164.419 52.8242 166.753C57.2375 171.553 58.6005 178.095 56.8328 184.084C55.6368 188.165 55.1054 191.054 55.3533 193.771C55.8695 199.731 58.8403 205.341 63.6189 209.356C67.1982 212.363 72.4376 214.138 82.9052 217.684C93.3727 221.23 98.6121 223.004 103.282 222.792C109.498 222.51 115.266 219.865 119.318 215.438C121.166 213.432 122.5 210.814 124.03 206.846C126.255 201.012 131.328 196.639 137.758 195.523C140.928 195.014 144.206 195.286 147.288 196.313C150.37 197.341 153.156 199.091 155.388 201.401C158.518 204.562 160.897 206.525 163.48 207.778C169.137 210.521 175.625 211.03 181.511 209.211C185.924 207.849 189.993 204.457 198.116 197.682C206.25 190.91 210.305 187.526 212.312 183.543C213.631 180.911 214.384 178.039 214.53 175.091C214.675 172.143 214.209 169.179 213.159 166.369C212.198 163.777 210.446 161.282 207.57 157.924C203.318 152.977 201.722 146.463 203.724 140.553C205.726 134.644 210.952 130.44 217.32 129.103C221.66 128.177 224.567 127.261 226.917 125.79C229.457 124.196 231.627 122.123 233.301 119.694C234.975 117.264 236.12 114.524 236.671 111.633C237.494 107.261 236.334 102.098 233.99 91.7772C231.646 81.4559 230.483 76.3043 227.81 72.53C224.231 67.5021 218.772 63.9728 212.621 62.7098C209.808 62.1349 206.725 62.2476 202.319 62.8563C199.14 63.3359 195.862 63.0327 192.788 61.9749C189.713 60.9171 186.943 59.1389 184.734 56.8053C182.597 54.4362 181.107 51.6015 180.405 48.569C179.704 45.5365 179.814 42.4064 180.726 39.4744C181.922 35.3934 182.453 32.5039 182.205 29.7873C181.945 26.8272 181.081 23.9272 179.663 21.253C178.244 18.5788 176.3 16.1828 173.94 14.2018ZM108.017 143.551C126.633 149.857 146.534 140.743 152.478 123.194C158.423 105.646 148.147 86.3101 129.542 80.0077C110.925 73.7016 91.0246 82.8155 85.0802 100.364C79.1359 117.912 89.4118 137.248 108.017 143.551Z" fill="#C7C7C7" fill-opacity="0.19"/>
</svg>
