<svg width="30" height="30" viewBox="0 0 30 30" fill="none" xmlns="http://www.w3.org/2000/svg">
<rect width="30" height="30" rx="15" fill="#9E69FD"/>
<path d="M22.5585 14.3427V15.6573C22.5585 16.0201 22.4472 16.3299 22.2247 16.5866C22.0022 16.8434 21.7129 16.9718 21.3569 16.9718H14.1271L17.1361 19.991C17.3963 20.2375 17.5264 20.5456 17.5264 20.9153C17.5264 21.285 17.3963 21.5931 17.1361 21.8395L16.3659 22.62C16.1126 22.8733 15.8045 23 15.4416 23C15.0856 23 14.7741 22.8733 14.5071 22.62L7.82162 15.9243C7.56831 15.6709 7.44165 15.3629 7.44165 15C7.44165 14.644 7.56831 14.3325 7.82162 14.0655L14.5071 7.39024C14.7673 7.13008 15.0788 7 15.4416 7C15.7977 7 16.1057 7.13008 16.3659 7.39024L17.1361 8.15019C17.3963 8.41036 17.5264 8.72187 17.5264 9.08472C17.5264 9.44758 17.3963 9.75909 17.1361 10.0193L14.1271 13.0282H21.3569C21.7129 13.0282 22.0022 13.1566 22.2247 13.4134C22.4472 13.6701 22.5585 13.9799 22.5585 14.3427Z" fill="white"/>
</svg>
