<svg width="6" height="17" viewBox="0 0 6 17" fill="none" xmlns="http://www.w3.org/2000/svg">
<path d="M5.373 3.4474C5.37062 4.15783 5.08625 4.83825 4.58239 5.33911C4.07854 5.83996 3.39644 6.12026 2.686 6.1184C1.97574 6.11999 1.29389 5.83958 0.790253 5.33875C0.286616 4.83793 0.00238343 4.15766 0 3.4474C0.00211892 2.73697 0.286234 2.05644 0.7899 1.5554C1.29357 1.05436 1.97556 0.773806 2.686 0.7754C3.39661 0.773541 4.07886 1.05398 4.58275 1.55505C5.08663 2.05612 5.37088 2.73679 5.373 3.4474ZM5.373 13.5514C5.37088 14.262 5.08663 14.9427 4.58275 15.4438C4.07886 15.9448 3.39661 16.2253 2.686 16.2234C1.97556 16.225 1.29357 15.9444 0.7899 15.4434C0.286234 14.9424 0.00211892 14.2618 0 13.5514C0.00238343 12.8411 0.286616 12.1609 0.790253 11.66C1.29389 11.1592 1.97574 10.8788 2.686 10.8804C3.39644 10.8785 4.07854 11.1588 4.58239 11.6597C5.08625 12.1605 5.37062 12.841 5.373 13.5514Z" fill="#9E69FD"/>
</svg>
