<svg width="22" height="20" viewBox="0 0 22 20" fill="none" xmlns="http://www.w3.org/2000/svg">
<path d="M15.5833 4.80979C15.5833 6.95293 12.7913 10.7721 11.5653 12.3461C11.2712 12.7229 10.725 12.7229 10.4347 12.3461C9.20868 10.7721 6.41667 6.95293 6.41667 4.80979C6.41667 2.20741 8.46771 0.0996014 11 0.0996014C13.5323 0.0996014 15.5833 2.20741 15.5833 4.80979ZM15.8889 7.96562C16.0226 7.69478 16.1448 7.42395 16.2556 7.15703C16.2747 7.10993 16.2938 7.05891 16.3128 7.0118L20.7434 5.19053C21.3469 4.94325 22 5.39856 22 6.06584V16.6952C22 17.0798 21.7708 17.4252 21.4233 17.5705L15.8889 19.8431V7.96562ZM5.25556 5.52809C5.34722 6.08154 5.53056 6.63891 5.74444 7.15703C5.85521 7.42395 5.97743 7.69478 6.11111 7.96562V17.8335L1.2566 19.8314C0.653125 20.0787 0 19.6233 0 18.9561V8.32673C0 7.94207 0.229167 7.59665 0.576736 7.45142L5.25938 5.52809H5.25556ZM12.5201 13.1311C13.051 12.4481 13.8837 11.3373 14.6667 10.1088V19.8942L7.33333 17.7393V10.1088C8.11632 11.3373 8.94896 12.4481 9.47986 13.1311C10.2628 14.136 11.7372 14.136 12.5201 13.1311ZM11 6.06584C11.4052 6.06584 11.7938 5.90042 12.0803 5.60598C12.3668 5.31154 12.5278 4.91218 12.5278 4.49578C12.5278 4.07937 12.3668 3.68002 12.0803 3.38558C11.7938 3.09113 11.4052 2.92571 11 2.92571C10.5948 2.92571 10.2062 3.09113 9.9197 3.38558C9.63318 3.68002 9.47222 4.07937 9.47222 4.49578C9.47222 4.91218 9.63318 5.31154 9.9197 5.60598C10.2062 5.90042 10.5948 6.06584 11 6.06584Z" fill="#9155FD"/>
</svg>
