<svg width="26" height="27" viewBox="0 0 26 27" fill="none" xmlns="http://www.w3.org/2000/svg">
<path fill-rule="evenodd" clip-rule="evenodd" d="M22 6.6092V8.71839L18.6824 8.71824C20.4254 10.2833 21.4937 12.5737 21.4917 15.0693C21.4885 18.9341 18.9193 22.3025 15.2561 23.2446C11.5929 24.1868 7.77236 22.4617 5.98356 19.0578C4.19481 15.6539 4.89517 11.4416 7.68341 8.83441C8.07733 9.4757 8.63274 9.99664 9.29132 10.3425C8.59193 10.9206 8.02799 11.6517 7.64094 12.4821C7.25389 13.3125 7.05355 14.221 7.05465 15.141C7.10538 18.5985 9.85936 21.3741 13.2389 21.3737C16.3345 21.4259 18.9743 19.0901 19.3703 15.9483C19.6662 13.601 18.6391 11.3637 16.8466 10.0682L16.8464 13.9914H14.785V6.6092H22ZM11.1775 4.49997C12.316 4.49997 13.2389 5.44432 13.2389 6.6092C13.2389 7.77408 12.316 8.71839 11.1775 8.71839C10.039 8.71839 9.11609 7.77408 9.11609 6.6092C9.11609 5.44432 10.039 4.49997 11.1775 4.49997Z" fill="#9747FF"/>
</svg>
