<svg width="19" height="20" viewBox="0 0 19 20" fill="none" xmlns="http://www.w3.org/2000/svg">
<path d="M8.77986 14.9049C9.56896 14.9049 10.3503 14.7495 11.0793 14.4475C11.8084 14.1455 12.4708 13.7029 13.0288 13.145C13.5867 12.587 14.0293 11.9246 14.3313 11.1956C14.6333 10.4665 14.7887 9.68517 14.7887 8.89608C14.7887 8.10698 14.6333 7.32562 14.3313 6.59659C14.0293 5.86757 13.5867 5.20516 13.0288 4.64719C12.4708 4.08921 11.8084 3.64661 11.0793 3.34463C10.3503 3.04266 9.56896 2.88724 8.77986 2.88724C7.18622 2.88724 5.65785 3.52031 4.53097 4.64719C3.4041 5.77406 2.77103 7.30243 2.77103 8.89608C2.77103 10.4897 3.4041 12.0181 4.53097 13.145C5.65785 14.2718 7.18622 14.9049 8.77986 14.9049ZM15.1092 13.8093L18.6944 17.3946C18.79 17.487 18.8662 17.5976 18.9186 17.7198C18.971 17.842 18.9986 17.9735 18.9996 18.1064C19.0007 18.2394 18.9753 18.3713 18.9248 18.4943C18.8744 18.6173 18.7999 18.7291 18.7058 18.8231C18.6117 18.917 18.4999 18.9913 18.3768 19.0416C18.2537 19.0918 18.1218 19.1171 17.9888 19.1158C17.8558 19.1146 17.7244 19.0869 17.6023 19.0343C17.4801 18.9817 17.3697 18.9054 17.2774 18.8097L13.6921 15.2244C12.0822 16.4741 10.0565 17.0633 8.02751 16.872C5.99849 16.6807 4.11861 15.7234 2.77058 14.1949C1.42254 12.6664 0.707678 10.6816 0.771513 8.64463C0.835348 6.60761 1.67308 4.67149 3.11418 3.23039C4.55527 1.78929 6.4914 0.951559 8.52842 0.887724C10.5654 0.823889 12.5502 1.53875 14.0787 2.88679C15.6072 4.23483 16.5645 6.1147 16.7558 8.14372C16.947 10.1727 16.3579 12.1984 15.1082 13.8083L15.1092 13.8093Z" fill="#9155FD"/>
</svg>
