<svg width="6" height="16" viewBox="0 0 6 16" fill="none" xmlns="http://www.w3.org/2000/svg">
<path d="M5.68696 2.94838C5.68458 3.65881 5.40021 4.33923 4.89636 4.84008C4.39251 5.34093 3.7104 5.62124 2.99996 5.61938C2.2897 5.62097 1.60785 5.34055 1.10422 4.83973C0.600581 4.3389 0.316348 3.65864 0.313965 2.94838C0.316084 2.23794 0.600199 1.55742 1.10386 1.05638C1.60753 0.555338 2.28953 0.274783 2.99996 0.276376C3.71057 0.274517 4.39283 0.554955 4.89671 1.05602C5.40059 1.55709 5.68485 2.23777 5.68696 2.94838ZM5.68696 13.0524C5.68485 13.763 5.40059 14.4437 4.89671 14.9447C4.39283 15.4458 3.71057 15.7262 2.99996 15.7244C2.28953 15.726 1.60753 15.4454 1.10386 14.9444C0.600199 14.4433 0.316084 13.7628 0.313965 13.0524C0.316348 12.3421 0.600581 11.6618 1.10422 11.161C1.60785 10.6602 2.2897 10.3798 2.99996 10.3814C3.7104 10.3795 4.39251 10.6598 4.89636 11.1607C5.40021 11.6615 5.68458 12.3419 5.68696 13.0524Z" fill="#9E69FD"/>
</svg>
