<svg width="38" height="38" viewBox="0 0 38 38" fill="none" xmlns="http://www.w3.org/2000/svg">
<path fill-rule="evenodd" clip-rule="evenodd" d="M8.23442 0.593048C15.3681 -0.197683 22.5674 -0.197683 29.7011 0.593048C33.6508 1.03575 36.8374 4.14623 37.3008 8.10983C38.147 15.3453 38.147 22.6546 37.3008 29.8901C36.8374 33.8537 33.6508 36.9641 29.7011 37.4068C22.5674 38.1977 15.3681 38.1977 8.23442 37.4068C4.28465 36.9641 1.09809 33.8537 0.634628 29.8901C-0.211543 22.6554 -0.211543 15.3468 0.634628 8.11214C0.869049 6.18653 1.74688 4.39651 3.12585 3.03219C4.50482 1.66786 6.30411 0.8092 8.23211 0.595354M18.9677 7.48728C19.4264 7.48728 19.8662 7.66947 20.1906 7.99378C20.5149 8.31809 20.6971 8.75795 20.6971 9.2166V17.2706H28.7511C29.2097 17.2706 29.6496 17.4528 29.9739 17.7771C30.2982 18.1014 30.4804 18.5413 30.4804 18.9999C30.4804 19.4586 30.2982 19.8984 29.9739 20.2228C29.6496 20.5471 29.2097 20.7293 28.7511 20.7293H20.6971V28.7833C20.6971 29.2419 20.5149 29.6818 20.1906 30.0061C19.8662 30.3304 19.4264 30.5126 18.9677 30.5126C18.5091 30.5126 18.0692 30.3304 17.7449 30.0061C17.4206 29.6818 17.2384 29.2419 17.2384 28.7833V20.7293H9.18439C8.72575 20.7293 8.28589 20.5471 7.96158 20.2228C7.63727 19.8984 7.45507 19.4586 7.45507 18.9999C7.45507 18.5413 7.63727 18.1014 7.96158 17.7771C8.28589 17.4528 8.72575 17.2706 9.18439 17.2706H17.2384V9.2166C17.2384 8.75795 17.4206 8.31809 17.7449 7.99378C18.0692 7.66947 18.5091 7.48728 18.9677 7.48728Z" fill="#9E69FD"/>
</svg>
