<svg width="24" height="26" viewBox="0 0 24 26" fill="none" xmlns="http://www.w3.org/2000/svg">
<path d="M11.9997 16.5348C11.5323 16.5457 11.0675 16.4617 10.6335 16.2878C10.1995 16.1139 9.80531 15.8538 9.47471 15.5232C9.14412 15.1926 8.88401 14.7984 8.71014 14.3644C8.53626 13.9304 8.45223 13.4656 8.46312 12.9982C8.45223 12.5308 8.53626 12.0661 8.71014 11.6321C8.88401 11.1981 9.14412 10.8038 9.47471 10.4732C9.80531 10.1427 10.1995 9.88255 10.6335 9.70867C11.0675 9.5348 11.5323 9.45076 11.9997 9.46165C12.4671 9.45076 12.9319 9.5348 13.3659 9.70867C13.7999 9.88255 14.1941 10.1427 14.5247 10.4732C14.8553 10.8038 15.1154 11.1981 15.2893 11.6321C15.4631 12.0661 15.5472 12.5308 15.5363 12.9982H17.3046C17.3046 11.949 16.9934 10.9234 16.4105 10.051C15.8276 9.17862 14.9991 8.49868 14.0298 8.09717C13.0604 7.69566 11.9938 7.5906 10.9648 7.79529C9.93572 7.99998 8.99049 8.50522 8.24859 9.24712C7.50669 9.98902 7.00145 10.9343 6.79676 11.9633C6.59207 12.9923 6.69712 14.059 7.09864 15.0283C7.50015 15.9977 8.18009 16.8262 9.05247 17.4091C9.92485 17.992 10.9505 18.3031 11.9997 18.3031V16.5348Z" fill="#9155FD"/>
<path d="M23.7636 8.6173L21.677 5.00292C21.4726 4.64862 21.1517 4.37613 20.769 4.23184C20.3863 4.08756 19.9654 4.08041 19.578 4.21161L17.426 4.94014C17.0552 4.69035 16.6676 4.46643 16.266 4.26996L15.8204 2.04192C15.7401 1.64122 15.5235 1.2807 15.2074 1.02167C14.8913 0.762645 14.4953 0.621095 14.0866 0.621094H9.91342C9.50463 0.621136 9.10848 0.762812 8.79237 1.02202C8.47627 1.28122 8.25973 1.64194 8.17961 2.0428L7.734 4.26996C7.32798 4.46446 6.93594 4.68691 6.56074 4.93572L4.42111 4.21161C4.03394 4.08087 3.61345 4.08825 3.23111 4.23252C2.84878 4.37678 2.52821 4.64901 2.32391 5.00292L0.237332 8.6173C0.0329269 8.97122 -0.042571 9.38502 0.0236781 9.78831C0.0899273 10.1916 0.293833 10.5595 0.600715 10.8294L2.308 12.3298C2.29297 12.5526 2.2744 12.7737 2.2744 12.9991C2.2744 13.2272 2.28265 13.453 2.29916 13.6764L0.601599 15.1688C0.29443 15.4385 0.0901859 15.8063 0.0236126 16.2096C-0.0429608 16.6129 0.0322491 17.0268 0.236447 17.381L2.32303 20.9953C2.52739 21.3496 2.84826 21.6221 3.23098 21.7664C3.61369 21.9107 4.03459 21.9178 4.42199 21.7866L6.574 21.0581C6.94478 21.3082 7.33236 21.5324 7.734 21.7292L8.17873 23.9555C8.25888 24.3565 8.47554 24.7173 8.79183 24.9765C9.10812 25.2357 9.50448 25.3773 9.91342 25.3772H12V23.6089H9.91342L9.28568 20.4702C8.41733 20.1475 7.61122 19.6773 6.9029 19.0803L3.85525 20.1112L1.76867 16.4968L4.17797 14.3793C4.01265 13.465 4.01055 12.5287 4.17178 11.6137L1.76867 9.50057L3.85525 5.88706L6.88522 6.91267C7.59823 6.3143 8.4107 5.84567 9.28568 5.5281L9.91342 2.38938H14.0866L14.7143 5.5281C15.5827 5.85077 16.3888 6.32097 17.0971 6.91798L20.1447 5.88706L22.2313 9.50145L19.7575 11.6694L20.9228 12.9991L23.3984 10.8294C23.7056 10.5597 23.9098 10.1919 23.9764 9.78864C24.043 9.38533 23.9678 8.97141 23.7636 8.6173Z" fill="#9155FD"/>
<path d="M23.4748 16.7598H18.3961M20.089 22.4028H15.0103" stroke="#9155FD" stroke-linecap="round" stroke-linejoin="round"/>
<path d="M21.7823 24.0968C22.7172 24.0968 23.4752 23.3388 23.4752 22.4038C23.4752 21.4689 22.7172 20.7109 21.7823 20.7109C20.8473 20.7109 20.0894 21.4689 20.0894 22.4038C20.0894 23.3388 20.8473 24.0968 21.7823 24.0968Z" stroke="#9155FD" stroke-linecap="round" stroke-linejoin="round"/>
<path d="M16.1392 18.4522C17.0742 18.4522 17.8321 17.6943 17.8321 16.7593C17.8321 15.8243 17.0742 15.0664 16.1392 15.0664C15.2042 15.0664 14.4463 15.8243 14.4463 16.7593C14.4463 17.6943 15.2042 18.4522 16.1392 18.4522Z" stroke="#9155FD" stroke-linecap="round" stroke-linejoin="round"/>
</svg>
