<svg width="24" height="25" viewBox="0 0 24 25" fill="none" xmlns="http://www.w3.org/2000/svg">
<path d="M15.2956 15.6673H24V17.4082H15.2956V15.6673ZM15.2956 19.149H24V20.8899H15.2956V19.149ZM15.2956 22.6308H24V24.3717H15.2956V22.6308ZM11.8138 15.6673C11.3537 15.678 10.8961 15.5953 10.4688 15.4241C10.0416 15.2529 9.65346 14.9968 9.32798 14.6714C9.00251 14.3459 8.74644 13.9578 8.57526 13.5305C8.40408 13.1032 8.32135 12.6457 8.33207 12.1855C8.32135 11.7254 8.40408 11.2678 8.57526 10.8405C8.74644 10.4133 9.00251 10.0252 9.32798 9.69969C9.65346 9.37422 10.0416 9.11814 10.4688 8.94696C10.8961 8.77578 11.3537 8.69305 11.8138 8.70377C12.274 8.69305 12.7315 8.77578 13.1588 8.94696C13.5861 9.11814 13.9742 9.37422 14.2997 9.69969C14.6251 10.0252 14.8812 10.4133 15.0524 10.8405C15.2236 11.2678 15.3063 11.7254 15.2956 12.1855H17.0365C17.0365 11.1526 16.7302 10.1428 16.1563 9.28399C15.5824 8.42513 14.7668 7.75573 13.8124 7.36044C12.8581 6.96515 11.808 6.86173 10.7949 7.06324C9.78185 7.26476 8.85126 7.76217 8.12086 8.49257C7.39047 9.22297 6.89306 10.1536 6.69154 11.1666C6.49002 12.1797 6.59345 13.2298 6.98874 14.1841C7.38403 15.1385 8.05343 15.9541 8.91228 16.528C9.77114 17.1019 10.7809 17.4082 11.8138 17.4082V15.6673Z" fill="#EDEDED"/>
<path d="M23.3952 7.87226L21.3409 4.3139C21.1397 3.9651 20.8239 3.69683 20.4471 3.55478C20.0703 3.41273 19.6559 3.40569 19.2745 3.53486L17.1559 4.2521C16.7908 4.00618 16.4092 3.78573 16.0139 3.5923L15.5752 1.3988C15.4961 1.00431 15.2828 0.649383 14.9717 0.39437C14.6605 0.139357 14.2706 1.53874e-06 13.8682 0H9.75975C9.35729 4.18136e-05 8.96729 0.139521 8.65608 0.394707C8.34487 0.649892 8.13169 1.00502 8.05281 1.39967L7.61411 3.5923C7.21438 3.78379 6.82843 4.00279 6.45904 4.24775L4.35257 3.53486C3.97141 3.40614 3.55743 3.41342 3.18103 3.55544C2.80462 3.69747 2.48902 3.96548 2.28789 4.3139L0.233653 7.87226C0.0324165 8.22069 -0.0419111 8.62807 0.0233111 9.02511C0.0885333 9.42216 0.289278 9.78435 0.591403 10.0501L2.27222 11.5272C2.25743 11.7466 2.23915 11.9642 2.23915 12.1862C2.23915 12.4107 2.24727 12.633 2.26352 12.8529L0.592274 14.3222C0.289866 14.5877 0.0887879 14.9498 0.0232465 15.3469C-0.0422949 15.7439 0.0317492 16.1514 0.232782 16.5001L2.28702 20.0584C2.48822 20.4072 2.80411 20.6755 3.18089 20.8175C3.55768 20.9596 3.97205 20.9666 4.35344 20.8375L6.47209 20.1202C6.83712 20.3664 7.2187 20.5872 7.61411 20.7809L8.05194 22.9726C8.13085 23.3674 8.34416 23.7227 8.65555 23.9779C8.96693 24.2331 9.35714 24.3725 9.75975 24.3723H11.814V22.6314H9.75975L9.14173 19.5414C8.28685 19.2237 7.49324 18.7608 6.7959 18.173L3.79549 19.188L1.74125 15.6296L4.1132 13.5449C3.95045 12.6448 3.94838 11.723 4.10711 10.8222L1.74125 8.74183L3.79549 5.18434L6.77849 6.19405C7.48045 5.60495 8.28032 5.14359 9.14173 4.83094L9.75975 1.74088H13.8682L14.4862 4.83094C15.3411 5.1486 16.1347 5.61152 16.8321 6.19927L19.8325 5.18434L21.8867 8.7427L19.4512 10.877L20.5985 12.1862L23.0357 10.0501C23.3381 9.78458 23.5392 9.42249 23.6047 9.02544C23.6703 8.62838 23.5962 8.22088 23.3952 7.87226Z" fill="#EDEDED"/>
</svg>
