<svg width="27" height="27" viewBox="0 0 27 27" fill="none" xmlns="http://www.w3.org/2000/svg">
<path d="M12.15 20.25H14.85V12.15H12.15V20.25ZM13.5 9.45C13.8825 9.45 14.2033 9.3204 14.4625 9.0612C14.7217 8.802 14.8509 8.4816 14.85 8.1C14.8491 7.7184 14.7195 7.398 14.4612 7.1388C14.2029 6.8796 13.8825 6.75 13.5 6.75C13.1175 6.75 12.7971 6.8796 12.5388 7.1388C12.2805 7.398 12.1509 7.7184 12.15 8.1C12.1491 8.4816 12.2787 8.80245 12.5388 9.06255C12.7989 9.32265 13.1193 9.4518 13.5 9.45ZM13.5 27C11.6325 27 9.8775 26.6454 8.235 25.9362C6.5925 25.227 5.16375 24.2653 3.94875 23.0512C2.73375 21.8371 1.7721 20.4084 1.0638 18.765C0.355502 17.1216 0.000901709 15.3666 1.70886e-06 13.5C-0.000898291 11.6334 0.353702 9.8784 1.0638 8.235C1.7739 6.5916 2.73555 5.16285 3.94875 3.94875C5.16195 2.73465 6.5907 1.773 8.235 1.0638C9.8793 0.3546 11.6343 0 13.5 0C15.3657 0 17.1207 0.3546 18.765 1.0638C20.4093 1.773 21.838 2.73465 23.0512 3.94875C24.2644 5.16285 25.2265 6.5916 25.9375 8.235C26.6485 9.8784 27.0027 11.6334 27 13.5C26.9973 15.3666 26.6427 17.1216 25.9362 18.765C25.2297 20.4084 24.268 21.8371 23.0512 23.0512C21.8344 24.2653 20.4057 25.2274 18.765 25.9375C17.1243 26.6476 15.3693 27.0018 13.5 27ZM13.5 24.3C16.515 24.3 19.0687 23.2537 21.1612 21.1612C23.2537 19.0687 24.3 16.515 24.3 13.5C24.3 10.485 23.2537 7.93125 21.1612 5.83875C19.0687 3.74625 16.515 2.7 13.5 2.7C10.485 2.7 7.93125 3.74625 5.83875 5.83875C3.74625 7.93125 2.7 10.485 2.7 13.5C2.7 16.515 3.74625 19.0687 5.83875 21.1612C7.93125 23.2537 10.485 24.3 13.5 24.3Z" fill="#9155FD"/>
</svg>
