<svg width="27" height="27" viewBox="0 0 27 27" fill="none" xmlns="http://www.w3.org/2000/svg">
<path d="M26 5.6875H11.9375M16.625 21.3125H2.5625" stroke="white" stroke-width="2" stroke-linecap="round" stroke-linejoin="round"/>
<path d="M21.3125 26C23.9013 26 26 23.9013 26 21.3125C26 18.7237 23.9013 16.625 21.3125 16.625C18.7237 16.625 16.625 18.7237 16.625 21.3125C16.625 23.9013 18.7237 26 21.3125 26Z" stroke="white" stroke-width="2" stroke-linecap="round" stroke-linejoin="round"/>
<path d="M5.6875 10.375C8.27633 10.375 10.375 8.27633 10.375 5.6875C10.375 3.09867 8.27633 1 5.6875 1C3.09867 1 1 3.09867 1 5.6875C1 8.27633 3.09867 10.375 5.6875 10.375Z" stroke="white" stroke-width="2" stroke-linecap="round" stroke-linejoin="round"/>
</svg>
