<svg width="27" height="28" viewBox="0 0 27 28" fill="none" xmlns="http://www.w3.org/2000/svg">
<path d="M17.2076 17.6264H27.0001V19.5849H17.2076V17.6264ZM17.2076 21.5434H27.0001V23.5019H17.2076V21.5434ZM17.2076 25.4604H27.0001V27.4189H17.2076V25.4604ZM13.2906 17.6264C12.7729 17.6385 12.2582 17.5454 11.7775 17.3528C11.2968 17.1603 10.8602 16.8722 10.4941 16.506C10.1279 16.1399 9.83982 15.7032 9.64724 15.2226C9.45467 14.7419 9.36159 14.2271 9.37365 13.7095C9.36159 13.1918 9.45467 12.677 9.64724 12.1963C9.83982 11.7157 10.1279 11.279 10.4941 10.9129C10.8602 10.5467 11.2968 10.2586 11.7775 10.0661C12.2582 9.87349 12.7729 9.78042 13.2906 9.79248C13.8083 9.78042 14.3231 9.87349 14.8037 10.0661C15.2844 10.2586 15.7211 10.5467 16.0872 10.9129C16.4534 11.279 16.7414 11.7157 16.934 12.1963C17.1266 12.677 17.2197 13.1918 17.2076 13.7095H19.1661C19.1661 12.5474 18.8215 11.4114 18.1759 10.4452C17.5303 9.479 16.6127 8.72593 15.5391 8.28123C14.4655 7.83653 13.2841 7.72018 12.1444 7.94688C11.0047 8.17359 9.95775 8.73317 9.13605 9.55487C8.31435 10.3766 7.75477 11.4235 7.52806 12.5632C7.30135 13.7029 7.41771 14.8843 7.86241 15.9579C8.30711 17.0315 9.06018 17.9491 10.0264 18.5947C10.9926 19.2403 12.1286 19.5849 13.2906 19.5849V17.6264Z" fill="#9155FD"/>
<path d="M26.3196 8.85629L24.0086 4.85314C23.7822 4.46073 23.4268 4.15893 23.003 3.99912C22.5791 3.83932 22.1129 3.8314 21.6838 3.97671L19.3004 4.78361C18.8897 4.50695 18.4604 4.25894 18.0156 4.04134L17.522 1.57365C17.4331 1.12985 17.1932 0.730556 16.8431 0.443666C16.493 0.156777 16.0544 1.73109e-06 15.6018 0H10.9797C10.527 4.70403e-05 10.0882 0.156961 9.73809 0.444045C9.38798 0.731129 9.14816 1.13065 9.05941 1.57463L8.56588 4.04134C8.11618 4.25676 7.68198 4.50314 7.26642 4.77871L4.89665 3.97671C4.46784 3.83191 4.00211 3.84009 3.57865 3.99987C3.1552 4.15965 2.80015 4.46116 2.57388 4.85314L0.262859 8.85629C0.0364686 9.24827 -0.04715 9.70658 0.026225 10.1533C0.0995999 10.5999 0.325438 11.0074 0.665329 11.3064L2.55625 12.9681C2.5396 13.2149 2.51904 13.4597 2.51904 13.7094C2.51904 13.9621 2.52818 14.2121 2.54646 14.4595L0.666308 16.1125C0.3261 16.4112 0.0998864 16.8186 0.0261524 17.2652C-0.0475817 17.7119 0.0357178 18.1704 0.26188 18.5626L2.5729 22.5657C2.79924 22.9581 3.15462 23.2599 3.5785 23.4197C4.00239 23.5795 4.46856 23.5875 4.89762 23.4421L7.28111 22.6352C7.69176 22.9122 8.12104 23.1606 8.56588 23.3785L9.05844 25.8442C9.14721 26.2884 9.38718 26.688 9.73749 26.9751C10.0878 27.2622 10.5268 27.419 10.9797 27.4189H13.2907V25.4604H10.9797L10.2845 21.984C9.3227 21.6267 8.42989 21.1059 7.64538 20.4447L4.26993 21.5865L1.95891 17.5833L4.62735 15.238C4.44425 14.2254 4.44193 13.1884 4.6205 12.1749L1.95891 9.83456L4.26993 5.83238L7.6258 6.96831C8.4155 6.30557 9.31536 5.78654 10.2845 5.43481L10.9797 1.95849H15.6018L16.297 5.43481C17.2588 5.79218 18.1516 6.31296 18.9361 6.97418L22.3115 5.83238L24.6226 9.83553L21.8826 12.2366L23.1733 13.7094L25.9152 11.3064C26.2554 11.0077 26.4816 10.6003 26.5553 10.1536C26.629 9.70693 26.5457 9.24849 26.3196 8.85629Z" fill="#9155FD"/>
</svg>
