<svg width="16" height="21" viewBox="0 0 16 21" fill="none" xmlns="http://www.w3.org/2000/svg">
<path d="M0 2.75C0 2.15326 0.237053 1.58097 0.65901 1.15901C1.08097 0.737053 1.65326 0.5 2.25 0.5H13.75C14.0455 0.5 14.3381 0.558198 14.611 0.671271C14.884 0.784344 15.1321 0.950078 15.341 1.15901C15.5499 1.36794 15.7157 1.61598 15.8287 1.88896C15.9418 2.16194 16 2.45453 16 2.75V9.25C16 9.54547 15.9418 9.83805 15.8287 10.111C15.7157 10.384 15.5499 10.6321 15.341 10.841C15.1321 11.0499 14.884 11.2157 14.611 11.3287C14.3381 11.4418 14.0455 11.5 13.75 11.5H10.5V19H12.25C12.4489 19 12.6397 19.079 12.7803 19.2197C12.921 19.3603 13 19.5511 13 19.75C13 19.9489 12.921 20.1397 12.7803 20.2803C12.6397 20.421 12.4489 20.5 12.25 20.5H3.75C3.55109 20.5 3.36032 20.421 3.21967 20.2803C3.07902 20.1397 3 19.9489 3 19.75C3 19.5511 3.07902 19.3603 3.21967 19.2197C3.36032 19.079 3.55109 19 3.75 19H5.5V11.5H2.25C1.65326 11.5 1.08097 11.2629 0.65901 10.841C0.237053 10.419 0 9.84674 0 9.25V2.75ZM7 11.5V19H9V11.5H7ZM2.25 2C2.05109 2 1.86032 2.07902 1.71967 2.21967C1.57902 2.36032 1.5 2.55109 1.5 2.75V9.25C1.5 9.664 1.836 10 2.25 10H13.75C13.9489 10 14.1397 9.92098 14.2803 9.78033C14.421 9.63968 14.5 9.44891 14.5 9.25V2.75C14.5 2.55109 14.421 2.36032 14.2803 2.21967C14.1397 2.07902 13.9489 2 13.75 2H2.25Z" fill="#EA9A00"/>
</svg>
