<svg width="24" height="24" viewBox="0 0 24 24" fill="none" xmlns="http://www.w3.org/2000/svg">
<path d="M23 5.125H10.625M14.75 18.875H2.375" stroke="#EDEDED" stroke-width="2" stroke-linecap="round" stroke-linejoin="round"/>
<path d="M18.875 23C21.1532 23 23 21.1532 23 18.875C23 16.5968 21.1532 14.75 18.875 14.75C16.5968 14.75 14.75 16.5968 14.75 18.875C14.75 21.1532 16.5968 23 18.875 23Z" stroke="#EDEDED" stroke-width="2" stroke-linecap="round" stroke-linejoin="round"/>
<path d="M5.125 9.25C7.40317 9.25 9.25 7.40317 9.25 5.125C9.25 2.84683 7.40317 1 5.125 1C2.84683 1 1 2.84683 1 5.125C1 7.40317 2.84683 9.25 5.125 9.25Z" stroke="#EDEDED" stroke-width="2" stroke-linecap="round" stroke-linejoin="round"/>
</svg>
