<svg width="30" height="30" viewBox="0 0 30 30" fill="none" xmlns="http://www.w3.org/2000/svg">
<path d="M-8.35419e-05 0.499999C-8.35419e-05 0.223856 0.223774 -1.33514e-06 0.499916 -1.33514e-06H4.64277C4.91892 -1.33514e-06 5.14277 0.223856 5.14277 0.499999V5.5C5.14277 5.77614 4.91892 6 4.64277 6H0.499917C0.223775 6 -8.35419e-05 5.77614 -8.35419e-05 5.5V0.499999Z" fill="#CCCBCE"/>
<path d="M-8.35419e-05 12.5C-8.35419e-05 12.2239 0.223774 12 0.499916 12H4.64277C4.91892 12 5.14277 12.2239 5.14277 12.5V17.5C5.14277 17.7761 4.91892 18 4.64277 18H0.499917C0.223775 18 -8.35419e-05 17.7761 -8.35419e-05 17.5V12.5Z" fill="#CCCBCE"/>
<path d="M-8.35419e-05 24.5C-8.35419e-05 24.2239 0.223774 24 0.499916 24H4.64277C4.91892 24 5.14277 24.2239 5.14277 24.5V29.5C5.14277 29.7761 4.91892 30 4.64277 30H0.499917C0.223775 30 -8.35419e-05 29.7761 -8.35419e-05 29.5V24.5Z" fill="#CCCBCE"/>
<path d="M8.57094 0.499999C8.57094 0.223856 8.7948 -1.33514e-06 9.07094 -1.33514e-06H29.4995C29.7757 -1.33514e-06 29.9995 0.223856 29.9995 0.499999V5.5C29.9995 5.77614 29.7757 6 29.4995 6H9.07094C8.7948 6 8.57094 5.77614 8.57094 5.5V0.499999Z" fill="#CCCBCE"/>
<path d="M8.57129 12.5C8.57129 12.2239 8.79515 12 9.07129 12H29.4999C29.776 12 29.9999 12.2239 29.9999 12.5V17.5C29.9999 17.7761 29.776 18 29.4999 18H9.07129C8.79515 18 8.57129 17.7761 8.57129 17.5V12.5Z" fill="#CCCBCE"/>
<path d="M8.57094 24.5C8.57094 24.2239 8.7948 24 9.07094 24H29.4995C29.7757 24 29.9995 24.2239 29.9995 24.5V29.5C29.9995 29.7761 29.7757 30 29.4995 30H9.07094C8.7948 30 8.57094 29.7761 8.57094 29.5V24.5Z" fill="#CCCBCE"/>
</svg>
