<svg width="16" height="28" viewBox="0 0 16 28" fill="none" xmlns="http://www.w3.org/2000/svg">
<path d="M8.91065 18.1745V9.54543C8.91065 9.20788 8.77656 8.88416 8.53788 8.64548C8.2992 8.40679 7.97548 8.2727 7.63793 8.2727C7.30038 8.2727 6.97666 8.40679 6.73798 8.64548C6.4993 8.88416 6.36521 9.20788 6.36521 9.54543V18.1745C5.98049 18.3966 5.6606 18.7155 5.43733 19.0995C5.21405 19.4836 5.09516 19.9194 5.09248 20.3636C5.09248 21.0387 5.36066 21.6861 5.83803 22.1635C6.31539 22.6408 6.96283 22.909 7.63793 22.909C8.31302 22.909 8.96047 22.6408 9.43783 22.1635C9.91519 21.6861 10.1834 21.0387 10.1834 20.3636C10.1807 19.9194 10.0618 19.4836 9.83853 19.0995C9.61526 18.7155 9.29537 18.3966 8.91065 18.1745ZM13.3652 15.2727V5.72726C13.3652 4.20829 12.7618 2.75154 11.6877 1.67747C10.6136 0.603405 9.15689 0 7.63793 0C6.11897 0 4.66222 0.603405 3.58815 1.67747C2.51408 2.75154 1.91067 4.20829 1.91067 5.72726V15.2727C1.03102 16.2695 0.426841 17.4787 0.157895 18.7806C-0.111052 20.0826 -0.0354439 21.4322 0.377239 22.6959C0.789921 23.9597 1.52538 25.0938 2.51086 25.9861C3.49635 26.8784 4.69771 27.498 5.99612 27.7836C6.53548 27.9065 7.08513 27.9789 7.63793 27.9999C9.11508 28.0068 10.5625 27.5851 11.8048 26.7859C13.0472 25.9867 14.031 24.8444 14.6372 23.4973C15.2434 22.1503 15.4459 20.6563 15.2201 19.1965C14.9943 17.7367 14.35 16.3737 13.3652 15.2727ZM10.8197 24.2708C9.8071 25.1687 8.47925 25.6275 7.12831 25.5464C5.77737 25.4652 4.514 24.8508 3.61612 23.8381C2.71825 22.8255 2.25942 21.4976 2.34057 20.1467C2.42172 18.7957 3.03621 17.5324 4.04885 16.6345C4.16911 16.5166 4.26478 16.3761 4.33032 16.2209C4.39586 16.0658 4.42997 15.8993 4.43067 15.7309V5.72726C4.43067 4.88339 4.76589 4.07408 5.3626 3.47738C5.9593 2.88067 6.76861 2.54545 7.61247 2.54545C8.45634 2.54545 9.26565 2.88067 9.86235 3.47738C10.4591 4.07408 10.7943 4.88339 10.7943 5.72726V15.8327C10.795 16.0011 10.8291 16.1676 10.8946 16.3228C10.9602 16.4779 11.0558 16.6184 11.1761 16.7363C11.6963 17.2389 12.1035 17.8465 12.3705 18.5188C12.6374 19.1911 12.7581 19.9125 12.7243 20.6351C12.6906 21.3576 12.5033 22.0647 12.1749 22.7091C11.8465 23.3536 11.3845 23.9207 10.8197 24.3727V24.2708Z" fill="#9155FD"/>
</svg>
