<svg width="26" height="18" viewBox="0 0 26 18" fill="none" xmlns="http://www.w3.org/2000/svg">
<path d="M17.5455 0C17.8468 0 18.1359 0.118527 18.349 0.329505C18.5621 0.540483 18.6818 0.826631 18.6818 1.125V5.85L24.6057 1.74375C24.6909 1.68464 24.7908 1.64981 24.8946 1.64306C24.9984 1.63632 25.1021 1.65791 25.1943 1.70549C25.2866 1.75308 25.3639 1.82482 25.4178 1.9129C25.4717 2.00098 25.5001 2.10202 25.5 2.205V15.795C25.5001 15.898 25.4717 15.999 25.4178 16.0871C25.3639 16.1752 25.2866 16.2469 25.1943 16.2945C25.1021 16.3421 24.9984 16.3637 24.8946 16.3569C24.7908 16.3502 24.6909 16.3154 24.6057 16.2563L18.6818 12.15V16.875C18.6818 17.1734 18.5621 17.4595 18.349 17.6705C18.1359 17.8815 17.8468 18 17.5455 18H1.63636C1.33498 18 1.04594 17.8815 0.832833 17.6705C0.619724 17.4595 0.5 17.1734 0.5 16.875V1.125C0.5 0.826631 0.619724 0.540483 0.832833 0.329505C1.04594 0.118527 1.33498 0 1.63636 0H17.5455Z" fill="white"/>
<path d="M7.07227 3C7.26379 3 7.43701 3.11903 7.51179 3.30274L9.44689 8.05971L8.71894 8.81636L8.20922 7.56294H5.93532L5.41262 8.84731C5.36182 8.96604 5.26823 9.05929 5.152 9.10701C5.03576 9.15472 4.90616 9.15308 4.79107 9.10244C4.67599 9.0518 4.58461 8.9562 4.5366 8.83622C4.48859 8.71623 4.48778 8.58145 4.53435 8.46085L6.63275 3.30274C6.66928 3.21293 6.73045 3.13632 6.80863 3.08247C6.8868 3.02863 6.9785 2.99994 7.07227 3ZM7.80556 6.571L7.07227 4.76883L6.33974 6.571H7.80556ZM11.559 6.70114C11.8848 6.36965 12.3231 6.18517 12.7789 6.18777C13.2346 6.19036 13.671 6.37981 13.9932 6.71498C14.3155 7.05016 14.4976 7.504 14.5 7.97796C14.5024 8.45193 14.3249 8.90775 14.0061 9.24647L10.4129 12.9829C10.2295 13.1737 10.0023 13.3127 9.75288 13.3868L7.36719 14.0959C7.30178 14.1153 7.23258 14.1162 7.16674 14.0984C7.1009 14.0807 7.04082 14.0449 6.99272 13.9949C6.94463 13.9449 6.91027 13.8824 6.89319 13.8139C6.87612 13.7455 6.87696 13.6735 6.89562 13.6055L7.57665 11.1252C7.64791 10.8658 7.78158 10.6295 7.96504 10.4388L11.559 6.70114Z" fill="#9155FD"/>
</svg>
