<svg width="18" height="18" viewBox="0 0 18 18" fill="none" xmlns="http://www.w3.org/2000/svg">
<path d="M14.5 14L17 16.5M0 1.5H16M0 7.5H4M0 13.5H4M7 10.5C7 11.5609 7.42143 12.5783 8.17157 13.3284C8.92172 14.0786 9.93913 14.5 11 14.5C12.0609 14.5 13.0783 14.0786 13.8284 13.3284C14.5786 12.5783 15 11.5609 15 10.5C15 9.43913 14.5786 8.42172 13.8284 7.67157C13.0783 6.92143 12.0609 6.5 11 6.5C9.93913 6.5 8.92172 6.92143 8.17157 7.67157C7.42143 8.42172 7 9.43913 7 10.5Z" stroke="#757575" stroke-width="2" stroke-linecap="round" stroke-linejoin="round"/>
</svg>
