<svg width="26" height="18" viewBox="0 0 26 18" fill="none" xmlns="http://www.w3.org/2000/svg">
<path d="M17.5455 0C17.8468 0 18.1359 0.118527 18.349 0.329505C18.5621 0.540483 18.6818 0.826631 18.6818 1.125V5.85L24.6057 1.74375C24.6909 1.68464 24.7908 1.64981 24.8946 1.64306C24.9984 1.63632 25.1021 1.65791 25.1943 1.70549C25.2866 1.75308 25.3639 1.82482 25.4178 1.9129C25.4717 2.00098 25.5001 2.10202 25.5 2.205V15.795C25.5001 15.898 25.4717 15.999 25.4178 16.0871C25.3639 16.1752 25.2866 16.2469 25.1943 16.2945C25.1021 16.3421 24.9984 16.3637 24.8946 16.3569C24.7908 16.3502 24.6909 16.3154 24.6057 16.2563L18.6818 12.15V16.875C18.6818 17.1734 18.5621 17.4595 18.349 17.6705C18.1359 17.8815 17.8468 18 17.5455 18H1.63636C1.33498 18 1.04594 17.8815 0.832833 17.6705C0.619724 17.4595 0.5 17.1734 0.5 16.875V1.125C0.5 0.826631 0.619724 0.540483 0.832833 0.329505C1.04594 0.118527 1.33498 0 1.63636 0H17.5455Z" fill="white"/>
<path d="M5.5 8H13.0556V9.88889H5.5V8Z" fill="#9155FD"/>
</svg>
