<svg width="20" height="20" viewBox="0 0 20 20" fill="none" xmlns="http://www.w3.org/2000/svg">
<path fill-rule="evenodd" clip-rule="evenodd" d="M2 0C0.895431 0 0 0.895431 0 2V18C0 19.1046 0.895431 20 2 20H18C19.1046 20 20 19.1046 20 18V2C20 0.895431 19.1046 0 18 0H2ZM6.45962 5.54038C6.20578 5.28654 5.79422 5.28654 5.54038 5.54038C5.28654 5.79422 5.28654 6.20578 5.54038 6.45962L9.08076 10L5.54038 13.5404C5.28654 13.7942 5.28654 14.2058 5.54038 14.4596C5.79422 14.7135 6.20578 14.7135 6.45962 14.4596L10 10.9192L13.5404 14.4596C13.7942 14.7135 14.2058 14.7135 14.4596 14.4596C14.7135 14.2058 14.7135 13.7942 14.4596 13.5404L10.9192 10L14.4596 6.45962C14.7135 6.20578 14.7135 5.79422 14.4596 5.54038C14.2058 5.28654 13.7942 5.28654 13.5404 5.54038L10 9.08076L6.45962 5.54038Z" fill="#9747FF"/>
</svg>
