<svg width="30" height="28" viewBox="0 0 30 28" fill="none" xmlns="http://www.w3.org/2000/svg">
<path d="M0.5 4C0.5 2.067 2.067 0.5 4 0.5H26C27.933 0.5 29.5 2.067 29.5 4V24C29.5 25.933 27.933 27.5 26 27.5H4C2.067 27.5 0.5 25.933 0.5 24V4Z" fill="#F3EDFE"/>
<path d="M0.5 4C0.5 2.067 2.067 0.5 4 0.5H26C27.933 0.5 29.5 2.067 29.5 4V24C29.5 25.933 27.933 27.5 26 27.5H4C2.067 27.5 0.5 25.933 0.5 24V4Z" stroke="#9747FF"/>
<path d="M15.9965 23.8133C18.1536 21.2299 23.0732 14.9684 23.0732 11.4513C23.0732 7.18581 19.4571 3.7251 15 3.7251C10.5429 3.7251 6.92676 7.18581 6.92676 11.4513C6.92676 14.9684 11.8464 21.2299 14.0034 23.8133C14.5206 24.429 15.4793 24.429 15.9965 23.8133ZM15 8.87593C15.7137 8.87593 16.3982 9.14726 16.9028 9.63025C17.4075 10.1132 17.691 10.7683 17.691 11.4513C17.691 12.1344 17.4075 12.7895 16.9028 13.2724C16.3982 13.7554 15.7137 14.0268 15 14.0268C14.2863 14.0268 13.6018 13.7554 13.0971 13.2724C12.5924 12.7895 12.3089 12.1344 12.3089 11.4513C12.3089 10.7683 12.5924 10.1132 13.0971 9.63025C13.6018 9.14726 14.2863 8.87593 15 8.87593Z" fill="#9747FF"/>
</svg>
