<svg width="106" height="28" viewBox="0 0 106 28" fill="none" xmlns="http://www.w3.org/2000/svg">
<path d="M0.5 4C0.5 2.067 2.067 0.5 4 0.5H102C103.933 0.5 105.5 2.067 105.5 4V24C105.5 25.933 103.933 27.5 102 27.5H4C2.067 27.5 0.5 25.933 0.5 24V4Z" fill="#F3EDFE"/>
<path d="M0.5 4C0.5 2.067 2.067 0.5 4 0.5H102C103.933 0.5 105.5 2.067 105.5 4V24C105.5 25.933 103.933 27.5 102 27.5H4C2.067 27.5 0.5 25.933 0.5 24V4Z" stroke="#9747FF"/>
<path d="M15.9965 23.8133C18.1536 21.2299 23.0732 14.9684 23.0732 11.4513C23.0732 7.18581 19.4571 3.7251 15 3.7251C10.5429 3.7251 6.92676 7.18581 6.92676 11.4513C6.92676 14.9684 11.8464 21.2299 14.0034 23.8133C14.5206 24.429 15.4793 24.429 15.9965 23.8133ZM15 8.87593C15.7137 8.87593 16.3982 9.14726 16.9028 9.63025C17.4075 10.1132 17.691 10.7683 17.691 11.4513C17.691 12.1344 17.4075 12.7895 16.9028 13.2724C16.3982 13.7554 15.7137 14.0268 15 14.0268C14.2863 14.0268 13.6018 13.7554 13.0971 13.2724C12.5924 12.7895 12.3089 12.1344 12.3089 11.4513C12.3089 10.7683 12.5924 10.1132 13.0971 9.63025C13.6018 9.14726 14.2863 8.87593 15 8.87593Z" fill="#9747FF"/>
<path d="M43.0338 10.2951H45.3618V11.0991H43.0338V10.2951ZM43.0338 12.2391H45.3618V13.0551H43.0338V12.2391ZM37.2138 9.16715H42.9258V9.98315H37.2138V9.16715ZM37.0338 14.4111L36.9138 13.5711C37.5138 13.5711 38.1738 13.5671 38.8938 13.5591C39.6218 13.5431 40.3618 13.5151 41.1138 13.4751C41.8658 13.4351 42.5818 13.3751 43.2618 13.2951L43.3098 14.0391C42.6218 14.1511 41.9018 14.2351 41.1498 14.2911C40.4058 14.3391 39.6778 14.3711 38.9658 14.3871C38.2618 14.4031 37.6178 14.4111 37.0338 14.4111ZM38.2818 9.81515H39.2538V13.8351H38.2818V9.81515ZM40.8858 9.81515H41.8458V13.8351H40.8858V9.81515ZM44.8218 8.35115H45.8178V15.0471H44.8218V8.35115ZM42.2418 15.2751C43.3698 15.2751 44.2538 15.4431 44.8938 15.7791C45.5338 16.1151 45.8538 16.5991 45.8538 17.2311C45.8538 17.8471 45.5338 18.3271 44.8938 18.6711C44.2538 19.0151 43.3698 19.1871 42.2418 19.1871C41.1218 19.1871 40.2378 19.0151 39.5898 18.6711C38.9498 18.3271 38.6298 17.8471 38.6298 17.2311C38.6298 16.5991 38.9498 16.1151 39.5898 15.7791C40.2378 15.4431 41.1218 15.2751 42.2418 15.2751ZM42.2418 16.0551C41.6978 16.0551 41.2258 16.1031 40.8258 16.1991C40.4338 16.2871 40.1338 16.4191 39.9258 16.5951C39.7178 16.7711 39.6138 16.9831 39.6138 17.2311C39.6138 17.5991 39.8458 17.8871 40.3098 18.0951C40.7738 18.3031 41.4178 18.4071 42.2418 18.4071C42.7938 18.4071 43.2658 18.3631 43.6578 18.2751C44.0498 18.1791 44.3498 18.0431 44.5578 17.8671C44.7658 17.6911 44.8698 17.4791 44.8698 17.2311C44.8698 16.9831 44.7658 16.7711 44.5578 16.5951C44.3498 16.4191 44.0498 16.2871 43.6578 16.1991C43.2658 16.1031 42.7938 16.0551 42.2418 16.0551ZM53.3069 10.2591H56.3309V11.0871H53.3069V10.2591ZM53.3069 12.5871H56.3549V13.4031H53.3069V12.5871ZM48.6029 9.29915H53.5469V14.3751H48.6029V9.29915ZM52.5749 10.1031H49.5749V13.5831H52.5749V10.1031ZM56.0309 8.36315H57.0269V16.2831H56.0309V8.36315ZM50.0549 18.1551H57.2789V18.9711H50.0549V18.1551ZM50.0549 15.5751H51.0509V18.5271H50.0549V15.5751ZM60.556 13.4271H68.008V14.2311H60.556V13.4271ZM59.308 17.0151H69.148V17.8431H59.308V17.0151ZM63.712 13.7751H64.696V17.3391H63.712V13.7751ZM60.556 9.21515H67.9V10.0431H61.552V13.7871H60.556V9.21515ZM77.602 8.86715C78.146 8.86715 78.626 8.96315 79.042 9.15515C79.458 9.33915 79.782 9.59915 80.014 9.93515C80.254 10.2631 80.374 10.6511 80.374 11.0991C80.374 11.5311 80.254 11.9191 80.014 12.2631C79.782 12.5991 79.458 12.8631 79.042 13.0551C78.626 13.2391 78.146 13.3311 77.602 13.3311C77.074 13.3311 76.602 13.2391 76.186 13.0551C75.77 12.8631 75.442 12.5991 75.202 12.2631C74.962 11.9191 74.842 11.5311 74.842 11.0991C74.842 10.6511 74.962 10.2631 75.202 9.93515C75.442 9.59915 75.77 9.33915 76.186 9.15515C76.602 8.96315 77.074 8.86715 77.602 8.86715ZM77.602 9.68315C77.258 9.68315 76.95 9.74315 76.678 9.86315C76.406 9.98315 76.19 10.1511 76.03 10.3671C75.878 10.5751 75.802 10.8191 75.802 11.0991C75.802 11.3711 75.878 11.6151 76.03 11.8311C76.19 12.0391 76.406 12.2031 76.678 12.3231C76.95 12.4431 77.258 12.5031 77.602 12.5031C77.962 12.5031 78.278 12.4431 78.55 12.3231C78.822 12.2031 79.034 12.0391 79.186 11.8311C79.346 11.6151 79.426 11.3711 79.426 11.0991C79.426 10.8191 79.346 10.5751 79.186 10.3671C79.034 10.1511 78.822 9.98315 78.55 9.86315C78.278 9.74315 77.962 9.68315 77.602 9.68315ZM77.17 14.5431H78.166V18.8751H77.17V14.5431ZM81.97 8.36315H82.954V19.2111H81.97V8.36315ZM74.17 15.0831L74.038 14.2431C74.71 14.2431 75.446 14.2351 76.246 14.2191C77.054 14.2031 77.882 14.1671 78.73 14.1111C79.586 14.0551 80.406 13.9671 81.19 13.8471L81.262 14.5911C80.454 14.7431 79.63 14.8551 78.79 14.9271C77.95 14.9911 77.134 15.0311 76.342 15.0471C75.558 15.0631 74.834 15.0751 74.17 15.0831ZM93.1551 8.35115H94.1631V19.2111H93.1551V8.35115ZM88.2831 10.9311H89.0871V11.8671C89.0871 12.4431 89.0111 13.0031 88.8591 13.5471C88.7071 14.0831 88.4911 14.5831 88.2111 15.0471C87.9391 15.5111 87.6151 15.9191 87.2391 16.2711C86.8711 16.6231 86.4671 16.9031 86.0271 17.1111L85.4751 16.3431C85.8751 16.1591 86.2431 15.9111 86.5791 15.5991C86.9231 15.2871 87.2191 14.9351 87.4671 14.5431C87.7231 14.1431 87.9231 13.7151 88.0671 13.2591C88.2111 12.8031 88.2831 12.3391 88.2831 11.8671V10.9311ZM88.4631 10.9311H89.2671V11.8671C89.2671 12.3151 89.3391 12.7591 89.4831 13.1991C89.6271 13.6311 89.8271 14.0391 90.0831 14.4231C90.3391 14.7991 90.6391 15.1351 90.9831 15.4311C91.3271 15.7271 91.7031 15.9671 92.1111 16.1511L91.5591 16.9191C91.1191 16.7191 90.7111 16.4511 90.3351 16.1151C89.9591 15.7711 89.6311 15.3791 89.3511 14.9391C89.0711 14.4911 88.8511 14.0071 88.6911 13.4871C88.5391 12.9671 88.4631 12.4271 88.4631 11.8671V10.9311ZM85.7631 10.2351H91.7391V11.0391H85.7631V10.2351ZM88.2711 8.55515H89.2671V10.6791H88.2711V8.55515Z" fill="#9155FD"/>
</svg>
