<svg width="25" height="33" viewBox="0 0 25 33" fill="none" xmlns="http://www.w3.org/2000/svg">
<path d="M14.043 32.2585C17.3828 28.1099 25 18.0549 25 12.4071C25 5.55735 19.401 0 12.5 0C5.59896 0 0 5.55735 0 12.4071C0 18.0549 7.61719 28.1099 10.957 32.2585C11.7578 33.2472 13.2422 33.2472 14.043 32.2585ZM12.5 8.27141C13.6051 8.27141 14.6649 8.70713 15.4463 9.48272C16.2277 10.2583 16.6667 11.3103 16.6667 12.4071C16.6667 13.504 16.2277 14.5559 15.4463 15.3315C14.6649 16.1071 13.6051 16.5428 12.5 16.5428C11.3949 16.5428 10.3351 16.1071 9.55372 15.3315C8.77232 14.5559 8.33333 13.504 8.33333 12.4071C8.33333 11.3103 8.77232 10.2583 9.55372 9.48272C10.3351 8.70713 11.3949 8.27141 12.5 8.27141Z" fill="#FF47BF"/>
</svg>
