<svg width="24" height="18" viewBox="0 0 24 18" fill="none" xmlns="http://www.w3.org/2000/svg">
<path d="M2.25 18C1.63125 18 1.10175 17.7799 0.6615 17.3396C0.22125 16.8994 0.00075 16.3695 0 15.75V2.25C0 1.63125 0.2205 1.10175 0.6615 0.6615C1.1025 0.22125 1.632 0.00075 2.25 0H8.07187C8.37187 0 8.658 0.0562501 8.93025 0.16875C9.2025 0.28125 9.44137 0.440625 9.64687 0.646875L11.25 2.25H21.375C21.6937 2.25 21.9611 2.358 22.1771 2.574C22.3931 2.79 22.5007 3.057 22.5 3.375C22.4992 3.693 22.3912 3.96037 22.176 4.17712C21.9607 4.39387 21.6937 4.5015 21.375 4.5H6.58125C5.41875 4.5 4.40625 4.86562 3.54375 5.59687C2.68125 6.32812 2.25 7.25625 2.25 8.38125V15.75L5.0625 9C5.625 7.875 5.784 7.95487 6.1875 7.66462C6.591 7.37437 7.58512 7.4065 8.07187 7.40575H21.375C22.1437 7.40575 22.7973 7.50832 23.0625 7.875C23.5035 8.48475 23.5226 8.93512 23.3156 9.64687L21.2906 16.3969C21.1406 16.8844 20.8642 17.2736 20.4615 17.5646C20.0587 17.8556 19.6132 18.0007 19.125 18H2.25Z" fill="#FEFEFF"/>
</svg>
