<svg width="24" height="18" viewBox="0 0 24 18" fill="none" xmlns="http://www.w3.org/2000/svg">
<path d="M0.925781 2.25C0.925781 1.63147 1.14551 1.10193 1.58716 0.661377C2.02881 0.220825 2.55835 0.00109863 3.17578 0H8.99854C9.29736 0 9.58301 0.0560303 9.85547 0.169189C10.1279 0.28125 10.3674 0.440552 10.5718 0.647095L12.1758 2.25H21.1758C22.4194 2.25 23.4258 3.25745 23.4258 4.5V15.75C23.4258 16.9926 22.4194 18 21.1758 18H3.17578C1.93213 18 0.925781 16.9926 0.925781 15.75V2.25Z" fill="white"/>
<path d="M14.3485 10.467L15.376 8.97751C15.5375 8.74344 15.4737 8.42276 15.2344 8.26488L10.0114 4.82026C9.77203 4.66238 9.44406 4.72471 9.2826 4.95878L6.34683 9.2145C6.18537 9.44857 6.24912 9.76925 6.4885 9.92713L11.7114 13.3718C11.9508 13.5296 12.2788 13.4673 12.4403 13.2332L13.4678 11.7437L14.0344 14.5942L17.2638 9.91293L14.3485 10.467Z" fill="#9747FF"/>
</svg>
