<svg width="23" height="20" viewBox="0 0 23 20" fill="none" xmlns="http://www.w3.org/2000/svg">
<path d="M2.19048 15.5556H11.0948L9.85714 16.8111V17.7778H2.19048C1.60953 17.7778 1.05237 17.5437 0.641576 17.1269C0.230782 16.7102 0 16.1449 0 15.5556V2.22222C0 0.988889 0.974762 0 2.19048 0H8.7619L10.9524 2.22222H19.7143C20.2952 2.22222 20.8524 2.45635 21.2632 2.8731C21.674 3.28984 21.9048 3.85507 21.9048 4.44444V6.83333C21.62 6.73333 21.3133 6.66667 20.9957 6.66667C20.5357 6.66667 20.1086 6.78889 19.7143 7V4.44444H2.19048V15.5556ZM22.8357 10.5222L21.39 9.05556C21.171 8.83333 20.8095 8.83333 20.6014 9.05556L19.5281 10.1444L21.7624 12.4111L22.8357 11.3222C23.0548 11.1111 23.0548 10.7444 22.8357 10.5222ZM12.0476 17.7333V20H14.2819L20.9957 13.2L18.7614 10.9222L12.0476 17.7333Z" fill="#9747FF"/>
</svg>
