<svg width="23" height="18" viewBox="0 0 23 18" fill="none" xmlns="http://www.w3.org/2000/svg">
<path d="M0 2.25C0 1.63147 0.219727 1.10193 0.661377 0.661377C1.10303 0.220825 1.63257 0.00109863 2.25 0H8.07275C8.37158 0 8.65723 0.0560303 8.92969 0.169189C9.20215 0.28125 9.44165 0.440552 9.646 0.647095L11.25 2.25H20.25C21.4937 2.25 22.5 3.25745 22.5 4.5V15.75C22.5 16.9926 21.4937 18 20.25 18H2.25C1.00635 18 0 16.9926 0 15.75V2.25Z" fill="#9747FF"/>
<path d="M13.4208 10.467L14.4483 8.97751C14.6098 8.74344 14.546 8.42276 14.3066 8.26488L9.08368 4.82026C8.8443 4.66238 8.51633 4.72471 8.35486 4.95878L5.4191 9.2145C5.25763 9.44857 5.32138 9.76925 5.56077 9.92713L10.7837 13.3718C11.0231 13.5296 11.3511 13.4673 11.5125 13.2332L12.54 11.7437L13.1067 14.5942L16.3361 9.91293L13.4208 10.467Z" fill="white"/>
</svg>
