<svg width="32" height="30" viewBox="0 0 32 30" fill="none" xmlns="http://www.w3.org/2000/svg">
<path d="M4.75 8.25C4.75 7.63147 4.96973 7.10193 5.41138 6.66138C5.85303 6.22083 6.38257 6.0011 7 6H12.8228C13.1216 6 13.4072 6.05603 13.6797 6.16919C13.9521 6.28125 14.1917 6.44055 14.396 6.64709L16 8.25H25C26.2437 8.25 27.25 9.25745 27.25 10.5V21.75C27.25 22.9926 26.2437 24 25 24H7C5.75635 24 4.75 22.9926 4.75 21.75V8.25Z" fill="#CCCCCC"/>
<path d="M18.1727 16.467L19.2002 14.9775C19.3617 14.7434 19.298 14.4228 19.0586 14.2649L13.8356 10.8203C13.5963 10.6624 13.2683 10.7247 13.1068 10.9588L10.1711 15.2145C10.0096 15.4486 10.0733 15.7692 10.3127 15.9271L15.5357 19.3718C15.775 19.5296 16.103 19.4673 16.2645 19.2332L17.292 17.7437L17.8587 20.5942L21.088 15.9129L18.1727 16.467Z" fill="white"/>
</svg>
