<svg width="106" height="28" viewBox="0 0 106 28" fill="none" xmlns="http://www.w3.org/2000/svg">
<path d="M0.5 4C0.5 2.067 2.067 0.5 4 0.5H102C103.933 0.5 105.5 2.067 105.5 4V24C105.5 25.933 103.933 27.5 102 27.5H4C2.067 27.5 0.5 25.933 0.5 24V4Z" fill="#F3EDFE"/>
<path d="M0.5 4C0.5 2.067 2.067 0.5 4 0.5H102C103.933 0.5 105.5 2.067 105.5 4V24C105.5 25.933 103.933 27.5 102 27.5H4C2.067 27.5 0.5 25.933 0.5 24V4Z" stroke="#9747FF"/>
<path d="M22.7143 5H7.28571C6.57857 5 6 5.57857 6 6.28571V21.7143C6 22.4214 6.57857 23 7.28571 23H16.9286V21.7143C16.9286 19.9143 18.3429 18.5 20.1429 18.5V17.2143C17.6357 17.2143 15.6429 19.2071 15.6429 21.7143H13.7143V19.1429H12.4286V21.7143H7.28571V6.28571H12.4286V15.2857H13.7143V12.0714H16.2857V10.7857H13.7143V6.28571H22.7143V10.7857H20.1429V12.0714H22.7143V21.7143H20.1429V23H22.7143C23.4214 23 24 22.4214 24 21.7143V6.28571C24 5.57857 23.4214 5 22.7143 5Z" fill="#9747FF"/>
<path d="M37.4293 10.2951H39.7573V11.0991H37.4293V10.2951ZM37.4293 12.2391H39.7573V13.0551H37.4293V12.2391ZM31.6093 9.16715H37.3213V9.98315H31.6093V9.16715ZM31.4293 14.4111L31.3093 13.5711C31.9093 13.5711 32.5693 13.5671 33.2893 13.5591C34.0173 13.5431 34.7573 13.5151 35.5093 13.4751C36.2613 13.4351 36.9773 13.3751 37.6573 13.2951L37.7053 14.0391C37.0173 14.1511 36.2973 14.2351 35.5453 14.2911C34.8013 14.3391 34.0733 14.3711 33.3613 14.3871C32.6573 14.4031 32.0133 14.4111 31.4293 14.4111ZM32.6773 9.81515H33.6493V13.8351H32.6773V9.81515ZM35.2813 9.81515H36.2413V13.8351H35.2813V9.81515ZM39.2173 8.35115H40.2133V15.0471H39.2173V8.35115ZM36.6373 15.2751C37.7653 15.2751 38.6493 15.4431 39.2893 15.7791C39.9293 16.1151 40.2493 16.5991 40.2493 17.2311C40.2493 17.8471 39.9293 18.3271 39.2893 18.6711C38.6493 19.0151 37.7653 19.1871 36.6373 19.1871C35.5173 19.1871 34.6333 19.0151 33.9853 18.6711C33.3453 18.3271 33.0253 17.8471 33.0253 17.2311C33.0253 16.5991 33.3453 16.1151 33.9853 15.7791C34.6333 15.4431 35.5173 15.2751 36.6373 15.2751ZM36.6373 16.0551C36.0933 16.0551 35.6213 16.1031 35.2213 16.1991C34.8293 16.2871 34.5293 16.4191 34.3213 16.5951C34.1133 16.7711 34.0093 16.9831 34.0093 17.2311C34.0093 17.5991 34.2413 17.8871 34.7053 18.0951C35.1693 18.3031 35.8133 18.4071 36.6373 18.4071C37.1893 18.4071 37.6613 18.3631 38.0533 18.2751C38.4453 18.1791 38.7453 18.0431 38.9533 17.8671C39.1613 17.6911 39.2653 17.4791 39.2653 17.2311C39.2653 16.9831 39.1613 16.7711 38.9533 16.5951C38.7453 16.4191 38.4453 16.2871 38.0533 16.1991C37.6613 16.1031 37.1893 16.0551 36.6373 16.0551ZM47.7024 10.2591H50.7264V11.0871H47.7024V10.2591ZM47.7024 12.5871H50.7504V13.4031H47.7024V12.5871ZM42.9984 9.29915H47.9424V14.3751H42.9984V9.29915ZM46.9704 10.1031H43.9704V13.5831H46.9704V10.1031ZM50.4264 8.36315H51.4224V16.2831H50.4264V8.36315ZM44.4504 18.1551H51.6744V18.9711H44.4504V18.1551ZM44.4504 15.5751H45.4464V18.5271H44.4504V15.5751ZM54.9514 13.4271H62.4034V14.2311H54.9514V13.4271ZM53.7034 17.0151H63.5434V17.8431H53.7034V17.0151ZM58.1074 13.7751H59.0914V17.3391H58.1074V13.7751ZM54.9514 9.21515H62.2954V10.0431H55.9474V13.7871H54.9514V9.21515ZM76.3415 8.35115H77.3375V19.2231H76.3415V8.35115ZM71.6135 9.19115C72.1495 9.19115 72.6215 9.34715 73.0295 9.65915C73.4455 9.96315 73.7695 10.3991 74.0015 10.9671C74.2415 11.5351 74.3615 12.2031 74.3615 12.9711C74.3615 13.7391 74.2415 14.4071 74.0015 14.9751C73.7695 15.5431 73.4455 15.9831 73.0295 16.2951C72.6215 16.6071 72.1495 16.7631 71.6135 16.7631C71.0775 16.7631 70.6015 16.6071 70.1855 16.2951C69.7695 15.9831 69.4415 15.5431 69.2015 14.9751C68.9695 14.4071 68.8535 13.7391 68.8535 12.9711C68.8535 12.2031 68.9695 11.5351 69.2015 10.9671C69.4415 10.3991 69.7695 9.96315 70.1855 9.65915C70.6015 9.34715 71.0775 9.19115 71.6135 9.19115ZM71.6135 10.0791C71.2535 10.0791 70.9375 10.1991 70.6655 10.4391C70.4015 10.6711 70.1935 11.0071 70.0415 11.4471C69.8895 11.8791 69.8135 12.3871 69.8135 12.9711C69.8135 13.5551 69.8895 14.0671 70.0415 14.5071C70.1935 14.9391 70.4015 15.2751 70.6655 15.5151C70.9375 15.7551 71.2535 15.8751 71.6135 15.8751C71.9655 15.8751 72.2735 15.7551 72.5375 15.5151C72.8095 15.2751 73.0215 14.9391 73.1735 14.5071C73.3255 14.0671 73.4015 13.5551 73.4015 12.9711C73.4015 12.3871 73.3255 11.8791 73.1735 11.4471C73.0215 11.0071 72.8095 10.6711 72.5375 10.4391C72.2735 10.1991 71.9655 10.0791 71.6135 10.0791ZM80.2786 9.41915H85.2706V16.4871H80.2786V9.41915ZM84.3106 10.2111H81.2626V15.6831H84.3106V10.2111ZM87.5506 8.35115H88.5466V19.2231H87.5506V8.35115ZM93.7436 9.91115H94.5596V11.6631C94.5596 12.2391 94.4796 12.8071 94.3196 13.3671C94.1596 13.9191 93.9356 14.4431 93.6476 14.9391C93.3676 15.4271 93.0396 15.8591 92.6636 16.2351C92.2876 16.6111 91.8836 16.9071 91.4516 17.1231L90.8756 16.3311C91.2676 16.1391 91.6356 15.8791 91.9796 15.5511C92.3316 15.2231 92.6396 14.8471 92.9036 14.4231C93.1676 13.9991 93.3716 13.5511 93.5156 13.0791C93.6676 12.6071 93.7436 12.1351 93.7436 11.6631V9.91115ZM93.9476 9.91115H94.7516V11.6631C94.7516 12.1191 94.8236 12.5751 94.9676 13.0311C95.1196 13.4791 95.3276 13.9031 95.5916 14.3031C95.8636 14.6951 96.1716 15.0431 96.5156 15.3471C96.8676 15.6511 97.2436 15.8911 97.6436 16.0671L97.0916 16.8591C96.6516 16.6511 96.2396 16.3711 95.8556 16.0191C95.4716 15.6671 95.1356 15.2631 94.8476 14.8071C94.5676 14.3431 94.3476 13.8471 94.1876 13.3191C94.0276 12.7831 93.9476 12.2311 93.9476 11.6631V9.91115ZM91.2236 9.46715H97.2836V10.2951H91.2236V9.46715ZM98.7596 8.35115H99.7556V19.2111H98.7596V8.35115Z" fill="#9155FD"/>
</svg>
