<svg width="30" height="28" viewBox="0 0 30 28" fill="none" xmlns="http://www.w3.org/2000/svg">
<path d="M0.5 4C0.5 2.067 2.067 0.5 4 0.5H26C27.933 0.5 29.5 2.067 29.5 4V24C29.5 25.933 27.933 27.5 26 27.5H4C2.067 27.5 0.5 25.933 0.5 24V4Z" fill="#F3EDFE"/>
<path d="M0.5 4C0.5 2.067 2.067 0.5 4 0.5H26C27.933 0.5 29.5 2.067 29.5 4V24C29.5 25.933 27.933 27.5 26 27.5H4C2.067 27.5 0.5 25.933 0.5 24V4Z" stroke="#9747FF"/>
<path d="M22.7143 5H7.28571C6.57857 5 6 5.57857 6 6.28571V21.7143C6 22.4214 6.57857 23 7.28571 23H16.9286V21.7143C16.9286 19.9143 18.3429 18.5 20.1429 18.5V17.2143C17.6357 17.2143 15.6429 19.2071 15.6429 21.7143H13.7143V19.1429H12.4286V21.7143H7.28571V6.28571H12.4286V15.2857H13.7143V12.0714H16.2857V10.7857H13.7143V6.28571H22.7143V10.7857H20.1429V12.0714H22.7143V21.7143H20.1429V23H22.7143C23.4214 23 24 22.4214 24 21.7143V6.28571C24 5.57857 23.4214 5 22.7143 5Z" fill="#9747FF"/>
</svg>
