<svg width="49" height="36" viewBox="0 0 49 36" fill="none" xmlns="http://www.w3.org/2000/svg">
<path d="M5 23.5016V17.7476M5 23.5V34H36.1608M14.5 2H5V17.7476M14.5 2H44V34H36.1608M14.5 2V10M5 17.7476H10.5M36.1608 27V34" stroke="#9155FD" stroke-width="3" stroke-linecap="round" stroke-linejoin="round"/>
<path d="M31.7857 15.0714H26.9286V10.2143C26.9286 9.54643 26.3821 9 25.7143 9H23.2857C22.6179 9 22.0714 9.54643 22.0714 10.2143V15.0714H17.2143C16.5464 15.0714 16 15.6179 16 16.2857V18.7143C16 19.3821 16.5464 19.9286 17.2143 19.9286H22.0714V24.7857C22.0714 25.4536 22.6179 26 23.2857 26H25.7143C26.3821 26 26.9286 25.4536 26.9286 24.7857V19.9286H31.7857C32.4536 19.9286 33 19.3821 33 18.7143V16.2857C33 15.6179 32.4536 15.0714 31.7857 15.0714Z" fill="#9155FD"/>
<path d="M31.7857 15.0714H26.9286V10.2143C26.9286 9.54643 26.3821 9 25.7143 9H23.2857C22.6179 9 22.0714 9.54643 22.0714 10.2143V15.0714H17.2143C16.5464 15.0714 16 15.6179 16 16.2857V18.7143C16 19.3821 16.5464 19.9286 17.2143 19.9286H22.0714V24.7857C22.0714 25.4536 22.6179 26 23.2857 26H25.7143C26.3821 26 26.9286 25.4536 26.9286 24.7857V19.9286H31.7857C32.4536 19.9286 33 19.3821 33 18.7143V16.2857C33 15.6179 32.4536 15.0714 31.7857 15.0714Z" stroke="black"/>
</svg>
