<svg width="53" height="36" viewBox="0 0 53 36" fill="none" xmlns="http://www.w3.org/2000/svg">
<path d="M2 23.5016V17.7476V2H18H51V34H41.1508H2V23.5" stroke="#9155FD" stroke-width="3" stroke-linecap="round" stroke-linejoin="round"/>
<path d="M15.2143 8.92833H12.0714V5.78547C12.0714 5.35333 11.7179 4.99976 11.2857 4.99976H9.71429C9.28214 4.99976 8.92857 5.35333 8.92857 5.78547V8.92833H5.78571C5.35357 8.92833 5 9.2819 5 9.71404V11.2855C5 11.7176 5.35357 12.0712 5.78571 12.0712H8.92857V15.214C8.92857 15.6462 9.28214 15.9998 9.71429 15.9998H11.2857C11.7179 15.9998 12.0714 15.6462 12.0714 15.214V12.0712H15.2143C15.6464 12.0712 16 11.7176 16 11.2855V9.71404C16 9.2819 15.6464 8.92833 15.2143 8.92833Z" fill="#9155FD"/>
<path d="M15.2143 8.92833H12.0714V5.78547C12.0714 5.35333 11.7179 4.99976 11.2857 4.99976H9.71429C9.28214 4.99976 8.92857 5.35333 8.92857 5.78547V8.92833H5.78571C5.35357 8.92833 5 9.2819 5 9.71404V11.2855C5 11.7176 5.35357 12.0712 5.78571 12.0712H8.92857V15.214C8.92857 15.6462 9.28214 15.9998 9.71429 15.9998H11.2857C11.7179 15.9998 12.0714 15.6462 12.0714 15.214V12.0712H15.2143C15.6464 12.0712 16 11.7176 16 11.2855V9.71404C16 9.2819 15.6464 8.92833 15.2143 8.92833Z" stroke="black"/>
<path d="M45.6429 6.78571H44.2143V5.35714C44.2143 5.16071 44.0536 5 43.8571 5H43.1429C42.9464 5 42.7857 5.16071 42.7857 5.35714V6.78571H41.3571C41.1607 6.78571 41 6.94643 41 7.14286V7.85714C41 8.05357 41.1607 8.21429 41.3571 8.21429H42.7857V9.64286C42.7857 9.83929 42.9464 10 43.1429 10H43.8571C44.0536 10 44.2143 9.83929 44.2143 9.64286V8.21429H45.6429C45.8393 8.21429 46 8.05357 46 7.85714V7.14286C46 6.94643 45.8393 6.78571 45.6429 6.78571Z" fill="#9155FD"/>
<path d="M45.6429 6.78571H44.2143V5.35714C44.2143 5.16071 44.0536 5 43.8571 5H43.1429C42.9464 5 42.7857 5.16071 42.7857 5.35714V6.78571H41.3571C41.1607 6.78571 41 6.94643 41 7.14286V7.85714C41 8.05357 41.1607 8.21429 41.3571 8.21429H42.7857V9.64286C42.7857 9.83929 42.9464 10 43.1429 10H43.8571C44.0536 10 44.2143 9.83929 44.2143 9.64286V8.21429H45.6429C45.8393 8.21429 46 8.05357 46 7.85714V7.14286C46 6.94643 45.8393 6.78571 45.6429 6.78571Z" stroke="black"/>
<path d="M11.5 25.5H9.5V23.5C9.5 23.225 9.275 23 9 23H8C7.725 23 7.5 23.225 7.5 23.5V25.5H5.5C5.225 25.5 5 25.725 5 26V27C5 27.275 5.225 27.5 5.5 27.5H7.5V29.5C7.5 29.775 7.725 30 8 30H9C9.275 30 9.5 29.775 9.5 29.5V27.5H11.5C11.775 27.5 12 27.275 12 27V26C12 25.725 11.775 25.5 11.5 25.5Z" fill="#9155FD"/>
<path d="M11.5 25.5H9.5V23.5C9.5 23.225 9.275 23 9 23H8C7.725 23 7.5 23.225 7.5 23.5V25.5H5.5C5.225 25.5 5 25.725 5 26V27C5 27.275 5.225 27.5 5.5 27.5H7.5V29.5C7.5 29.775 7.725 30 8 30H9C9.275 30 9.5 29.775 9.5 29.5V27.5H11.5C11.775 27.5 12 27.275 12 27V26C12 25.725 11.775 25.5 11.5 25.5Z" stroke="black"/>
<path d="M21.1594 16.732H23.3794V18.004H21.1594V16.732ZM21.1594 18.82H23.3794V20.092H21.1594V18.82ZM15.0274 15.676H20.8954V16.96H15.0274V15.676ZM14.9194 21.34L14.7634 20.044C15.3554 20.044 16.0114 20.04 16.7314 20.032C17.4514 20.016 18.1834 19.992 18.9274 19.96C19.6714 19.92 20.3754 19.86 21.0394 19.78L21.1354 20.944C20.4474 21.064 19.7354 21.152 18.9994 21.208C18.2634 21.264 17.5434 21.3 16.8394 21.316C16.1434 21.332 15.5034 21.34 14.9194 21.34ZM15.9154 16.756H17.4514V20.512H15.9154V16.756ZM18.4954 16.756H20.0194V20.512H18.4954V16.756ZM22.4554 14.956H24.0634V21.748H22.4554V14.956ZM20.2954 21.916C21.4794 21.916 22.4074 22.096 23.0794 22.456C23.7594 22.816 24.0994 23.328 24.0994 23.992C24.0994 24.648 23.7594 25.156 23.0794 25.516C22.4074 25.884 21.4794 26.068 20.2954 26.068C19.1194 26.068 18.1914 25.884 17.5114 25.516C16.8314 25.156 16.4914 24.648 16.4914 23.992C16.4914 23.328 16.8314 22.816 17.5114 22.456C18.1914 22.096 19.1194 21.916 20.2954 21.916ZM20.2954 23.128C19.8154 23.128 19.4074 23.16 19.0714 23.224C18.7434 23.28 18.4954 23.376 18.3274 23.512C18.1594 23.64 18.0754 23.8 18.0754 23.992C18.0754 24.288 18.2594 24.508 18.6274 24.652C19.0034 24.796 19.5594 24.868 20.2954 24.868C20.7834 24.868 21.1914 24.836 21.5194 24.772C21.8474 24.708 22.0914 24.612 22.2514 24.484C22.4194 24.356 22.5034 24.192 22.5034 23.992C22.5034 23.8 22.4194 23.64 22.2514 23.512C22.0914 23.376 21.8474 23.28 21.5194 23.224C21.1914 23.16 20.7834 23.128 20.2954 23.128ZM31.3365 16.696H34.1325V17.968H31.3365V16.696ZM31.3365 19.084H34.1805V20.356H31.3365V19.084ZM26.4165 15.844H31.6725V21.28H26.4165V15.844ZM30.1125 17.092H27.9885V20.02H30.1125V17.092ZM33.6645 14.956H35.2725V23.044H33.6645V14.956ZM27.9165 24.592H35.5125V25.876H27.9165V24.592ZM27.9165 22.288H29.5125V25.264H27.9165V22.288ZM38.3575 19.9H46.1695V21.184H38.3575V19.9ZM37.1815 23.512H47.2495V24.82H37.1815V23.512ZM41.4055 20.488H42.9895V23.932H41.4055V20.488ZM38.3575 15.712H46.0855V16.984H39.9415V20.452H38.3575V15.712Z" fill="#9155FD"/>
</svg>
