<svg width="22" height="20" viewBox="0 0 22 20" fill="none" xmlns="http://www.w3.org/2000/svg">
<path d="M18.9391 2.97811C18.6074 2.65533 18.2136 2.39928 17.7802 2.22459C17.3467 2.04989 16.8822 1.95998 16.413 1.95998C15.9439 1.95998 15.4793 2.04989 15.0459 2.22459C14.6125 2.39928 14.2186 2.65533 13.8869 2.97811L11.7221 5.08438L10.2779 3.6802L12.4437 1.57393C13.4989 0.560987 14.9229 -0.00480091 16.4052 3.06923e-05C17.8875 0.00486229 19.3077 0.579921 20.3558 1.59972C21.404 2.61953 21.995 4.00129 22 5.4435C22.0049 6.88571 21.4234 8.2713 20.3823 9.29791L17.1346 12.4578C16.0819 13.482 14.6541 14.0574 13.1653 14.0574C11.6765 14.0574 10.2487 13.482 9.196 12.4578L7.63134 10.9355L9.07557 9.53128L10.6392 11.0536C10.9709 11.3764 11.3647 11.6325 11.7982 11.8072C12.2316 11.9818 12.6962 12.0718 13.1653 12.0718C13.6345 12.0718 14.099 11.9818 14.5324 11.8072C14.9659 11.6325 15.3597 11.3764 15.6914 11.0536L18.9391 7.89373C19.2709 7.57098 19.534 7.18781 19.7136 6.76609C19.8931 6.34438 19.9856 5.89239 19.9856 5.43592C19.9856 4.97946 19.8931 4.52746 19.7136 4.10575C19.534 3.68404 19.2709 3.30086 18.9391 2.97811ZM11.3608 8.94637C11.0291 8.62358 10.6353 8.36753 10.2018 8.19284C9.76839 8.01815 9.30384 7.92824 8.83469 7.92824C8.36554 7.92824 7.90099 8.01815 7.46756 8.19284C7.03412 8.36753 6.6403 8.62358 6.30858 8.94637L3.06087 12.1063C2.39091 12.7581 2.01452 13.6422 2.01452 14.5641C2.01452 15.4859 2.39091 16.37 3.06087 17.0219C3.73084 17.6737 4.63951 18.0399 5.58698 18.0399C6.53446 18.0399 7.44312 17.6737 8.11309 17.0219L10.2789 14.9156L11.7221 16.3198L9.55629 18.4261C8.50115 19.439 7.07706 20.0048 5.59477 20C4.11248 19.9951 2.69232 19.4201 1.64418 18.4003C0.596036 17.3805 0.00499741 15.9987 3.15452e-05 14.5565C-0.00493432 13.1143 0.576576 11.7287 1.61767 10.7021L4.8664 7.54219C5.91915 6.51796 7.34694 5.94255 8.83571 5.94255C10.3245 5.94255 11.7523 6.51796 12.805 7.54219L14.1278 8.82919L12.6846 10.2334L11.3608 8.94637Z" fill="#CCCCCC"/>
</svg>
