<svg width="24" height="24" viewBox="0 0 24 24" fill="none" xmlns="http://www.w3.org/2000/svg">
<path d="M11.5117 22.4877C8.82839 20.2044 6.82439 18.0837 5.49972 16.1257C4.17505 14.1677 3.51239 12.355 3.51172 10.6877C3.51172 8.1877 4.31605 6.19603 5.92472 4.7127C7.53339 3.22936 9.39572 2.4877 11.5117 2.4877C11.9617 2.4877 12.4077 2.52536 12.8497 2.6007C13.2917 2.67603 13.7207 2.78003 14.1367 2.9127L8.51172 8.5627V13.4877H13.4367L19.0617 7.8627C19.2117 8.29603 19.3244 8.74603 19.3997 9.2127C19.4751 9.67936 19.5124 10.171 19.5117 10.6877C19.5117 12.3544 18.8494 14.167 17.5247 16.1257C16.2001 18.0844 14.1957 20.205 11.5117 22.4877ZM10.5117 11.4877V9.38769L16.7117 3.1877L18.8117 5.2877L12.6117 11.4877H10.5117ZM19.5117 4.5877L17.4117 2.4877L18.1117 1.7877C18.2951 1.60436 18.5284 1.5127 18.8117 1.5127C19.0951 1.5127 19.3284 1.60436 19.5117 1.7877L20.2117 2.4877C20.3951 2.67103 20.4867 2.90436 20.4867 3.1877C20.4867 3.47103 20.3951 3.70436 20.2117 3.8877L19.5117 4.5877Z" fill="#9747FF"/>
</svg>
