<svg width="43" height="38" viewBox="0 0 43 38" fill="none" xmlns="http://www.w3.org/2000/svg">
<path d="M29.9074 9.03974C29.9074 13.1528 24.549 20.4826 22.196 23.5034C21.6316 24.2265 20.5833 24.2265 20.0262 23.5034C17.6732 20.4826 12.3148 13.1528 12.3148 9.03974C12.3148 4.04528 16.2512 -1.53395e-05 21.1111 -1.53395e-05C25.9711 -1.53395e-05 29.9074 4.04528 29.9074 9.03974ZM30.4938 15.0964C30.7504 14.5766 30.985 14.0568 31.1975 13.5446C31.2342 13.4542 31.2708 13.3562 31.3075 13.2658L39.8106 9.77046C40.9688 9.29587 42.2222 10.1697 42.2222 11.4503V31.8501C42.2222 32.5883 41.7824 33.2512 41.1154 33.53L30.4938 37.8916V15.0964ZM10.0864 10.4183C10.2623 11.4805 10.6142 12.5502 11.0247 13.5446C11.2373 14.0568 11.4718 14.5766 11.7284 15.0964V34.0347L2.41165 37.869C1.25347 38.3436 0 37.4698 0 36.1891V15.7894C0 15.0512 0.439815 14.3883 1.10687 14.1095L10.0938 10.4183H10.0864ZM24.0286 25.01C25.0475 23.6992 26.6455 21.5673 28.1482 19.2095V37.9896L14.0741 33.8539V19.2095C15.5768 21.5673 17.1748 23.6992 18.1937 25.01C19.6964 26.9385 22.5259 26.9385 24.0286 25.01ZM21.1111 11.4503C21.8888 11.4503 22.6345 11.1329 23.1844 10.5678C23.7343 10.0027 24.0432 9.23626 24.0432 8.43709C24.0432 7.63793 23.7343 6.8715 23.1844 6.3064C22.6345 5.74131 21.8888 5.42384 21.1111 5.42384C20.3335 5.42384 19.5877 5.74131 19.0378 6.3064C18.4879 6.8715 18.179 7.63793 18.179 8.43709C18.179 9.23626 18.4879 10.0027 19.0378 10.5678C19.5877 11.1329 20.3335 11.4503 21.1111 11.4503Z" fill="#B3B3B3"/>
</svg>
