<svg width="39" height="38" viewBox="0 0 39 38" fill="none" xmlns="http://www.w3.org/2000/svg">
<path d="M29.3157 24.0982L32.6259 19.5422C33.146 18.8263 32.9858 17.8149 32.2699 17.2947L16.6494 5.94575C15.9334 5.42559 14.9221 5.58577 14.4019 6.30171L4.94442 19.3188C4.42426 20.0348 4.58444 21.0461 5.30038 21.5663L20.9209 32.9153C21.6369 33.4354 22.6482 33.2752 23.1684 32.5593L26.4785 28.0033L27.9023 36.9932L38.3056 22.6743L29.3157 24.0982Z" fill="#9155FD"/>
<path fill-rule="evenodd" clip-rule="evenodd" d="M2 0C0.89543 0 0 0.89543 0 2C0 3.10457 0.89543 4 2 4H12.5113L12.92 3.43325C13.8892 2.0894 15.7642 1.78565 17.1081 2.7548L18.8347 4H36.548C37.6526 4 38.548 3.10457 38.548 2C38.548 0.89543 37.6526 0 36.548 0H2ZM7.42313 11.0554H2C0.89543 11.0554 0 11.9508 0 13.0554C0 14.1599 0.89543 15.0554 2 15.0554H4.53843L7.42313 11.0554ZM34.1644 15.0554L28.6179 11.0554H36.548C37.6526 11.0554 38.548 11.9508 38.548 13.0554C38.548 14.1599 37.6526 15.0554 36.548 15.0554H34.1644ZM1.57992 22.1549C1.78628 22.518 2.07212 22.8435 2.43294 23.1037L6.60259 26.1108H2C0.89543 26.1108 0 25.2153 0 24.1108C0 23.1503 0.677049 22.3479 1.57992 22.1549ZM2 33.1661C0.89543 33.1661 0 34.0616 0 35.1661C0 36.2707 0.89543 37.1661 2 37.1661H15.4354C16.5399 37.1661 17.4354 36.2707 17.4354 35.1661C17.4354 34.0616 16.5399 33.1661 15.4354 33.1661H2Z" fill="#9155FD"/>
</svg>
