<svg width="58" height="38" viewBox="0 0 58 38" fill="none" xmlns="http://www.w3.org/2000/svg">
<path d="M17.2 10C17.5 11.0783 18.1 12.1642 18.8 13.1737C19.1625 13.6937 19.5625 14.2214 20 14.749V33.9745L4.1125 37.8671C2.1375 38.3489 0 37.4618 0 36.1617V15.4526C0 14.7031 0.75 14.0302 1.8875 13.7472L17.2125 10H17.2Z" fill="#B3B3B3"/>
<path d="M38 15.4082C38.4375 14.893 38.8375 14.3779 39.2 13.8702C39.2625 13.7806 39.325 13.6836 39.3875 13.594L53.8875 10.1298C55.8625 9.65943 58 10.5255 58 11.7947V32.0123C58 32.744 57.25 33.401 56.1125 33.6772L38 38V15.4082Z" fill="#B3B3B3"/>
<path d="M37.5926 9.03976C37.5926 13.1528 32.2342 20.4826 29.8812 23.5034C29.3167 24.2266 28.2685 24.2266 27.7114 23.5034C25.3584 20.4826 20 13.1528 20 9.03976C20 4.04529 23.9363 0 28.7963 0C33.6563 0 37.5926 4.04529 37.5926 9.03976ZM31.7137 25.01C32.7326 23.6992 34.3306 21.5674 35.8333 19.2095V37.9896L21.7593 33.8539V19.2095C23.262 21.5674 24.86 23.6992 25.8789 25.01C27.3816 26.9385 30.211 26.9385 31.7137 25.01ZM28.7963 11.4504C29.5739 11.4504 30.3197 11.1329 30.8696 10.5678C31.4195 10.0027 31.7284 9.23627 31.7284 8.43711C31.7284 7.63794 31.4195 6.87151 30.8696 6.30642C30.3197 5.74132 29.5739 5.42385 28.7963 5.42385C28.0187 5.42385 27.2729 5.74132 26.723 6.30642C26.1731 6.87151 25.8642 7.63794 25.8642 8.43711C25.8642 9.23627 26.1731 10.0027 26.723 10.5678C27.2729 11.1329 28.0187 11.4504 28.7963 11.4504Z" fill="#B3B3B3"/>
</svg>
