<svg width="20" height="20" viewBox="0 0 20 20" fill="none" xmlns="http://www.w3.org/2000/svg">
<path d="M10.625 1.875C10.625 1.37772 10.8225 0.900805 11.1742 0.549175C11.5258 0.197544 12.0027 0 12.5 0L17.5 0C18.163 0 18.7989 0.263392 19.2678 0.732233C19.7366 1.20107 20 1.83696 20 2.5V17.5C20 18.163 19.7366 18.7989 19.2678 19.2678C18.7989 19.7366 18.163 20 17.5 20H2.5C1.83696 20 1.20107 19.7366 0.732233 19.2678C0.263392 18.7989 0 18.163 0 17.5V2.5C0 1.83696 0.263392 1.20107 0.732233 0.732233C1.20107 0.263392 1.83696 0 2.5 0L10 0C9.6075 0.5225 9.375 1.17125 9.375 1.875V11.6163L6.0675 8.3075C6.00939 8.24939 5.9404 8.20329 5.86448 8.17185C5.78856 8.1404 5.70718 8.12421 5.625 8.12421C5.54282 8.12421 5.46144 8.1404 5.38552 8.17185C5.3096 8.20329 5.24061 8.24939 5.1825 8.3075C5.12439 8.36561 5.07829 8.4346 5.04685 8.51052C5.0154 8.58644 4.99921 8.66782 4.99921 8.75C4.99921 8.83218 5.0154 8.91356 5.04685 8.98948C5.07829 9.0654 5.12439 9.13439 5.1825 9.1925L9.5575 13.5675C9.61556 13.6257 9.68453 13.6719 9.76046 13.7034C9.83639 13.7349 9.91779 13.7511 10 13.7511C10.0822 13.7511 10.1636 13.7349 10.2395 13.7034C10.3155 13.6719 10.3844 13.6257 10.4425 13.5675L14.8175 9.1925C14.9349 9.07514 15.0008 8.91597 15.0008 8.75C15.0008 8.58403 14.9349 8.42486 14.8175 8.3075C14.7001 8.19014 14.541 8.12421 14.375 8.12421C14.209 8.12421 14.0499 8.19014 13.9325 8.3075L10.625 11.6163V1.875Z" fill="#9747FF"/>
</svg>
