<svg width="24" height="24" viewBox="0 0 24 24" fill="none" xmlns="http://www.w3.org/2000/svg">
<path d="M4.52861 5.44929L6.67705 7.59963C6.79599 7.71837 6.95713 7.78505 7.12514 7.78505C7.29314 7.78505 7.45428 7.71837 7.57322 7.59963C7.69194 7.48061 7.75862 7.31931 7.75862 7.15114C7.75862 6.98297 7.69194 6.82167 7.57322 6.70264L5.43361 4.56204L5.43229 4.56027C5.43184 4.55968 5.43126 4.55924 5.43052 4.55894L5.42477 4.55319L5.42411 4.55385C5.30479 4.43822 5.14486 4.37411 4.97876 4.37535C4.81266 4.37659 4.6537 4.44308 4.53612 4.56049C4.41866 4.67798 4.35212 4.83701 4.35088 5.0032C4.34964 5.16939 4.4138 5.32939 4.52949 5.44863L4.52861 5.44929ZM8.21959 4.59987L9.0061 7.53681C9.02763 7.61723 9.06477 7.69262 9.11542 7.75867C9.16606 7.82472 9.22922 7.88014 9.30127 7.92175C9.37333 7.96337 9.45287 7.99038 9.53536 8.00122C9.61784 8.01207 9.70166 8.00655 9.78201 7.98497C9.9442 7.94127 10.0824 7.83499 10.1664 7.68944C10.2504 7.54389 10.2733 7.37095 10.2301 7.20854L9.44645 4.28332L9.44623 4.28177L9.44556 4.28022L9.44313 4.27138L9.44225 4.2716C9.39673 4.11178 9.29027 3.97627 9.14584 3.89425C9.0014 3.81224 8.83055 3.7903 8.6701 3.83317C8.50969 3.87628 8.37263 3.98075 8.28848 4.12404C8.20433 4.26734 8.17983 4.43799 8.22025 4.5992L8.21959 4.59987ZM4.49611 9.66038L4.49589 9.66149L4.50606 9.66414H4.5065L7.43086 10.4481C7.51182 10.4717 7.59666 10.4788 7.68042 10.4691C7.76418 10.4595 7.84516 10.4332 7.91863 10.3918C7.9921 10.3504 8.05657 10.2947 8.10827 10.2281C8.15997 10.1614 8.19785 10.0851 8.2197 10.0036C8.24155 9.92214 8.24692 9.83711 8.2355 9.75351C8.22409 9.66992 8.19611 9.58945 8.15322 9.51681C8.11032 9.44417 8.05337 9.38084 7.9857 9.33051C7.91803 9.28018 7.841 9.24388 7.75913 9.22372L4.83787 8.44044C4.83683 8.43985 4.83566 8.4394 4.83433 8.43911L4.83057 8.43844L4.82394 8.43667L4.82372 8.43734C4.66262 8.39695 4.49211 8.42149 4.34893 8.50569C4.20574 8.58989 4.10133 8.727 4.0582 8.88749C4.01541 9.04805 4.03732 9.21899 4.11922 9.36354C4.20112 9.50809 4.33646 9.61468 4.49611 9.66038ZM19.4714 18.5506L17.3227 16.4005C17.2638 16.3416 17.194 16.295 17.1171 16.2631C17.0402 16.2313 16.9578 16.2149 16.8746 16.2149C16.7913 16.2149 16.7089 16.2313 16.6321 16.2632C16.5552 16.2951 16.4854 16.3418 16.4265 16.4007C16.3677 16.4596 16.321 16.5295 16.2892 16.6065C16.2574 16.6834 16.241 16.7659 16.241 16.8492C16.2411 16.9324 16.2575 17.0149 16.2893 17.0918C16.3212 17.1687 16.3679 17.2386 16.4267 17.2975L18.5663 19.4381L18.5677 19.4399L18.5694 19.4412L18.5752 19.447L18.5759 19.4463C18.6952 19.5619 18.8551 19.626 19.0212 19.6248C19.1873 19.6236 19.3463 19.5571 19.4638 19.4397C19.5812 19.322 19.6476 19.163 19.6488 18.9968C19.6501 18.8307 19.586 18.6707 19.4705 18.5513L19.4714 18.5506ZM15.7804 19.4003L14.9936 16.4633C14.9721 16.3829 14.935 16.3075 14.8843 16.2415C14.8337 16.1754 14.7705 16.12 14.6985 16.0784C14.6264 16.0368 14.5469 16.0098 14.4644 15.9989C14.3819 15.9881 14.2981 15.9936 14.2177 16.0152C14.1374 16.0367 14.062 16.0738 13.996 16.1245C13.93 16.1751 13.8746 16.2383 13.833 16.3104C13.7914 16.3825 13.7644 16.4621 13.7535 16.5446C13.7426 16.6271 13.7481 16.711 13.7696 16.7914L14.5535 19.7182V19.7186L14.5562 19.7285L14.5573 19.7283C14.6027 19.8882 14.7092 20.0238 14.8536 20.1058C14.9981 20.1879 15.1689 20.2098 15.3294 20.167C15.4898 20.1238 15.6267 20.0193 15.7108 19.876C15.7949 19.7327 15.8194 19.5621 15.779 19.4009L15.7804 19.4003ZM19.5034 14.3398L19.5036 14.3389L19.4946 14.3364L19.4935 14.336L19.4924 14.3358L16.5687 13.5518C16.2304 13.4611 15.8834 13.6622 15.7925 14C15.7492 14.1624 15.7721 14.3354 15.8561 14.481C15.9401 14.6266 16.0784 14.7329 16.2406 14.7766L19.1639 15.5602L19.1652 15.5606L19.1667 15.5608L19.1756 15.5633L19.1758 15.5624C19.3355 15.5991 19.5033 15.5723 19.6437 15.4878C19.7841 15.4033 19.8863 15.2675 19.9288 15.1091C19.9712 14.9507 19.9506 14.7821 19.8713 14.6386C19.7919 14.4951 19.6601 14.3879 19.5034 14.3398ZM11.6048 12.3885C9.93543 10.718 7.26153 10.6653 5.52889 12.2308L5.52469 12.2266L3.29268 14.4601C1.56911 16.1848 1.56911 18.9815 3.29268 20.7063C5.01626 22.4312 7.81085 22.4312 9.53465 20.7063L11.7669 18.4725L11.7627 18.4683C13.3267 16.7348 13.2743 14.0591 11.6048 12.3885ZM10.1563 16.99L10.0194 17.127L10.0192 17.1272H10.019L8.02837 19.1191L8.02815 19.1194C7.1583 19.9898 5.74818 19.9898 4.87854 19.1194C4.0089 18.2489 4.00868 16.8378 4.87854 15.9676L4.87876 15.9674L6.86937 13.9752L6.8696 13.975L6.86982 13.9748L7.00665 13.8378L7.01306 13.844C7.88822 13.1076 9.19577 13.1508 10.0194 13.9748C10.8431 14.799 10.8862 16.1076 10.1501 16.9832L10.1563 16.99ZM20.7073 3.29365C19.0379 1.6231 16.364 1.57046 14.6313 3.13593L14.6271 3.13173L12.3951 5.36524C10.6715 7.08998 10.6715 9.88668 12.3951 11.6114C14.1187 13.3364 16.9133 13.3364 18.6371 11.6114L20.8693 9.37768L20.8651 9.37348C22.4291 7.63989 22.3767 4.96419 20.7073 3.29365ZM19.2587 7.89516L19.1219 8.03209L19.1216 8.03231H19.1214L17.1308 10.0243L17.1306 10.0245C16.2607 10.8949 14.8506 10.8949 13.981 10.0245C13.1111 9.15404 13.1111 7.74297 13.981 6.87275L13.9812 6.87253L15.9718 4.88035L15.972 4.88013L15.9723 4.87991L16.1091 4.74299L16.1155 4.74918C16.9907 4.01279 18.2982 4.05592 19.1219 4.87991C19.9455 5.7039 19.9886 7.01277 19.2525 7.88831L19.2587 7.89516Z" fill="#9747FF"/>
</svg>
