<svg width="106" height="28" viewBox="0 0 106 28" fill="none" xmlns="http://www.w3.org/2000/svg">
<path d="M0.5 4C0.5 2.067 2.067 0.5 4 0.5H102C103.933 0.5 105.5 2.067 105.5 4V24C105.5 25.933 103.933 27.5 102 27.5H4C2.067 27.5 0.5 25.933 0.5 24V4Z" fill="#F3EDFE"/>
<path d="M0.5 4C0.5 2.067 2.067 0.5 4 0.5H102C103.933 0.5 105.5 2.067 105.5 4V24C105.5 25.933 103.933 27.5 102 27.5H4C2.067 27.5 0.5 25.933 0.5 24V4Z" stroke="#9747FF"/>
<path fill-rule="evenodd" clip-rule="evenodd" d="M14.0064 5C12.7296 5.00011 11.4714 5.30555 10.3366 5.89084C9.20184 6.47613 8.2235 7.3243 7.48321 8.36458C6.74293 9.40486 6.26215 10.6071 6.081 11.871C5.89985 13.1348 6.02358 14.4237 6.44186 15.63C6.86014 16.8364 7.56085 17.9252 8.48552 18.8056C9.41019 19.6861 10.532 20.3327 11.7574 20.6914C12.9828 21.0501 14.2762 21.1106 15.5297 20.8678C16.7832 20.6251 17.9605 20.086 18.9633 19.2957L22.4036 22.7359C22.5812 22.9075 22.8192 23.0024 23.0662 23.0003C23.3132 22.9981 23.5494 22.8991 23.7241 22.7244C23.8987 22.5498 23.9978 22.3135 24 22.0665C24.0021 21.8195 23.9072 21.5816 23.7356 21.4039L20.2953 17.9637C21.226 16.7831 21.8055 15.3642 21.9675 13.8696C22.1295 12.3749 21.8674 10.8649 21.2112 9.51225C20.555 8.15961 19.5312 7.01903 18.2571 6.22104C16.9829 5.42306 15.5099 4.9999 14.0064 5ZM9.76738 13.007C9.76738 12.7571 9.86662 12.5175 10.0433 12.3409C10.2199 12.1642 10.4596 12.065 10.7094 12.065H13.0644V9.70998C13.0644 9.46015 13.1637 9.22055 13.3403 9.04389C13.517 8.86723 13.7566 8.76798 14.0064 8.76798C14.2563 8.76798 14.4959 8.86723 14.6725 9.04389C14.8492 9.22055 14.9485 9.46015 14.9485 9.70998V12.065H17.3035C17.5533 12.065 17.7929 12.1642 17.9696 12.3409C18.1463 12.5175 18.2455 12.7571 18.2455 13.007C18.2455 13.2568 18.1463 13.4964 17.9696 13.6731C17.7929 13.8497 17.5533 13.949 17.3035 13.949H14.9485V16.304C14.9485 16.5538 14.8492 16.7934 14.6725 16.97C14.4959 17.1467 14.2563 17.2459 14.0064 17.2459C13.7566 17.2459 13.517 17.1467 13.3403 16.97C13.1637 16.7934 13.0644 16.5538 13.0644 16.304V13.949H10.7094C10.4596 13.949 10.2199 13.8497 10.0433 13.6731C9.86662 13.4964 9.76738 13.2568 9.76738 13.007Z" fill="#9747FF"/>
<path d="M45.3624 9.91115H46.1784V11.6631C46.1784 12.2391 46.0984 12.8071 45.9384 13.3671C45.7784 13.9191 45.5544 14.4431 45.2664 14.9391C44.9864 15.4271 44.6584 15.8591 44.2824 16.2351C43.9064 16.6111 43.5024 16.9071 43.0704 17.1231L42.4944 16.3311C42.8864 16.1391 43.2544 15.8791 43.5984 15.5511C43.9504 15.2231 44.2584 14.8471 44.5224 14.4231C44.7864 13.9991 44.9904 13.5511 45.1344 13.0791C45.2864 12.6071 45.3624 12.1351 45.3624 11.6631V9.91115ZM45.5664 9.91115H46.3704V11.6631C46.3704 12.1191 46.4424 12.5751 46.5864 13.0311C46.7384 13.4791 46.9464 13.9031 47.2104 14.3031C47.4824 14.6951 47.7904 15.0431 48.1344 15.3471C48.4864 15.6511 48.8624 15.8911 49.2624 16.0671L48.7104 16.8591C48.2704 16.6511 47.8584 16.3711 47.4744 16.0191C47.0904 15.6671 46.7544 15.2631 46.4664 14.8071C46.1864 14.3431 45.9664 13.8471 45.8064 13.3191C45.6464 12.7831 45.5664 12.2311 45.5664 11.6631V9.91115ZM42.8424 9.46715H48.9024V10.2951H42.8424V9.46715ZM50.3784 8.35115H51.3744V19.2111H50.3784V8.35115ZM54.9514 13.4271H62.4034V14.2311H54.9514V13.4271ZM53.7034 17.0151H63.5434V17.8431H53.7034V17.0151ZM58.1074 13.7751H59.0914V17.3391H58.1074V13.7751ZM54.9514 9.21515H62.2954V10.0431H55.9474V13.7871H54.9514V9.21515ZM71.3015 13.4511H72.2855V14.8311H71.3015V13.4511ZM75.8735 8.36315H76.8695V15.6351H75.8735V8.36315ZM76.4495 11.6391H78.4535V12.4671H76.4495V11.6391ZM68.5175 15.3231L68.3975 14.5191C69.0455 14.5191 69.7535 14.5151 70.5215 14.5071C71.2975 14.4911 72.0895 14.4591 72.8975 14.4111C73.7055 14.3631 74.4815 14.2871 75.2255 14.1831L75.2975 14.8911C74.5295 15.0271 73.7415 15.1271 72.9335 15.1911C72.1335 15.2471 71.3535 15.2831 70.5935 15.2991C69.8415 15.3151 69.1495 15.3231 68.5175 15.3231ZM69.7295 16.1871H76.8695V19.2111H75.8735V16.9791H69.7295V16.1871ZM68.6735 9.33515H74.9015V10.0911H68.6735V9.33515ZM71.7815 10.4991C72.5495 10.4991 73.1615 10.6431 73.6175 10.9311C74.0815 11.2191 74.3135 11.6111 74.3135 12.1071C74.3135 12.6031 74.0815 12.9951 73.6175 13.2831C73.1615 13.5711 72.5495 13.7151 71.7815 13.7151C71.0215 13.7151 70.4095 13.5711 69.9455 13.2831C69.4815 12.9951 69.2495 12.6031 69.2495 12.1071C69.2495 11.6111 69.4815 11.2191 69.9455 10.9311C70.4095 10.6431 71.0215 10.4991 71.7815 10.4991ZM71.7815 11.1951C71.3015 11.1951 70.9175 11.2751 70.6295 11.4351C70.3415 11.5951 70.1975 11.8191 70.1975 12.1071C70.1975 12.3791 70.3415 12.6031 70.6295 12.7791C70.9175 12.9471 71.3015 13.0311 71.7815 13.0311C72.2615 13.0311 72.6455 12.9471 72.9335 12.7791C73.2215 12.6031 73.3655 12.3791 73.3655 12.1071C73.3655 11.8191 73.2215 11.5951 72.9335 11.4351C72.6455 11.2751 72.2615 11.1951 71.7815 11.1951ZM71.3015 8.26715H72.2855V9.70715H71.3015V8.26715ZM87.9226 8.35115H88.8706V19.2111H87.9226V8.35115ZM86.0866 12.7071H88.1746V13.5231H86.0866V12.7071ZM85.4626 8.59115H86.3866V18.6471H85.4626V8.59115ZM80.0506 15.6951H80.7586C81.2946 15.6951 81.7786 15.6911 82.2106 15.6831C82.6506 15.6671 83.0666 15.6351 83.4586 15.5871C83.8586 15.5391 84.2666 15.4711 84.6826 15.3831L84.7786 16.2111C84.3466 16.2991 83.9266 16.3671 83.5186 16.4151C83.1186 16.4631 82.6946 16.4951 82.2466 16.5111C81.8066 16.5271 81.3106 16.5351 80.7586 16.5351H80.0506V15.6951ZM80.0506 9.67115H84.0826V10.4871H81.0466V16.0791H80.0506V9.67115Z" fill="#9155FD"/>
</svg>
