<svg width="30" height="28" viewBox="0 0 30 28" fill="none" xmlns="http://www.w3.org/2000/svg">
<path d="M0.5 4C0.5 2.067 2.067 0.5 4 0.5H26C27.933 0.5 29.5 2.067 29.5 4V24C29.5 25.933 27.933 27.5 26 27.5H4C2.067 27.5 0.5 25.933 0.5 24V4Z" fill="#F3EDFE"/>
<path d="M0.5 4C0.5 2.067 2.067 0.5 4 0.5H26C27.933 0.5 29.5 2.067 29.5 4V24C29.5 25.933 27.933 27.5 26 27.5H4C2.067 27.5 0.5 25.933 0.5 24V4Z" stroke="#9747FF"/>
<path fill-rule="evenodd" clip-rule="evenodd" d="M6 13.0062C6.00011 11.7294 6.30554 10.4711 6.89082 9.33635C7.4761 8.20159 8.32425 7.22326 9.36452 6.48297C10.4048 5.74268 11.607 5.26191 12.8708 5.08076C14.1347 4.8996 15.4235 5.02333 16.6298 5.44161C17.8361 5.85989 18.9249 6.5606 19.8054 7.48527C20.6858 8.40994 21.3324 9.53177 21.6911 10.7571C22.0498 11.9825 22.1103 13.2759 21.8676 14.5294C21.6248 15.783 21.0858 16.9602 20.2955 17.9631L23.7356 21.4033C23.9072 21.581 24.0021 21.8189 24 22.0659C23.9978 22.3129 23.8988 22.5492 23.7241 22.7238C23.5495 22.8985 23.3132 22.9976 23.0662 22.9997C22.8192 23.0019 22.5813 22.9069 22.4036 22.7353L18.9635 19.2951C17.7829 20.2258 16.364 20.8053 14.8694 20.9672C13.3748 21.1292 11.8648 20.8671 10.5122 20.2109C9.15955 19.5547 8.019 18.531 7.22102 17.2568C6.42305 15.9827 5.9999 14.5096 6 13.0062ZM10.7099 12.0642C10.4601 12.0642 10.2205 12.1634 10.0438 12.3401C9.86716 12.5167 9.76792 12.7564 9.76792 13.0062C9.76792 13.256 9.86716 13.4956 10.0438 13.6723C10.2205 13.849 10.4601 13.9482 10.7099 13.9482H17.3037C17.5536 13.9482 17.7932 13.849 17.9698 13.6723C18.1465 13.4956 18.2457 13.256 18.2457 13.0062C18.2457 12.7564 18.1465 12.5167 17.9698 12.3401C17.7932 12.1634 17.5536 12.0642 17.3037 12.0642H10.7099Z" fill="#9747FF"/>
</svg>
