<svg width="30" height="28" viewBox="0 0 30 28" fill="none" xmlns="http://www.w3.org/2000/svg">
<path d="M0.5 4C0.5 2.067 2.067 0.5 4 0.5H26C27.933 0.5 29.5 2.067 29.5 4V24C29.5 25.933 27.933 27.5 26 27.5H4C2.067 27.5 0.5 25.933 0.5 24V4Z" fill="#F3EDFE"/>
<path d="M0.5 4C0.5 2.067 2.067 0.5 4 0.5H26C27.933 0.5 29.5 2.067 29.5 4V24C29.5 25.933 27.933 27.5 26 27.5H4C2.067 27.5 0.5 25.933 0.5 24V4Z" stroke="#9747FF"/>
<path d="M7.05859 17.8342V6.05884H22.9409V21.9412H11.2939V17.8342H7.05859Z" fill="#9747FF" fill-opacity="0.3"/>
<path d="M7.05882 13.4706V7.11765C7.05882 6.55601 7.28193 6.01738 7.67907 5.62024C8.0762 5.22311 8.61484 5 9.17647 5H21.8824C22.444 5 22.9826 5.22311 23.3798 5.62024C23.7769 6.01738 24 6.55601 24 7.11765V19.8235C24 20.3852 23.7769 20.9238 23.3798 21.3209C22.9826 21.7181 22.444 21.9412 21.8824 21.9412H15.5294M6 18.7647C6 18.4839 6.11155 18.2146 6.31012 18.016C6.50869 17.8174 6.77801 17.7059 7.05882 17.7059H10.2353C10.5161 17.7059 10.7854 17.8174 10.984 18.016C11.1826 18.2146 11.2941 18.4839 11.2941 18.7647V21.9412C11.2941 22.222 11.1826 22.4913 10.984 22.6899C10.7854 22.8884 10.5161 23 10.2353 23H7.05882C6.77801 23 6.50869 22.8884 6.31012 22.6899C6.11155 22.4913 6 22.222 6 21.9412V18.7647Z" stroke="#9747FF" stroke-width="2" stroke-linecap="round" stroke-linejoin="round"/>
<path d="M15.5295 9.23535H19.7648M19.7648 9.23535V13.4706M19.7648 9.23535L14.4707 14.5295" stroke="#9747FF" stroke-width="2" stroke-linecap="round" stroke-linejoin="round"/>
</svg>
