<svg width="106" height="28" viewBox="0 0 106 28" fill="none" xmlns="http://www.w3.org/2000/svg">
<path d="M0.5 4C0.5 2.067 2.067 0.5 4 0.5H102C103.933 0.5 105.5 2.067 105.5 4V24C105.5 25.933 103.933 27.5 102 27.5H4C2.067 27.5 0.5 25.933 0.5 24V4Z" fill="#F3EDFE"/>
<path d="M0.5 4C0.5 2.067 2.067 0.5 4 0.5H102C103.933 0.5 105.5 2.067 105.5 4V24C105.5 25.933 103.933 27.5 102 27.5H4C2.067 27.5 0.5 25.933 0.5 24V4Z" stroke="#9747FF"/>
<rect x="6" y="18.7058" width="5.29412" height="5.29412" fill="#9747FF" fill-opacity="0.5"/>
<path d="M7.05882 14.4706V8.11765C7.05882 7.55601 7.28193 7.01738 7.67907 6.62024C8.0762 6.22311 8.61484 6 9.17647 6H21.8824C22.444 6 22.9826 6.22311 23.3798 6.62024C23.7769 7.01738 24 7.55601 24 8.11765V20.8235C24 21.3852 23.7769 21.9238 23.3798 22.3209C22.9826 22.7181 22.444 22.9412 21.8824 22.9412H15.5294M6 19.7647C6 19.4839 6.11155 19.2146 6.31012 19.016C6.50869 18.8174 6.77801 18.7059 7.05882 18.7059H10.2353C10.5161 18.7059 10.7854 18.8174 10.984 19.016C11.1826 19.2146 11.2941 19.4839 11.2941 19.7647V22.9412C11.2941 23.222 11.1826 23.4913 10.984 23.6899C10.7854 23.8884 10.5161 24 10.2353 24H7.05882C6.77801 24 6.50869 23.8884 6.31012 23.6899C6.11155 23.4913 6 23.222 6 22.9412V19.7647Z" stroke="#9747FF" stroke-width="2" stroke-linecap="round" stroke-linejoin="round"/>
<path d="M18.706 15.5295H14.4707M14.4707 15.5295V11.2942M14.4707 15.5295L19.7648 10.2354" stroke="#9747FF" stroke-width="2" stroke-linecap="round" stroke-linejoin="round"/>
<path d="M39.7578 9.636H40.5738V11.388C40.5738 11.964 40.4938 12.532 40.3338 13.092C40.1738 13.644 39.9498 14.168 39.6618 14.664C39.3818 15.152 39.0538 15.584 38.6778 15.96C38.3018 16.336 37.8978 16.632 37.4658 16.848L36.8898 16.056C37.2818 15.864 37.6498 15.604 37.9938 15.276C38.3458 14.948 38.6538 14.572 38.9178 14.148C39.1818 13.724 39.3858 13.276 39.5298 12.804C39.6818 12.332 39.7578 11.86 39.7578 11.388V9.636ZM39.9618 9.636H40.7658V11.388C40.7658 11.844 40.8378 12.3 40.9818 12.756C41.1338 13.204 41.3418 13.628 41.6058 14.028C41.8778 14.42 42.1858 14.768 42.5298 15.072C42.8818 15.376 43.2578 15.616 43.6578 15.792L43.1058 16.584C42.6658 16.376 42.2538 16.096 41.8698 15.744C41.4858 15.392 41.1498 14.988 40.8618 14.532C40.5818 14.068 40.3618 13.572 40.2018 13.044C40.0418 12.508 39.9618 11.956 39.9618 11.388V9.636ZM37.2378 9.192H43.2978V10.02H37.2378V9.192ZM44.7738 8.076H45.7698V18.936H44.7738V8.076ZM49.3469 13.152H56.7989V13.956H49.3469V13.152ZM48.0989 16.74H57.9389V17.568H48.0989V16.74ZM52.5029 13.5H53.4869V17.064H52.5029V13.5ZM49.3469 8.94H56.6909V9.768H50.3429V13.512H49.3469V8.94ZM62.02 9.96H62.824V10.416C62.824 11.048 62.7 11.632 62.452 12.168C62.204 12.704 61.852 13.168 61.396 13.56C60.948 13.952 60.42 14.252 59.812 14.46L59.32 13.68C59.864 13.512 60.336 13.264 60.736 12.936C61.136 12.608 61.448 12.228 61.672 11.796C61.904 11.356 62.02 10.896 62.02 10.416V9.96ZM62.188 9.96H63.004V10.416C63.004 10.856 63.112 11.272 63.328 11.664C63.552 12.056 63.864 12.404 64.264 12.708C64.664 13.004 65.128 13.232 65.656 13.392L65.188 14.184C64.588 13.992 64.06 13.712 63.604 13.344C63.156 12.976 62.808 12.544 62.56 12.048C62.312 11.544 62.188 11 62.188 10.416V9.96ZM59.608 9.396H65.404V10.2H59.608V9.396ZM62.02 8.028H63.016V9.672H62.02V8.028ZM66.736 8.076H67.732V14.724H66.736V8.076ZM67.456 10.884H69.328V11.712H67.456V10.884ZM64.276 15C65.012 15 65.644 15.076 66.172 15.228C66.708 15.38 67.12 15.604 67.408 15.9C67.696 16.188 67.84 16.54 67.84 16.956C67.84 17.572 67.524 18.048 66.892 18.384C66.26 18.728 65.388 18.9 64.276 18.9C63.532 18.9 62.892 18.824 62.356 18.672C61.828 18.52 61.42 18.296 61.132 18C60.844 17.712 60.7 17.364 60.7 16.956C60.7 16.54 60.844 16.188 61.132 15.9C61.42 15.604 61.828 15.38 62.356 15.228C62.892 15.076 63.532 15 64.276 15ZM64.276 15.78C63.732 15.78 63.268 15.828 62.884 15.924C62.5 16.012 62.204 16.144 61.996 16.32C61.788 16.496 61.684 16.708 61.684 16.956C61.684 17.204 61.788 17.416 61.996 17.592C62.204 17.768 62.5 17.904 62.884 18C63.268 18.088 63.732 18.132 64.276 18.132C64.812 18.132 65.272 18.088 65.656 18C66.048 17.904 66.344 17.768 66.544 17.592C66.752 17.416 66.856 17.204 66.856 16.956C66.856 16.708 66.752 16.496 66.544 16.32C66.344 16.144 66.048 16.012 65.656 15.924C65.272 15.828 64.812 15.78 64.276 15.78ZM78.466 14.112H79.45V15.816H78.466V14.112ZM74.062 13.536H83.866V14.34H74.062V13.536ZM75.154 15.576H82.654V18.9H81.658V16.38H75.154V15.576ZM78.466 8.028H79.45V9.54H78.466V8.028ZM78.418 9.66H79.294V9.84C79.294 10.288 79.182 10.692 78.958 11.052C78.734 11.404 78.418 11.708 78.01 11.964C77.61 12.22 77.146 12.432 76.618 12.6C76.098 12.76 75.542 12.872 74.95 12.936L74.638 12.18C75.166 12.124 75.658 12.032 76.114 11.904C76.57 11.776 76.97 11.612 77.314 11.412C77.666 11.204 77.938 10.968 78.13 10.704C78.322 10.44 78.418 10.152 78.418 9.84V9.66ZM78.634 9.66H79.498V9.84C79.498 10.152 79.594 10.44 79.786 10.704C79.986 10.968 80.258 11.204 80.602 11.412C80.954 11.612 81.354 11.776 81.802 11.904C82.258 12.032 82.75 12.124 83.278 12.18L82.966 12.936C82.382 12.872 81.826 12.76 81.298 12.6C80.77 12.432 80.306 12.22 79.906 11.964C79.506 11.708 79.194 11.404 78.97 11.052C78.746 10.692 78.634 10.288 78.634 9.84V9.66ZM75.07 9.144H82.87V9.936H75.07V9.144ZM85.2711 16.692H95.1111V17.532H85.2711V16.692ZM89.6511 14.064H90.6351V16.968H89.6511V14.064ZM89.6151 8.796H90.4911V9.636C90.4911 10.108 90.4071 10.552 90.2391 10.968C90.0791 11.376 89.8551 11.76 89.5671 12.12C89.2791 12.472 88.9471 12.788 88.5711 13.068C88.2031 13.348 87.8071 13.584 87.3831 13.776C86.9591 13.968 86.5271 14.108 86.0871 14.196L85.6551 13.368C86.0391 13.304 86.4191 13.192 86.7951 13.032C87.1791 12.864 87.5391 12.664 87.8751 12.432C88.2111 12.192 88.5111 11.928 88.7751 11.64C89.0391 11.344 89.2431 11.028 89.3871 10.692C89.5391 10.348 89.6151 9.996 89.6151 9.636V8.796ZM89.7951 8.796H90.6591V9.636C90.6591 10.004 90.7351 10.356 90.8871 10.692C91.0391 11.028 91.2471 11.344 91.5111 11.64C91.7751 11.928 92.0751 12.192 92.4111 12.432C92.7551 12.672 93.1151 12.872 93.4911 13.032C93.8751 13.192 94.2591 13.304 94.6431 13.368L94.2111 14.196C93.7711 14.108 93.3391 13.968 92.9151 13.776C92.4911 13.584 92.0911 13.348 91.7151 13.068C91.3391 12.788 91.0071 12.472 90.7191 12.12C90.4311 11.76 90.2031 11.372 90.0351 10.956C89.8751 10.54 89.7951 10.1 89.7951 9.636V8.796Z" fill="#9155FD"/>
</svg>
