<svg width="106" height="28" viewBox="0 0 106 28" fill="none" xmlns="http://www.w3.org/2000/svg">
<path d="M0.5 4C0.5 2.067 2.067 0.5 4 0.5H102C103.933 0.5 105.5 2.067 105.5 4V24C105.5 25.933 103.933 27.5 102 27.5H4C2.067 27.5 0.5 25.933 0.5 24V4Z" fill="#F3EDFE"/>
<path d="M0.5 4C0.5 2.067 2.067 0.5 4 0.5H102C103.933 0.5 105.5 2.067 105.5 4V24C105.5 25.933 103.933 27.5 102 27.5H4C2.067 27.5 0.5 25.933 0.5 24V4Z" stroke="#9747FF"/>
<path d="M7.05859 18.8342V7.05884H22.9409V22.9412H11.2939V18.8342H7.05859Z" fill="#9747FF" fill-opacity="0.3"/>
<path d="M7.05882 14.4706V8.11765C7.05882 7.55601 7.28193 7.01738 7.67907 6.62024C8.0762 6.22311 8.61484 6 9.17647 6H21.8824C22.444 6 22.9826 6.22311 23.3798 6.62024C23.7769 7.01738 24 7.55601 24 8.11765V20.8235C24 21.3852 23.7769 21.9238 23.3798 22.3209C22.9826 22.7181 22.444 22.9412 21.8824 22.9412H15.5294M6 19.7647C6 19.4839 6.11155 19.2146 6.31012 19.016C6.50869 18.8174 6.77801 18.7059 7.05882 18.7059H10.2353C10.5161 18.7059 10.7854 18.8174 10.984 19.016C11.1826 19.2146 11.2941 19.4839 11.2941 19.7647V22.9412C11.2941 23.222 11.1826 23.4913 10.984 23.6899C10.7854 23.8884 10.5161 24 10.2353 24H7.05882C6.77801 24 6.50869 23.8884 6.31012 23.6899C6.11155 23.4913 6 23.222 6 22.9412V19.7647Z" stroke="#9747FF" stroke-width="2" stroke-linecap="round" stroke-linejoin="round"/>
<path d="M15.5295 10.2354H19.7648M19.7648 10.2354V14.4706M19.7648 10.2354L14.4707 15.5295" stroke="#9747FF" stroke-width="2" stroke-linecap="round" stroke-linejoin="round"/>
<path d="M39.7578 9.636H40.5738V11.388C40.5738 11.964 40.4938 12.532 40.3338 13.092C40.1738 13.644 39.9498 14.168 39.6618 14.664C39.3818 15.152 39.0538 15.584 38.6778 15.96C38.3018 16.336 37.8978 16.632 37.4658 16.848L36.8898 16.056C37.2818 15.864 37.6498 15.604 37.9938 15.276C38.3458 14.948 38.6538 14.572 38.9178 14.148C39.1818 13.724 39.3858 13.276 39.5298 12.804C39.6818 12.332 39.7578 11.86 39.7578 11.388V9.636ZM39.9618 9.636H40.7658V11.388C40.7658 11.844 40.8378 12.3 40.9818 12.756C41.1338 13.204 41.3418 13.628 41.6058 14.028C41.8778 14.42 42.1858 14.768 42.5298 15.072C42.8818 15.376 43.2578 15.616 43.6578 15.792L43.1058 16.584C42.6658 16.376 42.2538 16.096 41.8698 15.744C41.4858 15.392 41.1498 14.988 40.8618 14.532C40.5818 14.068 40.3618 13.572 40.2018 13.044C40.0418 12.508 39.9618 11.956 39.9618 11.388V9.636ZM37.2378 9.192H43.2978V10.02H37.2378V9.192ZM44.7738 8.076H45.7698V18.936H44.7738V8.076ZM49.3469 13.152H56.7989V13.956H49.3469V13.152ZM48.0989 16.74H57.9389V17.568H48.0989V16.74ZM52.5029 13.5H53.4869V17.064H52.5029V13.5ZM49.3469 8.94H56.6909V9.768H50.3429V13.512H49.3469V8.94ZM62.02 9.96H62.824V10.416C62.824 11.048 62.7 11.632 62.452 12.168C62.204 12.704 61.852 13.168 61.396 13.56C60.948 13.952 60.42 14.252 59.812 14.46L59.32 13.68C59.864 13.512 60.336 13.264 60.736 12.936C61.136 12.608 61.448 12.228 61.672 11.796C61.904 11.356 62.02 10.896 62.02 10.416V9.96ZM62.188 9.96H63.004V10.416C63.004 10.856 63.112 11.272 63.328 11.664C63.552 12.056 63.864 12.404 64.264 12.708C64.664 13.004 65.128 13.232 65.656 13.392L65.188 14.184C64.588 13.992 64.06 13.712 63.604 13.344C63.156 12.976 62.808 12.544 62.56 12.048C62.312 11.544 62.188 11 62.188 10.416V9.96ZM59.608 9.396H65.404V10.2H59.608V9.396ZM62.02 8.028H63.016V9.672H62.02V8.028ZM66.736 8.076H67.732V14.724H66.736V8.076ZM67.456 10.884H69.328V11.712H67.456V10.884ZM64.276 15C65.012 15 65.644 15.076 66.172 15.228C66.708 15.38 67.12 15.604 67.408 15.9C67.696 16.188 67.84 16.54 67.84 16.956C67.84 17.572 67.524 18.048 66.892 18.384C66.26 18.728 65.388 18.9 64.276 18.9C63.532 18.9 62.892 18.824 62.356 18.672C61.828 18.52 61.42 18.296 61.132 18C60.844 17.712 60.7 17.364 60.7 16.956C60.7 16.54 60.844 16.188 61.132 15.9C61.42 15.604 61.828 15.38 62.356 15.228C62.892 15.076 63.532 15 64.276 15ZM64.276 15.78C63.732 15.78 63.268 15.828 62.884 15.924C62.5 16.012 62.204 16.144 61.996 16.32C61.788 16.496 61.684 16.708 61.684 16.956C61.684 17.204 61.788 17.416 61.996 17.592C62.204 17.768 62.5 17.904 62.884 18C63.268 18.088 63.732 18.132 64.276 18.132C64.812 18.132 65.272 18.088 65.656 18C66.048 17.904 66.344 17.768 66.544 17.592C66.752 17.416 66.856 17.204 66.856 16.956C66.856 16.708 66.752 16.496 66.544 16.32C66.344 16.144 66.048 16.012 65.656 15.924C65.272 15.828 64.812 15.78 64.276 15.78ZM76.906 13.176H77.89V14.556H76.906V13.176ZM81.478 8.088H82.474V15.36H81.478V8.088ZM82.054 11.364H84.058V12.192H82.054V11.364ZM74.122 15.048L74.002 14.244C74.65 14.244 75.358 14.24 76.126 14.232C76.902 14.216 77.694 14.184 78.502 14.136C79.31 14.088 80.086 14.012 80.83 13.908L80.902 14.616C80.134 14.752 79.346 14.852 78.538 14.916C77.738 14.972 76.958 15.008 76.198 15.024C75.446 15.04 74.754 15.048 74.122 15.048ZM75.334 15.912H82.474V18.936H81.478V16.704H75.334V15.912ZM74.278 9.06H80.506V9.816H74.278V9.06ZM77.386 10.224C78.154 10.224 78.766 10.368 79.222 10.656C79.686 10.944 79.918 11.336 79.918 11.832C79.918 12.328 79.686 12.72 79.222 13.008C78.766 13.296 78.154 13.44 77.386 13.44C76.626 13.44 76.014 13.296 75.55 13.008C75.086 12.72 74.854 12.328 74.854 11.832C74.854 11.336 75.086 10.944 75.55 10.656C76.014 10.368 76.626 10.224 77.386 10.224ZM77.386 10.92C76.906 10.92 76.522 11 76.234 11.16C75.946 11.32 75.802 11.544 75.802 11.832C75.802 12.104 75.946 12.328 76.234 12.504C76.522 12.672 76.906 12.756 77.386 12.756C77.866 12.756 78.25 12.672 78.538 12.504C78.826 12.328 78.97 12.104 78.97 11.832C78.97 11.544 78.826 11.32 78.538 11.16C78.25 11 77.866 10.92 77.386 10.92ZM76.906 7.992H77.89V9.432H76.906V7.992ZM93.5271 8.076H94.4751V18.936H93.5271V8.076ZM91.6911 12.432H93.7791V13.248H91.6911V12.432ZM91.0671 8.316H91.9911V18.372H91.0671V8.316ZM85.6551 15.42H86.3631C86.8991 15.42 87.3831 15.416 87.8151 15.408C88.2551 15.392 88.6711 15.36 89.0631 15.312C89.4631 15.264 89.8711 15.196 90.2871 15.108L90.3831 15.936C89.9511 16.024 89.5311 16.092 89.1231 16.14C88.7231 16.188 88.2991 16.22 87.8511 16.236C87.4111 16.252 86.9151 16.26 86.3631 16.26H85.6551V15.42ZM85.6551 9.396H89.6871V10.212H86.6511V15.804H85.6551V9.396Z" fill="#9155FD"/>
</svg>
