<svg width="30" height="28" viewBox="0 0 30 28" fill="none" xmlns="http://www.w3.org/2000/svg">
<path d="M0.5 4C0.5 2.067 2.067 0.5 4 0.5H26C27.933 0.5 29.5 2.067 29.5 4V24C29.5 25.933 27.933 27.5 26 27.5H4C2.067 27.5 0.5 25.933 0.5 24V4Z" fill="#F3EDFE"/>
<path d="M0.5 4C0.5 2.067 2.067 0.5 4 0.5H26C27.933 0.5 29.5 2.067 29.5 4V24C29.5 25.933 27.933 27.5 26 27.5H4C2.067 27.5 0.5 25.933 0.5 24V4Z" stroke="#9747FF"/>
<path fill-rule="evenodd" clip-rule="evenodd" d="M14.0064 4.99976C12.7296 4.99986 11.4714 5.30531 10.3366 5.8906C9.20184 6.47589 8.2235 7.32405 7.48321 8.36433C6.74293 9.40461 6.26215 10.6068 6.081 11.8707C5.89985 13.1346 6.02358 14.4235 6.44186 15.6298C6.86014 16.8361 7.56085 17.9249 8.48552 18.8054C9.41019 19.6858 10.532 20.3324 11.7574 20.6911C12.9828 21.0499 14.2762 21.1104 15.5297 20.8676C16.7832 20.6248 17.9605 20.0858 18.9633 19.2955L22.4036 22.7357C22.5812 22.9072 22.8192 23.0022 23.0662 23C23.3132 22.9979 23.5494 22.8988 23.7241 22.7242C23.8987 22.5495 23.9978 22.3133 24 22.0663C24.0021 21.8193 23.9072 21.5813 23.7356 21.4037L20.2953 17.9635C21.226 16.7828 21.8055 15.364 21.9675 13.8693C22.1295 12.3747 21.8674 10.8646 21.2112 9.512C20.555 8.15937 19.5312 7.01879 18.2571 6.2208C16.9829 5.42281 15.5099 4.99965 14.0064 4.99976ZM9.76738 13.0067C9.76738 12.7569 9.86662 12.5173 10.0433 12.3406C10.2199 12.164 10.4596 12.0647 10.7094 12.0647H13.0644V9.70974C13.0644 9.4599 13.1637 9.2203 13.3403 9.04364C13.517 8.86699 13.7566 8.76774 14.0064 8.76774C14.2563 8.76774 14.4959 8.86699 14.6725 9.04364C14.8492 9.2203 14.9485 9.4599 14.9485 9.70974V12.0647H17.3035C17.5533 12.0647 17.7929 12.164 17.9696 12.3406C18.1463 12.5173 18.2455 12.7569 18.2455 13.0067C18.2455 13.2566 18.1463 13.4962 17.9696 13.6728C17.7929 13.8495 17.5533 13.9487 17.3035 13.9487H14.9485V16.3037C14.9485 16.5535 14.8492 16.7931 14.6725 16.9698C14.4959 17.1465 14.2563 17.2457 14.0064 17.2457C13.7566 17.2457 13.517 17.1465 13.3403 16.9698C13.1637 16.7931 13.0644 16.5535 13.0644 16.3037V13.9487H10.7094C10.4596 13.9487 10.2199 13.8495 10.0433 13.6728C9.86662 13.4962 9.76738 13.2566 9.76738 13.0067Z" fill="#9747FF"/>
</svg>
