<svg width="69" height="81" viewBox="0 0 69 81" fill="none" xmlns="http://www.w3.org/2000/svg">
<path fill-rule="evenodd" clip-rule="evenodd" d="M58.8952 10.1048C52.4252 3.63481 43.65 0 34.5 0C25.35 0 16.5748 3.63481 10.1048 10.1048C3.63481 16.5748 0 25.35 0 34.5C0 48.783 10.8867 63.7483 32.2 79.7333C32.8635 80.231 33.6706 80.5 34.5 80.5C35.3294 80.5 36.1365 80.231 36.8 79.7333C58.1133 63.7483 69 48.783 69 34.5C69 25.35 65.3652 16.5748 58.8952 10.1048Z" fill="#F7B6B7"/>
<path d="M21.0795 32.7727C17.3814 32.7727 10 35.0568 10 39.5909V43H32.1591V39.5909C32.1591 35.0568 24.7777 32.7727 21.0795 32.7727Z" fill="#E04347"/>
<path d="M21.0796 30.5C24.5314 30.5 27.3296 27.7018 27.3296 24.25C27.3296 20.7982 24.5314 18 21.0796 18C17.6278 18 14.8296 20.7982 14.8296 24.25C14.8296 27.7018 17.6278 30.5 21.0796 30.5Z" fill="#E04347"/>
<path d="M34.9081 30.5C37.7323 30.5 40.0217 28.2105 40.0217 25.3863C40.0217 22.5622 37.7323 20.2727 34.9081 20.2727C32.0839 20.2727 29.7944 22.5622 29.7944 25.3863C29.7944 28.2105 32.0839 30.5 34.9081 30.5Z" fill="#E04347"/>
<path d="M35.0644 32.0762C36.6809 32.0762 38.8883 32.481 40.8883 33.4966C39.5254 34.1749 38.4146 35.0108 37.6212 35.9114C36.6269 37.0392 36.0587 38.3922 36.0587 39.7417V40.883H32.8742V39.4809C32.8742 37.031 30.7467 34.9664 28.1821 33.8357C30.3624 32.3046 33.0761 32.0762 35.0644 32.0762Z" fill="#E04347"/>
<path d="M48.2607 32.7727C44.5625 32.7727 37.1812 35.0568 37.1812 39.5909V43H59.3402V39.5909C59.3402 35.0568 51.9589 32.7727 48.2607 32.7727Z" fill="#E04347"/>
<path d="M48.2607 30.5C51.7125 30.5 54.5107 27.7018 54.5107 24.25C54.5107 20.7982 51.7125 18 48.2607 18C44.809 18 42.0107 20.7982 42.0107 24.25C42.0107 27.7018 44.809 30.5 48.2607 30.5Z" fill="#E04347"/>
</svg>
