<svg width="69" height="81" viewBox="0 0 69 81" fill="none" xmlns="http://www.w3.org/2000/svg">
<path fill-rule="evenodd" clip-rule="evenodd" d="M58.8952 10.1048C52.4252 3.63481 43.65 0 34.5 0C25.35 0 16.5748 3.63481 10.1048 10.1048C3.63481 16.5748 0 25.35 0 34.5C0 48.783 10.8867 63.7483 32.2 79.7333C32.8635 80.231 33.6706 80.5 34.5 80.5C35.3294 80.5 36.1365 80.231 36.8 79.7333C58.1133 63.7483 69 48.783 69 34.5C69 25.35 65.3652 16.5748 58.8952 10.1048Z" fill="#E04347"/>
<path d="M21.0795 36.7727C17.3814 36.7727 10 39.0568 10 43.5909V47H32.1591V43.5909C32.1591 39.0568 24.7777 36.7727 21.0795 36.7727Z" fill="#EFBBBC"/>
<path d="M21.0796 34.5C24.5314 34.5 27.3296 31.7018 27.3296 28.25C27.3296 24.7982 24.5314 22 21.0796 22C17.6278 22 14.8296 24.7982 14.8296 28.25C14.8296 31.7018 17.6278 34.5 21.0796 34.5Z" fill="#EFBBBC"/>
<path d="M34.9081 34.5C37.7323 34.5 40.0217 32.2105 40.0217 29.3863C40.0217 26.5622 37.7323 24.2727 34.9081 24.2727C32.0839 24.2727 29.7944 26.5622 29.7944 29.3863C29.7944 32.2105 32.0839 34.5 34.9081 34.5Z" fill="#EFBBBC"/>
<path d="M35.0644 36.0762C36.6809 36.0762 38.8883 36.481 40.8883 37.4966C39.5254 38.1749 38.4146 39.0108 37.6212 39.9114C36.6269 41.0392 36.0587 42.3922 36.0587 43.7417V44.883H32.8742V43.4809C32.8742 41.031 30.7467 38.9664 28.1821 37.8357C30.3624 36.3046 33.0761 36.0762 35.0644 36.0762Z" fill="#EFBBBC"/>
<path d="M48.2607 36.7727C44.5625 36.7727 37.1812 39.0568 37.1812 43.5909V47H59.3402V43.5909C59.3402 39.0568 51.9589 36.7727 48.2607 36.7727Z" fill="#EFBBBC"/>
<path d="M48.2607 34.5C51.7125 34.5 54.5107 31.7018 54.5107 28.25C54.5107 24.7982 51.7125 22 48.2607 22C44.809 22 42.0107 24.7982 42.0107 28.25C42.0107 31.7018 44.809 34.5 48.2607 34.5Z" fill="#EFBBBC"/>
</svg>
