<svg width="69" height="81" viewBox="0 0 69 81" fill="none" xmlns="http://www.w3.org/2000/svg">
<path fill-rule="evenodd" clip-rule="evenodd" d="M58.8952 10.1048C52.4252 3.63481 43.65 0 34.5 0C25.35 0 16.5748 3.63481 10.1048 10.1048C3.63481 16.5748 0 25.35 0 34.5C0 48.783 10.8867 63.7483 32.2 79.7333C32.8635 80.231 33.6706 80.5 34.5 80.5C35.3294 80.5 36.1365 80.231 36.8 79.7333C58.1133 63.7483 69 48.783 69 34.5C69 25.35 65.3652 16.5748 58.8952 10.1048Z" fill="#FF7175"/>
<path d="M20.0795 36.7727C16.3814 36.7727 9 39.0568 9 43.5909V47H31.1591V43.5909C31.1591 39.0568 23.7777 36.7727 20.0795 36.7727Z" fill="#FED1D3" fill-opacity="0.44"/>
<path d="M20.0796 34.5C23.5314 34.5 26.3296 31.7018 26.3296 28.25C26.3296 24.7982 23.5314 22 20.0796 22C16.6278 22 13.8296 24.7982 13.8296 28.25C13.8296 31.7018 16.6278 34.5 20.0796 34.5Z" fill="#FED1D3" fill-opacity="0.44"/>
<path d="M33.9081 34.5C36.7323 34.5 39.0217 32.2105 39.0217 29.3863C39.0217 26.5622 36.7323 24.2727 33.9081 24.2727C31.0839 24.2727 28.7944 26.5622 28.7944 29.3863C28.7944 32.2105 31.0839 34.5 33.9081 34.5Z" fill="#FED1D3"/>
<path d="M34.0644 36.0762C35.6809 36.0762 37.8883 36.481 39.8883 37.4966C38.5254 38.1749 37.4146 39.0108 36.6212 39.9114C35.6269 41.0392 35.0587 42.3922 35.0587 43.7417V44.883H31.8742V43.4809C31.8742 41.031 29.7467 38.9664 27.1821 37.8357C29.3624 36.3046 32.0761 36.0762 34.0644 36.0762Z" fill="#FED1D3"/>
<path d="M47.2607 36.7727C43.5625 36.7727 36.1812 39.0568 36.1812 43.5909V47H58.3402V43.5909C58.3402 39.0568 50.9589 36.7727 47.2607 36.7727Z" fill="#FED1D3"/>
<path d="M47.2607 34.5C50.7125 34.5 53.5107 31.7018 53.5107 28.25C53.5107 24.7982 50.7125 22 47.2607 22C43.809 22 41.0107 24.7982 41.0107 28.25C41.0107 31.7018 43.809 34.5 47.2607 34.5Z" fill="#FED1D3"/>
</svg>
