<svg width="69" height="81" viewBox="0 0 69 81" fill="none" xmlns="http://www.w3.org/2000/svg">
<path fill-rule="evenodd" clip-rule="evenodd" d="M58.8952 10.1048C52.4252 3.63481 43.65 0 34.5 0C25.35 0 16.5748 3.63481 10.1048 10.1048C3.63481 16.5748 0 25.35 0 34.5C0 48.783 10.8867 63.7483 32.2 79.7333C32.8635 80.231 33.6706 80.5 34.5 80.5C35.3294 80.5 36.1365 80.231 36.8 79.7333C58.1133 63.7483 69 48.783 69 34.5C69 25.35 65.3652 16.5748 58.8952 10.1048Z" fill="#FFB547"/>
<path d="M26.2729 33.9999C28.9841 33.9999 31.182 31.8021 31.182 29.0909C31.182 26.3796 28.9841 24.1818 26.2729 24.1818C23.5616 24.1818 21.3638 26.3796 21.3638 29.0909C21.3638 31.8021 23.5616 33.9999 26.2729 33.9999Z" fill="#F2E4CF"/>
<path d="M31.8636 36.7273C29.9436 35.7523 27.8245 35.3636 26.2727 35.3636C23.2332 35.3636 17 37.2277 17 40.9546V43.8182H27.2273V42.7225C27.2273 41.4271 27.7727 40.1282 28.7273 39.0455C29.4889 38.1809 30.5552 37.3784 31.8636 36.7273Z" fill="#F2E4CF"/>
<path d="M39.091 36.1818C35.5407 36.1818 28.4546 38.3745 28.4546 42.7272V45.9999H49.7273V42.7272C49.7273 38.3745 42.6412 36.1818 39.091 36.1818Z" fill="#F2E4CF"/>
<path d="M39.0908 34C42.4045 34 45.0908 31.3137 45.0908 28C45.0908 24.6863 42.4045 22 39.0908 22C35.7771 22 33.0908 24.6863 33.0908 28C33.0908 31.3137 35.7771 34 39.0908 34Z" fill="#F2E4CF"/>
</svg>
