<svg width="69" height="81" viewBox="0 0 69 81" fill="none" xmlns="http://www.w3.org/2000/svg">
<path fill-rule="evenodd" clip-rule="evenodd" d="M58.8952 10.1048C52.4252 3.63481 43.65 0 34.5 0C25.35 0 16.5748 3.63481 10.1048 10.1048C3.63481 16.5748 0 25.35 0 34.5C0 48.783 10.8867 63.7483 32.2 79.7333C32.8635 80.231 33.6706 80.5 34.5 80.5C35.3294 80.5 36.1365 80.231 36.8 79.7333C58.1133 63.7483 69 48.783 69 34.5C69 25.35 65.3652 16.5748 58.8952 10.1048Z" fill="#FED1D3"/>
<path d="M22.0795 32.7727C18.3814 32.7727 11 35.0568 11 39.5909V43H33.1591V39.5909C33.1591 35.0568 25.7777 32.7727 22.0795 32.7727Z" fill="#FF7175" fill-opacity="0.45"/>
<path d="M22.0796 30.5C25.5314 30.5 28.3296 27.7018 28.3296 24.25C28.3296 20.7982 25.5314 18 22.0796 18C18.6278 18 15.8296 20.7982 15.8296 24.25C15.8296 27.7018 18.6278 30.5 22.0796 30.5Z" fill="#FF7175" fill-opacity="0.45"/>
<path d="M35.9081 30.5C38.7323 30.5 41.0217 28.2105 41.0217 25.3863C41.0217 22.5622 38.7323 20.2727 35.9081 20.2727C33.0839 20.2727 30.7944 22.5622 30.7944 25.3863C30.7944 28.2105 33.0839 30.5 35.9081 30.5Z" fill="#FF7175"/>
<path d="M36.0644 32.0762C37.6809 32.0762 39.8883 32.481 41.8883 33.4966C40.5254 34.1749 39.4146 35.0108 38.6212 35.9114C37.6269 37.0392 37.0587 38.3922 37.0587 39.7417V40.883H33.8742V39.4809C33.8742 37.031 31.7467 34.9664 29.1821 33.8357C31.3624 32.3046 34.0761 32.0762 36.0644 32.0762Z" fill="#FF7175"/>
<path d="M49.2607 32.7727C45.5625 32.7727 38.1812 35.0568 38.1812 39.5909V43H60.3402V39.5909C60.3402 35.0568 52.9589 32.7727 49.2607 32.7727Z" fill="#FF7175"/>
<path d="M49.2607 30.5C52.7125 30.5 55.5107 27.7018 55.5107 24.25C55.5107 20.7982 52.7125 18 49.2607 18C45.809 18 43.0107 20.7982 43.0107 24.25C43.0107 27.7018 45.809 30.5 49.2607 30.5Z" fill="#FF7175"/>
</svg>
