<svg width="69" height="81" viewBox="0 0 69 81" fill="none" xmlns="http://www.w3.org/2000/svg">
<path fill-rule="evenodd" clip-rule="evenodd" d="M58.8952 10.1048C52.4252 3.63481 43.65 0 34.5 0C25.35 0 16.5748 3.63481 10.1048 10.1048C3.63481 16.5748 0 25.35 0 34.5C0 48.783 10.8867 63.7483 32.2 79.7333C32.8635 80.231 33.6706 80.5 34.5 80.5C35.3294 80.5 36.1365 80.231 36.8 79.7333C58.1133 63.7483 69 48.783 69 34.5C69 25.35 65.3652 16.5748 58.8952 10.1048Z" fill="#F2DEC0"/>
<path d="M28.2729 32.9999C30.9841 32.9999 33.182 30.8021 33.182 28.0909C33.182 25.3796 30.9841 23.1818 28.2729 23.1818C25.5616 23.1818 23.3638 25.3796 23.3638 28.0909C23.3638 30.8021 25.5616 32.9999 28.2729 32.9999Z" fill="#FFB547"/>
<path d="M33.8636 35.7273C31.9436 34.7523 29.8245 34.3636 28.2727 34.3636C25.2332 34.3636 19 36.2277 19 39.9546V42.8182H29.2273V41.7225C29.2273 40.4271 29.7727 39.1282 30.7273 38.0455C31.4889 37.1809 32.5552 36.3784 33.8636 35.7273Z" fill="#FFB547"/>
<path d="M41.091 35.1818C37.5407 35.1818 30.4546 37.3745 30.4546 41.7272V44.9999H51.7273V41.7272C51.7273 37.3745 44.6412 35.1818 41.091 35.1818Z" fill="#FFB547"/>
<path d="M41.0908 33C44.4045 33 47.0908 30.3137 47.0908 27C47.0908 23.6863 44.4045 21 41.0908 21C37.7771 21 35.0908 23.6863 35.0908 27C35.0908 30.3137 37.7771 33 41.0908 33Z" fill="#FFB547"/>
</svg>
