
<svg width="21" height="20" viewBox="0 0 21 20" fill="none" xmlns="http://www.w3.org/2000/svg">
<path d="M11.125 1.875C11.125 1.37772 11.3225 0.900805 11.6742 0.549175C12.0258 0.197544 12.5027 0 13 0L18 0C18.663 0 19.2989 0.263392 19.7678 0.732233C20.2366 1.20107 20.5 1.83696 20.5 2.5V17.5C20.5 18.163 20.2366 18.7989 19.7678 19.2678C19.2989 19.7366 18.663 20 18 20H3C2.33696 20 1.70107 19.7366 1.23223 19.2678C0.763392 18.7989 0.5 18.163 0.5 17.5V2.5C0.5 1.83696 0.763392 1.20107 1.23223 0.732233C1.70107 0.263392 2.33696 0 3 0L10.5 0C10.1075 0.5225 9.875 1.17125 9.875 1.875V11.6163L6.5675 8.3075C6.50939 8.24939 6.4404 8.20329 6.36448 8.17185C6.28856 8.1404 6.20718 8.12421 6.125 8.12421C6.04282 8.12421 5.96144 8.1404 5.88552 8.17185C5.8096 8.20329 5.74061 8.24939 5.6825 8.3075C5.62439 8.36561 5.57829 8.4346 5.54685 8.51052C5.5154 8.58644 5.49921 8.66782 5.49921 8.75C5.49921 8.83218 5.5154 8.91356 5.54685 8.98948C5.57829 9.0654 5.62439 9.13439 5.6825 9.1925L10.0575 13.5675C10.1156 13.6257 10.1845 13.6719 10.2605 13.7034C10.3364 13.7349 10.4178 13.7511 10.5 13.7511C10.5822 13.7511 10.6636 13.7349 10.7395 13.7034C10.8155 13.6719 10.8844 13.6257 10.9425 13.5675L15.3175 9.1925C15.4349 9.07514 15.5008 8.91597 15.5008 8.75C15.5008 8.58403 15.4349 8.42486 15.3175 8.3075C15.2001 8.19014 15.041 8.12421 14.875 8.12421C14.709 8.12421 14.5499 8.19014 14.4325 8.3075L11.125 11.6163V1.875Z" fill="#9747FF"/>
</svg>
