<svg width="21" height="20" viewBox="0 0 21 20" fill="none" xmlns="http://www.w3.org/2000/svg">
<path fill-rule="evenodd" clip-rule="evenodd" d="M2.5 0C1.39543 0 0.5 0.895431 0.5 2V18C0.5 19.1046 1.39543 20 2.5 20H18.5C19.6046 20 20.5 19.1046 20.5 18V2C20.5 0.895431 19.6046 0 18.5 0H2.5ZM6.95962 5.54038C6.70578 5.28654 6.29422 5.28654 6.04038 5.54038C5.78654 5.79422 5.78654 6.20578 6.04038 6.45962L9.58076 10L6.04038 13.5404C5.78654 13.7942 5.78654 14.2058 6.04038 14.4596C6.29422 14.7135 6.70578 14.7135 6.95962 14.4596L10.5 10.9192L14.0404 14.4596C14.2942 14.7135 14.7058 14.7135 14.9596 14.4596C15.2135 14.2058 15.2135 13.7942 14.9596 13.5404L11.4192 10L14.9596 6.45962C15.2135 6.20578 15.2135 5.79422 14.9596 5.54038C14.7058 5.28654 14.2942 5.28654 14.0404 5.54038L10.5 9.08076L6.95962 5.54038Z" fill="#9747FF"/>
</svg>
