<svg width="22" height="22" viewBox="0 0 22 22" fill="none" xmlns="http://www.w3.org/2000/svg">
<circle cx="11.5" cy="10.5" r="8.5" fill="#FFFBFB"/>
<path d="M3.35817 18.9122C2.30756 17.8975 1.46955 16.6837 0.893055 15.3416C0.316556 13.9996 0.0131073 12.5562 0.000415324 11.0956C-0.0122767 9.63501 0.266042 8.18654 0.819132 6.83468C1.37222 5.48282 2.18901 4.25465 3.22183 3.22183C4.25465 2.18901 5.48282 1.37222 6.83468 0.819132C8.18654 0.266042 9.63501 -0.0122767 11.0956 0.000415324C12.5562 0.0131073 13.9996 0.316556 15.3416 0.893055C16.6837 1.46955 17.8975 2.30756 18.9122 3.35817C20.9159 5.43279 22.0246 8.21142 21.9996 11.0956C21.9745 13.9797 20.8177 16.7387 18.7782 18.7782C16.7387 20.8177 13.9797 21.9745 11.0956 21.9996C8.21142 22.0246 5.43279 20.9159 3.35817 18.9122ZM12.6752 11.1352L15.7882 8.02217L14.2372 6.47117L11.1352 9.58417L8.02217 6.47117L6.47117 8.02217L9.58417 11.1352L6.47117 14.2482L8.02217 15.7992L11.1352 12.6862L14.2482 15.7992L15.7992 14.2482L12.6862 11.1352H12.6752Z" fill="#4D4B4B"/>
</svg>
