<svg width="22" height="14" viewBox="0 0 22 14" fill="none" xmlns="http://www.w3.org/2000/svg">
<path d="M14.8227 5.92909C16.4631 5.92909 17.7774 4.60493 17.7774 2.96455C17.7774 1.32416 16.4631 0 14.8227 0C13.1823 0 11.8582 1.32416 11.8582 2.96455C11.8582 4.60493 13.1823 5.92909 14.8227 5.92909ZM6.91727 5.92909C8.55765 5.92909 9.87194 4.60493 9.87194 2.96455C9.87194 1.32416 8.55765 0 6.91727 0C5.27689 0 3.95273 1.32416 3.95273 2.96455C3.95273 4.60493 5.27689 5.92909 6.91727 5.92909ZM6.91727 7.90546C4.61481 7.90546 0 9.06163 0 11.3641V13.8345H13.8345V11.3641C13.8345 9.06163 9.21974 7.90546 6.91727 7.90546ZM14.8227 7.90546C14.5362 7.90546 14.2101 7.92522 13.8642 7.95486C15.0105 8.78494 15.8109 9.90158 15.8109 11.3641V13.8345H21.74V11.3641C21.74 9.06163 17.1252 7.90546 14.8227 7.90546Z" fill="#9a9a9a"/>
</svg>
