<svg width="20" height="18" viewBox="0 0 20 18" fill="none" xmlns="http://www.w3.org/2000/svg">
<path d="M14.1667 4.28198C14.1667 6.23029 11.6285 9.70227 10.5139 11.1332C10.2465 11.4757 9.75 11.4757 9.48611 11.1332C8.37153 9.70227 5.83333 6.23029 5.83333 4.28198C5.83333 1.91618 7.69792 -7.26609e-06 10 -7.26609e-06C12.3021 -7.26609e-06 14.1667 1.91618 14.1667 4.28198ZM14.4444 7.15092C14.566 6.9047 14.6771 6.65849 14.7778 6.41584C14.7951 6.37302 14.8125 6.32663 14.8299 6.28381L18.8576 4.62811C19.4062 4.40331 20 4.81723 20 5.42385V15.0869C20 15.4366 19.7917 15.7506 19.4757 15.8826L14.4444 17.9487V7.15092ZM4.77778 4.93499C4.86111 5.43812 5.02778 5.94482 5.22222 6.41584C5.32292 6.65849 5.43403 6.9047 5.55556 7.15092V16.1217L1.14236 17.938C0.59375 18.1628 0 17.7488 0 17.1422V7.4792C0 7.12951 0.208333 6.81549 0.524306 6.68347L4.78125 4.93499H4.77778ZM11.3819 11.8468C11.8646 11.2259 12.6215 10.2161 13.3333 9.09922V17.9951L6.66667 16.036V9.09922C7.37847 10.2161 8.13542 11.2259 8.61806 11.8468C9.32986 12.7603 10.6701 12.7603 11.3819 11.8468ZM10 5.42385C10.3684 5.42385 10.7216 5.27347 10.9821 5.00579C11.2426 4.73812 11.3889 4.37507 11.3889 3.99652C11.3889 3.61797 11.2426 3.25492 10.9821 2.98724C10.7216 2.71957 10.3684 2.56919 10 2.56919C9.63164 2.56919 9.27837 2.71957 9.01791 2.98724C8.75744 3.25492 8.61111 3.61797 8.61111 3.99652C8.61111 4.37507 8.75744 4.73812 9.01791 5.00579C9.27837 5.27347 9.63164 5.42385 10 5.42385Z" fill="#9155FD"/>
</svg>
