<svg width="23" height="20" viewBox="0 0 23 20" fill="none" xmlns="http://www.w3.org/2000/svg">
<path d="M22.8338 19.3866H12.834V18.2755H22.8338V19.3866ZM15.6117 13.2755H13.3895V17.1644H15.6117V13.2755ZM18.945 9.38672H16.7228V17.1644H18.945V9.38672ZM22.2783 11.0534H20.0561V17.1644H22.2783V11.0534Z" fill="#ffffff"/>
<path fill-rule="evenodd" clip-rule="evenodd" d="M7.53701 1.69149C6.86166 2.36684 6.48225 3.28282 6.48225 4.23792C6.48225 5.19302 6.86166 6.109 7.53701 6.78435C8.21237 7.45971 9.12835 7.83912 10.0834 7.83912C11.0385 7.83912 11.9545 7.45971 12.6299 6.78435C13.3052 6.109 13.6846 5.19302 13.6846 4.23792C13.6846 3.28282 13.3052 2.36684 12.6299 1.69149C11.9545 1.01613 11.0385 0.636719 10.0834 0.636719C9.12835 0.636719 8.21237 1.01613 7.53701 1.69149ZM6.39487 9.91246C6.80008 9.50725 7.34967 9.2796 7.92273 9.2796H12.2442C12.8172 9.2796 13.3668 9.50725 13.772 9.91246C13.8845 10.0249 13.9833 10.1485 14.0673 10.2807C11.7298 11.2391 10.0834 13.5374 10.0834 16.2202C10.0834 17.3329 10.3666 18.3795 10.8649 19.2917C10.6089 19.3388 10.3474 19.363 10.0834 19.363C8.93733 19.363 7.83815 18.9077 7.02773 18.0972C6.2173 17.2868 5.76201 16.1876 5.76201 15.0415V11.4403C5.76201 10.8673 5.98965 10.3177 6.39487 9.91246ZM4.32153 11.4403C4.32113 11.1837 4.34818 10.9277 4.40219 10.6769L1.6019 11.4259C1.32779 11.4993 1.07082 11.626 0.84567 11.7987C0.620515 11.9714 0.431583 12.1867 0.289661 12.4325C0.14774 12.6782 0.0556083 12.9494 0.0185277 13.2308C-0.0185528 13.5121 0.000143714 13.798 0.0735498 14.0721L0.633897 16.1608C0.930653 17.2674 1.65469 18.2108 2.64683 18.7837C3.63898 19.3567 4.81803 19.5121 5.92478 19.216L6.06883 19.1757C5.51582 18.6385 5.07622 17.9959 4.77609 17.2857C4.47596 16.5756 4.32138 15.8125 4.32153 15.0415V11.4403ZM0.843899 4.36149C0.303614 4.90178 8.53407e-05 5.63456 8.53407e-05 6.39864C8.53407e-05 7.16272 0.303614 7.8955 0.843899 8.43579C1.38418 8.97607 2.11697 9.2796 2.88105 9.2796C3.64512 9.2796 4.37791 8.97607 4.91819 8.43579C5.45848 7.8955 5.76201 7.16272 5.76201 6.39864C5.76201 5.63456 5.45848 4.90178 4.91819 4.36149C4.37791 3.82121 3.64512 3.51768 2.88105 3.51768C2.11697 3.51768 1.38418 3.82121 0.843899 4.36149ZM15.2487 3.36149C14.7084 3.90178 14.4049 4.63456 14.4049 5.39864C14.4049 6.16272 14.7084 6.8955 15.2487 7.43579C15.789 7.97607 16.5218 8.2796 17.2858 8.2796C18.0499 8.2796 18.7827 7.97607 19.323 7.43579C19.8633 6.8955 20.1668 6.16272 20.1668 5.39864C20.1668 4.63456 19.8633 3.90178 19.323 3.36149C18.7827 2.82121 18.0499 2.51768 17.2858 2.51768C16.5218 2.51768 15.789 2.82121 15.2487 3.36149Z" fill="#ffffff"/>
</svg>
