<svg width="16" height="20" viewBox="0 0 16 20" fill="none" xmlns="http://www.w3.org/2000/svg">
<path d="M0 2.25C0 1.65326 0.237053 1.08097 0.65901 0.65901C1.08097 0.237053 1.65326 0 2.25 0H13.75C14.0455 0 14.3381 0.058198 14.611 0.171271C14.884 0.284344 15.1321 0.450078 15.341 0.65901C15.5499 0.867941 15.7157 1.11598 15.8287 1.38896C15.9418 1.66194 16 1.95453 16 2.25V8.75C16 9.04547 15.9418 9.33805 15.8287 9.61104C15.7157 9.88402 15.5499 10.1321 15.341 10.341C15.1321 10.5499 14.884 10.7157 14.611 10.8287C14.3381 10.9418 14.0455 11 13.75 11H10.5V18.5H12.25C12.4489 18.5 12.6397 18.579 12.7803 18.7197C12.921 18.8603 13 19.0511 13 19.25C13 19.4489 12.921 19.6397 12.7803 19.7803C12.6397 19.921 12.4489 20 12.25 20H3.75C3.55109 20 3.36032 19.921 3.21967 19.7803C3.07902 19.6397 3 19.4489 3 19.25C3 19.0511 3.07902 18.8603 3.21967 18.7197C3.36032 18.579 3.55109 18.5 3.75 18.5H5.5V11H2.25C1.65326 11 1.08097 10.7629 0.65901 10.341C0.237053 9.91903 0 9.34674 0 8.75V2.25ZM7 11V18.5H9V11H7ZM2.25 1.5C2.05109 1.5 1.86032 1.57902 1.71967 1.71967C1.57902 1.86032 1.5 2.05109 1.5 2.25V8.75C1.5 9.164 1.836 9.5 2.25 9.5H13.75C13.9489 9.5 14.1397 9.42098 14.2803 9.28033C14.421 9.13968 14.5 8.94891 14.5 8.75V2.25C14.5 2.05109 14.421 1.86032 14.2803 1.71967C14.1397 1.57902 13.9489 1.5 13.75 1.5H2.25Z" fill="#ffffff"/>
</svg>
