<svg width="22" height="18" viewBox="0 0 22 18" fill="none" xmlns="http://www.w3.org/2000/svg">
<path d="M0.803 1.05717C0.90385 0.905307 1.06089 0.799716 1.23958 0.763617C1.41827 0.727518 1.60398 0.763867 1.75587 0.864671L3.81837 2.24105C3.96427 2.34449 4.06411 2.50072 4.0967 2.67657C4.1293 2.85242 4.09209 3.03405 3.99296 3.18291C3.89384 3.33177 3.74061 3.43615 3.56579 3.47389C3.39097 3.51163 3.20833 3.47976 3.05663 3.38505L0.994125 2.01005C0.842485 1.90898 0.737174 1.75184 0.701336 1.57317C0.665497 1.39449 0.702064 1.2089 0.803 1.05717ZM11 0.750546C9.35897 0.750546 7.78516 1.40244 6.62478 2.56282C5.4644 3.7232 4.8125 5.29702 4.8125 6.93805V10.2394L3.487 13.5573C3.4452 13.6616 3.4296 13.7746 3.44157 13.8863C3.45355 13.998 3.49273 14.1051 3.55569 14.1982C3.61865 14.2913 3.70347 14.3675 3.80272 14.4202C3.90197 14.4729 4.01262 14.5005 4.125 14.5005H8.25C8.25 16.024 9.4765 17.2505 11 17.2505C12.5235 17.2505 13.75 16.024 13.75 14.5005H17.875C17.9872 14.5004 18.0977 14.4729 18.1968 14.4202C18.2959 14.3676 18.3806 14.2915 18.4435 14.1986C18.5064 14.1057 18.5457 13.9988 18.5578 13.8873C18.5699 13.7757 18.5545 13.6629 18.513 13.5587L17.1875 10.238V6.93805C17.1875 5.29702 16.5356 3.7232 15.3752 2.56282C14.2148 1.40244 12.641 0.750546 11 0.750546ZM12.375 14.5005C12.375 15.265 11.7645 15.8755 11 15.8755C10.2355 15.8755 9.625 15.265 9.625 14.5005H12.375ZM6.1875 6.93805C6.1875 5.66169 6.69453 4.43761 7.59705 3.53509C8.49957 2.63258 9.72365 2.12555 11 2.12555C12.2764 2.12555 13.5004 2.63258 14.403 3.53509C15.3055 4.43761 15.8125 5.66169 15.8125 6.93805V10.3728C15.8127 10.46 15.8295 10.5463 15.862 10.6272L16.8603 13.1255H5.13975L6.138 10.6272C6.17048 10.5463 6.18727 10.46 6.1875 10.3728V6.93805ZM20.2441 0.866046C20.3958 0.771332 20.5785 0.739462 20.7533 0.777201C20.9281 0.814941 21.0813 0.919318 21.1805 1.06818C21.2796 1.21704 21.3168 1.39868 21.2842 1.57452C21.2516 1.75037 21.1518 1.9066 21.0059 2.01005L18.9434 3.38505C18.7917 3.47976 18.609 3.51163 18.4342 3.47389C18.2594 3.43615 18.1062 3.33177 18.007 3.18291C17.9079 3.03405 17.8707 2.85242 17.9033 2.67657C17.9359 2.50072 18.0357 2.34449 18.1816 2.24105L20.2441 0.866046ZM0 6.93805C0 6.75571 0.0724328 6.58084 0.201364 6.45191C0.330295 6.32298 0.505164 6.25055 0.6875 6.25055H2.75C2.93234 6.25055 3.1072 6.32298 3.23614 6.45191C3.36507 6.58084 3.4375 6.75571 3.4375 6.93805C3.4375 7.12038 3.36507 7.29525 3.23614 7.42418C3.1072 7.55311 2.93234 7.62555 2.75 7.62555H0.6875C0.505164 7.62555 0.330295 7.55311 0.201364 7.42418C0.0724328 7.29525 0 7.12038 0 6.93805ZM21.3125 6.25055C21.4948 6.25055 21.6697 6.32298 21.7986 6.45191C21.9276 6.58084 22 6.75571 22 6.93805C22 7.12038 21.9276 7.29525 21.7986 7.42418C21.6697 7.55311 21.4948 7.62555 21.3125 7.62555H19.25C19.0677 7.62555 18.8928 7.55311 18.7639 7.42418C18.6349 7.29525 18.5625 7.12038 18.5625 6.93805C18.5625 6.75571 18.6349 6.58084 18.7639 6.45191C18.8928 6.32298 19.0677 6.25055 19.25 6.25055H21.3125Z" fill="#28243D"/>
<path d="M15.8125 10.3728C15.8127 10.46 15.8295 10.5463 15.862 10.6272L16.6605 12.6255H16.8603V13.1255L16.3959 13.3111L16.3218 13.1255H5.67818L5.60406 13.3111L5.13975 13.1255V12.6255H5.33953L6.138 10.6272L16.3125 10.3715L16.3125 6.93805C16.3125 5.52908 15.7528 4.17783 14.7565 3.18154C13.7602 2.18525 12.409 1.62555 11 1.62555C9.59104 1.62555 8.23978 2.18525 7.2435 3.18154C6.24721 4.17783 5.6875 5.52908 5.6875 6.93805V10.372C5.68738 10.3956 5.6828 10.419 5.674 10.4409L5.67369 10.4417L4.67544 12.94L4.40154 13.6255H5.13975H16.8603H17.5985L17.3246 12.94L16.3263 10.4417L16.326 10.4409C16.3172 10.419 16.3126 10.3956 16.3125 10.372V10.3728H15.8125ZM15.8125 10.3728V6.93805C15.8125 5.66169 15.3055 4.43761 14.403 3.53509C13.5004 2.63258 12.2764 2.12555 11 2.12555C9.72365 2.12555 8.49957 2.63258 7.59705 3.53509C6.69453 4.43761 6.1875 5.66169 6.1875 6.93805V10.3728H15.8125ZM1.2193 1.33411L1.21952 1.33378C1.24703 1.29236 1.28985 1.26356 1.33859 1.25372C1.38718 1.2439 1.43768 1.25373 1.47903 1.28104C1.47915 1.28112 1.47928 1.2812 1.4794 1.28128L3.5331 2.65178C3.57075 2.67997 3.59648 2.72133 3.60508 2.7677C3.61397 2.81566 3.60382 2.86519 3.57679 2.90579C3.54975 2.94639 3.50796 2.97486 3.46028 2.98515C3.41428 2.99508 3.36629 2.98734 3.32581 2.96357L1.27148 1.59402L1.27142 1.59399C1.23007 1.56642 1.20135 1.52357 1.19157 1.47484C1.1818 1.42611 1.19177 1.37549 1.2193 1.33411ZM5.27682 10.4249L5.3125 10.3356V10.2394V6.93805C5.3125 5.42963 5.91172 3.98299 6.97833 2.91638C8.04494 1.84976 9.49158 1.25055 11 1.25055C12.5084 1.25055 13.9551 1.84976 15.0217 2.91638C16.0883 3.98299 16.6875 5.42963 16.6875 6.93805V10.238V10.3342L16.7231 10.4234L18.0485 13.7437C18.0485 13.7438 18.0486 13.7438 18.0486 13.7439C18.0598 13.7723 18.064 13.803 18.0607 13.8333C18.0574 13.8637 18.0467 13.8929 18.0295 13.9182C18.0124 13.9435 17.9893 13.9643 17.9622 13.9786L18.1968 14.4202L17.9622 13.9786C17.9352 13.993 17.9051 14.0005 17.8745 14.0005H13.75H13.25V14.5005C13.25 15.7479 12.2474 16.7505 11 16.7505C9.75264 16.7505 8.75 15.7479 8.75 14.5005V14.0005H8.25H4.12511C4.12508 14.0005 4.12504 14.0005 4.125 14.0005C4.09439 14.0005 4.06425 13.993 4.03722 13.9786C4.01015 13.9643 3.98702 13.9435 3.96985 13.9181C3.95268 13.8927 3.94199 13.8635 3.93873 13.833C3.93546 13.8026 3.93972 13.7717 3.95112 13.7433L3.95132 13.7428L5.27682 10.4249ZM12.875 14.5005V14.0005H12.375H9.625H9.125V14.5005C9.125 15.5412 9.95936 16.3755 11 16.3755C12.0406 16.3755 12.875 15.5412 12.875 14.5005ZM18.4668 2.65183L20.5133 1.28752C20.5538 1.26376 20.6018 1.25601 20.6478 1.26594C20.6955 1.27624 20.7373 1.3047 20.7643 1.3453C20.7913 1.3859 20.8015 1.43543 20.7926 1.48339C20.784 1.52974 20.7583 1.57108 20.7207 1.59927L18.6742 2.96357C18.6337 2.98734 18.5857 2.99508 18.5397 2.98515C18.492 2.97486 18.4502 2.94639 18.4232 2.90579C18.3962 2.8652 18.386 2.81566 18.3949 2.7677C18.4035 2.72136 18.4292 2.68001 18.4668 2.65183ZM0.5 6.93805C0.5 6.88832 0.519754 6.84063 0.554917 6.80546L0.201364 6.45191L0.554918 6.80546C0.590081 6.7703 0.637772 6.75055 0.6875 6.75055H2.75C2.79973 6.75055 2.84742 6.7703 2.88258 6.80546C2.91775 6.84063 2.9375 6.88832 2.9375 6.93805C2.9375 6.98777 2.91775 7.03547 2.88258 7.07063C2.84742 7.10579 2.79973 7.12555 2.75 7.12555H0.6875C0.637772 7.12555 0.590081 7.10579 0.554917 7.07063C0.519755 7.03547 0.5 6.98777 0.5 6.93805ZM21.3125 6.75055C21.3622 6.75055 21.4099 6.7703 21.4451 6.80547C21.4802 6.84063 21.5 6.88832 21.5 6.93805C21.5 6.98778 21.4802 7.03547 21.4451 7.07063C21.4099 7.10579 21.3622 7.12555 21.3125 7.12555H19.25C19.2003 7.12555 19.1526 7.10579 19.1174 7.07063C19.0823 7.03547 19.0625 6.98778 19.0625 6.93805C19.0625 6.88832 19.0823 6.84063 19.1174 6.80546C19.1526 6.7703 19.2003 6.75055 19.25 6.75055H21.3125Z" stroke="#ffffff" stroke-opacity="0.87"/>
</svg>
