<svg width="22" height="22" viewBox="0 0 22 22" fill="none" xmlns="http://www.w3.org/2000/svg">
<path fill-rule="evenodd" clip-rule="evenodd" d="M13.0599 0.1672C12.6315 -5.46376e-08 12.0873 0 11.0001 0C9.91283 0 9.36864 -5.46376e-08 8.94023 0.1672C8.36992 0.389632 7.91596 0.818142 7.67816 1.3585C7.56932 1.6038 7.52763 1.8909 7.51027 2.3078C7.50254 2.60986 7.41385 2.90507 7.25258 3.16549C7.09131 3.42592 6.86278 3.64296 6.58861 3.7961C6.30927 3.94361 5.99525 4.02176 5.67566 4.0233C5.35607 4.02484 5.04124 3.94972 4.76034 3.8049C4.36898 3.6091 4.08531 3.5013 3.8051 3.4661C3.19208 3.38963 2.57206 3.54618 2.07989 3.9017C1.71169 4.1679 1.43959 4.6123 0.896551 5.5C0.352356 6.3877 0.0814157 6.831 0.020049 7.2655C-0.0610014 7.8441 0.105731 8.4293 0.483194 8.8924C0.654558 9.1036 0.896552 9.2807 1.27054 9.5029C1.82284 9.8296 2.17715 10.3862 2.17715 11C2.17715 11.6138 1.82284 12.1704 1.2717 12.496C0.896551 12.7193 0.654558 12.8964 0.482036 13.1076C0.295716 13.3363 0.158957 13.5979 0.0796608 13.8771C0.000364597 14.1564 -0.0198964 14.4478 0.020049 14.7345C0.0814157 15.1679 0.352356 15.6123 0.896551 16.5C1.44075 17.3877 1.71169 17.831 2.07989 18.0983C2.57082 18.4536 3.19144 18.6098 3.8051 18.5339C4.08531 18.4987 4.36898 18.3909 4.76034 18.1951C5.04138 18.0501 5.35643 17.9749 5.67624 17.9764C5.99606 17.9779 6.31028 18.0562 6.58976 18.2039C7.15249 18.5119 7.48595 19.0784 7.51027 19.6922C7.52763 20.1102 7.56932 20.3962 7.67816 20.6415C7.91436 21.1805 8.36824 21.6095 8.94023 21.8328C9.36864 22 9.91283 22 11.0001 22C12.0873 22 12.6315 22 13.0599 21.8328C13.6302 21.6104 14.0842 21.1819 14.322 20.6415C14.4308 20.3962 14.4725 20.1102 14.4899 19.6922C14.513 19.0784 14.8476 18.5108 15.4115 18.2039C15.6909 18.0564 16.0049 17.9782 16.3245 17.9767C16.6441 17.9752 16.9589 18.0503 17.2398 18.1951C17.6311 18.3909 17.9148 18.4987 18.195 18.5339C18.8087 18.6109 19.4293 18.4536 19.9202 18.0983C20.2884 17.8321 20.5605 17.3877 21.1036 16.5C21.6478 15.6123 21.9187 15.169 21.9801 14.7345C22.0199 14.4477 21.9994 14.1563 21.9199 13.877C21.8404 13.5978 21.7035 13.3363 21.5169 13.1076C21.3456 12.8964 21.1036 12.7193 20.7296 12.4971C20.1773 12.1704 19.823 11.6138 19.823 11C19.823 10.3862 20.1773 9.8296 20.7284 9.504C21.1036 9.2807 21.3456 9.1036 21.5181 8.8924C21.7044 8.66366 21.8412 8.40212 21.9205 8.12287C21.9998 7.84363 22.02 7.55223 21.9801 7.2655C21.9187 6.8321 21.6478 6.3877 21.1036 5.5C20.5594 4.6123 20.2884 4.169 19.9202 3.9017C19.4281 3.54618 18.8081 3.38963 18.195 3.4661C17.9148 3.5013 17.6311 3.6091 17.2398 3.8049C16.9587 3.94991 16.6437 4.02514 16.3239 4.0236C16.0041 4.02206 15.6898 3.94381 15.4104 3.7961C15.1364 3.64283 14.9081 3.42572 14.747 3.16531C14.586 2.90489 14.4975 2.60976 14.4899 2.3078C14.4725 1.8898 14.4308 1.6038 14.322 1.3585C14.2043 1.09091 14.0322 0.847971 13.8157 0.643564C13.5991 0.439156 13.3423 0.277286 13.0599 0.1672ZM11.0001 14.3C12.9337 14.3 14.5003 12.8227 14.5003 11C14.5003 9.1773 12.9325 7.7 11.0001 7.7C9.06643 7.7 7.49985 9.1773 7.49985 11C7.49985 12.8227 9.06759 14.3 11.0001 14.3Z" fill="#ffffff"/>
</svg>
