<svg width="22" height="20" viewBox="0 0 22 20" fill="none" xmlns="http://www.w3.org/2000/svg">
<path d="M20.4217 18.4725H10.4219V17.3614H20.4217V18.4725ZM13.1996 12.3615H10.9774V16.2503H13.1996V12.3615ZM16.5329 8.47266H14.3107V16.2503H16.5329V8.47266ZM19.8662 10.1393H17.644V16.2503H19.8662V10.1393Z" fill="#ffffff"/>
<path d="M8.10534 14.6312C8.10534 11.8522 9.37903 9.42062 11.2317 7.68376H2.31581L4.05267 2.47319H16.7896L17.7159 5.36795C18.4107 5.36795 19.1054 5.48374 19.6844 5.71532L18.4107 1.89423C18.1791 1.19949 17.4844 0.736328 16.7896 0.736328H4.05267C3.24213 0.736328 2.66318 1.19949 2.4316 1.89423L0 8.84166V18.1049C0 18.6839 0.578952 19.2628 1.1579 19.2628H2.31581C2.89476 19.2628 3.47371 18.6839 3.47371 18.1049V16.947H8.45271C8.22113 16.2523 8.10534 15.4417 8.10534 14.6312ZM4.05267 13.4733C3.12634 13.4733 2.31581 12.6627 2.31581 11.7364C2.31581 10.8101 3.12634 9.99957 4.05267 9.99957C4.97899 9.99957 5.78953 10.8101 5.78953 11.7364C5.78953 12.6627 4.97899 13.4733 4.05267 13.4733Z" fill="#ffffff"/>
</svg>
