<svg width="34" height="22" viewBox="0 0 34 22" fill="none" xmlns="http://www.w3.org/2000/svg">
<path d="M20.9998 21.9998H11V20.8887H20.9998V21.9998ZM13.7777 15.8888H11.5555V19.7776H13.7777V15.8888ZM17.111 12H14.8888V19.7776H17.111V12ZM20.4443 13.6666H18.2221V19.7776H20.4443V13.6666Z" fill="#4F4B55"/>
<path d="M15.3313 0H11.4027C11.0901 0 10.7903 0.124171 10.5693 0.345196C10.3483 0.566221 10.2241 0.865995 10.2241 1.17857C10.2241 1.49115 10.3483 1.79092 10.5693 2.01195C10.7903 2.23297 11.0901 2.35714 11.4027 2.35714H12.483L10.947 3.89616C10.1604 3.24255 9.23428 2.7783 8.23994 2.53921C7.24561 2.30012 6.20965 2.29258 5.21194 2.51716C4.21422 2.74174 3.28141 3.19245 2.48543 3.83454C1.68945 4.47663 1.05155 5.29294 0.62093 6.22053C0.190308 7.14813 -0.021537 8.16223 0.0017287 9.18464C0.0249944 10.207 0.282749 11.2105 0.755119 12.1175C1.22749 13.0246 1.90186 13.811 2.72622 14.4162C3.55059 15.0214 4.50294 15.4292 5.50983 15.6082V16.8929H3.54555C3.23297 16.8929 2.93319 17.017 2.71217 17.2381C2.49114 17.4591 2.36697 17.7589 2.36697 18.0714C2.36697 18.384 2.49114 18.6838 2.71217 18.9048C2.93319 19.1258 3.23297 19.25 3.54555 19.25H5.50983V20.8214C5.50983 21.134 5.634 21.4338 5.85503 21.6548C6.07605 21.8758 6.37583 22 6.6884 22C7.00098 22 7.30075 21.8758 7.52178 21.6548C7.7428 21.4338 7.86697 21.134 7.86697 20.8214V19.25H9.83126C10.1438 19.25 10.4436 19.1258 10.6646 18.9048C10.8857 18.6838 11.0098 18.384 11.0098 18.0714C11.0098 17.7589 10.8857 17.4591 10.6646 17.2381C10.4436 17.017 10.1438 16.8929 9.83126 16.8929H7.86697V15.6082C8.92176 15.4201 9.91571 14.9806 10.7648 14.3271C11.6138 13.6736 12.293 12.8252 12.7448 11.8537C13.1967 10.8822 13.4079 9.81621 13.3606 8.74582C13.3133 7.67543 13.0089 6.63217 12.4732 5.70429L14.1527 4.02679V5.10714C14.1527 5.41972 14.2769 5.71949 14.4979 5.94052C14.7189 6.16154 15.0187 6.28571 15.3313 6.28571C15.6438 6.28571 15.9436 6.16154 16.1646 5.94052C16.3857 5.71949 16.5098 5.41972 16.5098 5.10714V1.17857C16.5098 0.865995 16.3857 0.566221 16.1646 0.345196C15.9436 0.124171 15.6438 0 15.3313 0ZM6.6884 13.3571C5.83371 13.3571 4.9982 13.1037 4.28755 12.6288C3.57689 12.154 3.023 11.4791 2.69592 10.6895C2.36884 9.89982 2.28327 9.03092 2.45001 8.19265C2.61675 7.35437 3.02833 6.58436 3.63269 5.98C4.23705 5.37564 5.00706 4.96406 5.84533 4.79732C6.68361 4.63058 7.5525 4.71616 8.34214 5.04324C9.13178 5.37031 9.80669 5.9242 10.2815 6.63486C10.7564 7.34551 11.0098 8.18102 11.0098 9.03571C11.0085 10.1814 10.5528 11.2798 9.74268 12.09C8.93254 12.9001 7.83412 13.3558 6.6884 13.3571Z" fill="#4F4B55"/>
</svg>
