<svg width="69" height="81" viewBox="0 0 69 81" fill="none" xmlns="http://www.w3.org/2000/svg">
<path fill-rule="evenodd" clip-rule="evenodd" d="M58.8952 10.1048C52.4252 3.63481 43.65 0 34.5 0C25.35 0 16.5748 3.63481 10.1048 10.1048C3.63481 16.5748 0 25.35 0 34.5C0 48.783 10.8867 63.7483 32.2 79.7333C32.8635 80.231 33.6706 80.5 34.5 80.5C35.3294 80.5 36.1365 80.231 36.8 79.7333C58.1133 63.7483 69 48.783 69 34.5C69 25.35 65.3652 16.5748 58.8952 10.1048Z" fill="#FFEDD3"/>
<path d="M21.2379 25.5326C21.4993 25.2165 21.6244 24.8096 21.5857 24.4013C21.547 23.9931 21.3478 23.6169 21.0317 23.3555C20.7157 23.0941 20.3088 22.969 19.9005 23.0077C19.4922 23.0463 19.116 23.2456 18.8546 23.5617C16.9654 25.8462 15.653 28.5515 15.0282 31.4495C14.9513 31.8466 15.033 32.258 15.2559 32.5955C15.4788 32.9331 15.825 33.1698 16.2204 33.2551C16.6158 33.3403 17.0289 33.2672 17.371 33.0515C17.7131 32.8357 17.9571 32.4945 18.0506 32.101C18.5712 29.6877 19.6643 27.4349 21.2379 25.5326ZM47.4785 23.5617C47.2171 23.2453 46.8408 23.0458 46.4323 23.007C46.0238 22.9681 45.6166 23.0931 45.3003 23.3545C44.984 23.6158 44.7845 23.9921 44.7456 24.4006C44.7068 24.8091 44.8318 25.2163 45.0931 25.5326C46.6674 27.4347 47.7613 29.6875 48.2825 32.101C48.376 32.4945 48.62 32.8357 48.9621 33.0515C49.3042 33.2672 49.7173 33.3403 50.1127 33.2551C50.5081 33.1698 50.8543 32.9331 51.0772 32.5955C51.3 32.258 51.3818 31.8466 51.3049 31.4495C50.68 28.5516 49.3677 25.8463 47.4785 23.5617Z" fill="#FFB547"/>
<path fill-rule="evenodd" clip-rule="evenodd" d="M33.1658 23.0028C29.8851 23.0028 26.7388 24.3061 24.419 26.6259C22.0992 28.9456 20.7959 32.092 20.7959 35.3727C20.7959 39.263 19.86 42.9286 18.2045 46.1633C18.096 46.3751 18.038 46.6092 18.0348 46.8471C18.0316 47.0851 18.0834 47.3206 18.1862 47.5353C18.2889 47.7499 18.4399 47.938 18.6272 48.0848C18.8145 48.2316 19.0332 48.3332 19.2662 48.3816C21.4849 48.8425 23.7253 49.192 25.9789 49.4289C26.1399 51.2238 26.9668 52.8935 28.2968 54.1095C29.6268 55.3256 31.3637 55.9999 33.1658 55.9999C34.9679 55.9999 36.7048 55.3256 38.0348 54.1095C39.3648 52.8935 40.1916 51.2238 40.3527 49.4289C42.6063 49.1921 44.8467 48.8425 47.0654 48.3816C47.2984 48.3332 47.5171 48.2316 47.7044 48.0848C47.8917 47.938 48.0426 47.7499 48.1454 47.5353C48.2481 47.3206 48.2999 47.0851 48.2968 46.8471C48.2936 46.6092 48.2355 46.3751 48.1271 46.1633C46.4179 42.8235 45.5295 39.1244 45.5356 35.3727C45.5356 32.092 44.2324 28.9456 41.9126 26.6259C39.5928 24.3061 36.4465 23.0028 33.1658 23.0028ZM33.1658 52.8966C32.2311 52.8964 31.3241 52.5787 30.5937 51.9955C29.8632 51.4122 29.3526 50.5981 29.1456 49.6866C31.8235 49.8426 34.5081 49.8426 37.186 49.6866C36.9789 50.5981 36.4683 51.4122 35.7379 51.9955C35.0075 52.5787 34.1005 52.8964 33.1658 52.8966Z" fill="#FFB547"/>
</svg>
