<svg width="69" height="81" viewBox="0 0 69 81" fill="none" xmlns="http://www.w3.org/2000/svg">
<path fill-rule="evenodd" clip-rule="evenodd" d="M58.8952 10.1048C52.4252 3.63481 43.65 0 34.5 0C25.35 0 16.5748 3.63481 10.1048 10.1048C3.63481 16.5748 0 25.35 0 34.5C0 48.783 10.8867 63.7483 32.2 79.7333C32.8635 80.231 33.6706 80.5 34.5 80.5C35.3294 80.5 36.1365 80.231 36.8 79.7333C58.1133 63.7483 69 48.783 69 34.5C69 25.35 65.3652 16.5748 58.8952 10.1048Z" fill="#FFDDDE"/>
<path d="M21.2379 23.5326C21.4993 23.2165 21.6244 22.8096 21.5857 22.4013C21.547 21.9931 21.3478 21.6169 21.0317 21.3555C20.7157 21.0941 20.3088 20.969 19.9005 21.0077C19.4922 21.0463 19.116 21.2456 18.8546 21.5617C16.9654 23.8462 15.653 26.5515 15.0282 29.4495C14.9513 29.8466 15.033 30.258 15.2559 30.5955C15.4788 30.9331 15.825 31.1698 16.2204 31.2551C16.6158 31.3403 17.0289 31.2672 17.371 31.0515C17.7131 30.8357 17.9571 30.4945 18.0506 30.101C18.5712 27.6877 19.6643 25.4349 21.2379 23.5326ZM47.4785 21.5617C47.2171 21.2453 46.8408 21.0458 46.4323 21.007C46.0238 20.9681 45.6166 21.0931 45.3003 21.3545C44.984 21.6158 44.7845 21.9921 44.7456 22.4006C44.7068 22.8091 44.8318 23.2163 45.0931 23.5326C46.6674 25.4347 47.7613 27.6875 48.2825 30.101C48.376 30.4945 48.62 30.8357 48.9621 31.0515C49.3042 31.2672 49.7173 31.3403 50.1127 31.2551C50.5081 31.1698 50.8543 30.9331 51.0772 30.5955C51.3 30.258 51.3818 29.8466 51.3049 29.4495C50.68 26.5516 49.3677 23.8463 47.4785 21.5617Z" fill="#FF7175"/>
<path fill-rule="evenodd" clip-rule="evenodd" d="M33.1658 21.0028C29.8851 21.0028 26.7388 22.3061 24.419 24.6259C22.0992 26.9456 20.7959 30.092 20.7959 33.3727C20.7959 37.263 19.86 40.9286 18.2045 44.1633C18.096 44.3751 18.038 44.6092 18.0348 44.8471C18.0316 45.0851 18.0834 45.3206 18.1862 45.5353C18.2889 45.7499 18.4399 45.938 18.6272 46.0848C18.8145 46.2316 19.0332 46.3332 19.2662 46.3816C21.4849 46.8425 23.7253 47.192 25.9789 47.4289C26.1399 49.2238 26.9668 50.8935 28.2968 52.1095C29.6268 53.3256 31.3637 53.9999 33.1658 53.9999C34.9679 53.9999 36.7048 53.3256 38.0348 52.1095C39.3648 50.8935 40.1916 49.2238 40.3527 47.4289C42.6063 47.1921 44.8467 46.8425 47.0654 46.3816C47.2984 46.3332 47.5171 46.2316 47.7044 46.0848C47.8917 45.938 48.0426 45.7499 48.1454 45.5353C48.2481 45.3206 48.2999 45.0851 48.2968 44.8471C48.2936 44.6092 48.2355 44.3751 48.1271 44.1633C46.4179 40.8235 45.5295 37.1244 45.5356 33.3727C45.5356 30.092 44.2324 26.9456 41.9126 24.6259C39.5928 22.3061 36.4465 21.0028 33.1658 21.0028ZM33.1658 50.8966C32.2311 50.8964 31.3241 50.5787 30.5937 49.9955C29.8632 49.4122 29.3526 48.5981 29.1456 47.6866C31.8235 47.8426 34.5081 47.8426 37.186 47.6866C36.9789 48.5981 36.4683 49.4122 35.7379 49.9955C35.0075 50.5787 34.1005 50.8964 33.1658 50.8966Z" fill="#FF7175"/>
</svg>
