<svg width="70" height="82" viewBox="0 0 70 82" fill="none" xmlns="http://www.w3.org/2000/svg">
<path fill-rule="evenodd" clip-rule="evenodd" d="M59.3952 10.9381C52.9252 4.46812 44.15 0.833313 35 0.833313C25.85 0.833313 17.0748 4.46812 10.6048 10.9381C4.13481 17.4081 0.5 26.1833 0.5 35.3333C0.5 49.6163 11.3867 64.5816 32.7 80.5666C33.3635 81.0643 34.1706 81.3333 35 81.3333C35.8294 81.3333 36.6365 81.0643 37.3 80.5666C58.6133 64.5816 69.5 49.6163 69.5 35.3333C69.5 26.1833 65.8652 17.4081 59.3952 10.9381Z" fill="#F7B6B7"/>
<path d="M23.2379 24.5326C23.4993 24.2165 23.6244 23.8096 23.5857 23.4013C23.547 22.9931 23.3478 22.6169 23.0317 22.3555C22.7157 22.0941 22.3088 21.969 21.9005 22.0077C21.4922 22.0463 21.116 22.2456 20.8546 22.5617C18.9654 24.8462 17.653 27.5515 17.0282 30.4495C16.9513 30.8466 17.033 31.258 17.2559 31.5955C17.4788 31.9331 17.825 32.1698 18.2204 32.2551C18.6158 32.3403 19.0289 32.2672 19.371 32.0515C19.7131 31.8357 19.9571 31.4945 20.0506 31.101C20.5712 28.6877 21.6643 26.4349 23.2379 24.5326ZM49.4785 22.5617C49.2171 22.2453 48.8408 22.0458 48.4323 22.007C48.0238 21.9681 47.6166 22.0931 47.3003 22.3545C46.984 22.6158 46.7845 22.9921 46.7456 23.4006C46.7068 23.8091 46.8318 24.2163 47.0931 24.5326C48.6674 26.4347 49.7613 28.6875 50.2825 31.101C50.376 31.4945 50.62 31.8357 50.9621 32.0515C51.3042 32.2672 51.7173 32.3403 52.1127 32.2551C52.5081 32.1698 52.8543 31.9331 53.0772 31.5955C53.3 31.258 53.3818 30.8466 53.3049 30.4495C52.68 27.5516 51.3677 24.8463 49.4785 22.5617Z" fill="#E04347"/>
<path fill-rule="evenodd" clip-rule="evenodd" d="M35.1658 22.0029C31.8851 22.0029 28.7388 23.3061 26.419 25.6259C24.0992 27.9457 22.7959 31.092 22.7959 34.3727C22.7959 38.263 21.86 41.9286 20.2045 45.1633C20.096 45.3752 20.038 45.6092 20.0348 45.8472C20.0316 46.0852 20.0834 46.3207 20.1862 46.5353C20.2889 46.75 20.4399 46.9381 20.6272 47.0849C20.8145 47.2317 21.0332 47.3332 21.2662 47.3817C23.4849 47.8425 25.7253 48.1921 27.9789 48.429C28.1399 50.2239 28.9668 51.8936 30.2968 53.1096C31.6268 54.3256 33.3637 55 35.1658 55C36.9679 55 38.7048 54.3256 40.0348 53.1096C41.3648 51.8936 42.1916 50.2239 42.3527 48.429C44.6063 48.1921 46.8467 47.8426 49.0654 47.3817C49.2984 47.3332 49.5171 47.2317 49.7044 47.0849C49.8917 46.9381 50.0426 46.75 50.1454 46.5353C50.2481 46.3207 50.2999 46.0852 50.2968 45.8472C50.2936 45.6092 50.2355 45.3752 50.1271 45.1633C48.4179 41.8236 47.5295 38.1244 47.5356 34.3727C47.5356 31.092 46.2324 27.9457 43.9126 25.6259C41.5928 23.3061 38.4465 22.0029 35.1658 22.0029ZM35.1658 51.8967C34.2311 51.8965 33.3241 51.5788 32.5937 50.9955C31.8632 50.4123 31.3526 49.5982 31.1456 48.6867C33.8235 48.8426 36.5081 48.8426 39.186 48.6867C38.9789 49.5982 38.4683 50.4123 37.7379 50.9955C37.0075 51.5788 36.1005 51.8965 35.1658 51.8967Z" fill="#E04347"/>
</svg>
