<svg width="69" height="81" viewBox="0 0 69 81" fill="none" xmlns="http://www.w3.org/2000/svg">
<path fill-rule="evenodd" clip-rule="evenodd" d="M58.8952 10.1048C52.4252 3.63481 43.65 0 34.5 0C25.35 0 16.5748 3.63481 10.1048 10.1048C3.63481 16.5748 0 25.35 0 34.5C0 48.783 10.8867 63.7483 32.2 79.7333C32.8635 80.231 33.6706 80.5 34.5 80.5C35.3294 80.5 36.1365 80.231 36.8 79.7333C58.1133 63.7483 69 48.783 69 34.5C69 25.35 65.3652 16.5748 58.8952 10.1048Z" fill="#E04347"/>
<path d="M23.2379 23.5326C23.4993 23.2165 23.6244 22.8096 23.5857 22.4013C23.547 21.9931 23.3478 21.6169 23.0317 21.3555C22.7157 21.0941 22.3088 20.969 21.9005 21.0077C21.4922 21.0463 21.116 21.2456 20.8546 21.5617C18.9654 23.8462 17.653 26.5515 17.0282 29.4495C16.9513 29.8466 17.033 30.258 17.2559 30.5955C17.4788 30.9331 17.825 31.1698 18.2204 31.2551C18.6158 31.3403 19.0289 31.2672 19.371 31.0515C19.7131 30.8357 19.9571 30.4945 20.0506 30.101C20.5712 27.6877 21.6643 25.4349 23.2379 23.5326ZM49.4785 21.5617C49.2171 21.2453 48.8408 21.0458 48.4323 21.007C48.0238 20.9681 47.6166 21.0931 47.3003 21.3545C46.984 21.6158 46.7845 21.9921 46.7456 22.4006C46.7068 22.8091 46.8318 23.2163 47.0931 23.5326C48.6674 25.4347 49.7613 27.6875 50.2825 30.101C50.376 30.4945 50.62 30.8357 50.9621 31.0515C51.3042 31.2672 51.7173 31.3403 52.1127 31.2551C52.5081 31.1698 52.8543 30.9331 53.0772 30.5955C53.3 30.258 53.3818 29.8466 53.3049 29.4495C52.68 26.5516 51.3677 23.8463 49.4785 21.5617Z" fill="white" fill-opacity="0.76"/>
<path fill-rule="evenodd" clip-rule="evenodd" d="M35.1658 21.0028C31.8851 21.0028 28.7388 22.3061 26.419 24.6259C24.0992 26.9456 22.7959 30.092 22.7959 33.3727C22.7959 37.263 21.86 40.9286 20.2045 44.1633C20.096 44.3751 20.038 44.6092 20.0348 44.8471C20.0316 45.0851 20.0834 45.3206 20.1862 45.5353C20.2889 45.7499 20.4399 45.938 20.6272 46.0848C20.8145 46.2316 21.0332 46.3332 21.2662 46.3816C23.4849 46.8425 25.7253 47.192 27.9789 47.4289C28.1399 49.2238 28.9668 50.8935 30.2968 52.1095C31.6268 53.3256 33.3637 53.9999 35.1658 53.9999C36.9679 53.9999 38.7048 53.3256 40.0348 52.1095C41.3648 50.8935 42.1916 49.2238 42.3527 47.4289C44.6063 47.1921 46.8467 46.8425 49.0654 46.3816C49.2984 46.3332 49.5171 46.2316 49.7044 46.0848C49.8917 45.938 50.0426 45.7499 50.1454 45.5353C50.2481 45.3206 50.2999 45.0851 50.2968 44.8471C50.2936 44.6092 50.2355 44.3751 50.1271 44.1633C48.4179 40.8235 47.5295 37.1244 47.5356 33.3727C47.5356 30.092 46.2324 26.9456 43.9126 24.6259C41.5928 22.3061 38.4465 21.0028 35.1658 21.0028ZM35.1658 50.8966C34.2311 50.8964 33.3241 50.5787 32.5937 49.9955C31.8632 49.4122 31.3526 48.5981 31.1456 47.6866C33.8235 47.8426 36.5081 47.8426 39.186 47.6866C38.9789 48.5981 38.4683 49.4122 37.7379 49.9955C37.0075 50.5787 36.1005 50.8964 35.1658 50.8966Z" fill="white" fill-opacity="0.76"/>
</svg>
