<svg width="157" height="56" viewBox="0 0 157 56" fill="none" xmlns="http://www.w3.org/2000/svg">
<path d="M7.65419 38.2758H2.42733L2.4597 33.9066H7.65419C8.73299 33.9066 9.64458 33.6477 10.389 33.1299C11.1442 32.612 11.7159 31.8407 12.1043 30.8158C12.5035 29.7802 12.703 28.5071 12.703 26.9968V25.9773C12.703 24.8446 12.5898 23.852 12.3632 22.9998C12.1475 22.1367 11.8238 21.4193 11.3923 20.8476C10.9607 20.265 10.4213 19.8281 9.77403 19.5368C9.13757 19.2455 8.40396 19.0999 7.57325 19.0999H2.33024V14.7145H7.57325C9.16993 14.7145 10.6317 14.9896 11.9587 15.5398C13.2964 16.0792 14.4507 16.8559 15.4217 17.87C16.4034 18.8733 17.1586 20.0654 17.6872 21.4463C18.2266 22.8164 18.4963 24.3375 18.4963 26.0097V26.9968C18.4963 28.6582 18.2266 30.1793 17.6872 31.5602C17.1586 32.9411 16.4088 34.1332 15.4379 35.1365C14.4669 36.1398 13.318 36.9165 11.991 37.4667C10.6749 38.0061 9.22928 38.2758 7.65419 38.2758ZM5.67996 14.7145V38.2758H0V14.7145H5.67996ZM34.1121 32.0133C34.1121 31.6465 34.0582 31.3175 33.9503 31.0262C33.8424 30.7241 33.6428 30.4436 33.3516 30.1847C33.0603 29.9258 32.6395 29.6669 32.0893 29.408C31.5499 29.1383 30.8379 28.8578 29.9533 28.5665C28.9176 28.2212 27.9197 27.8329 26.9596 27.4014C25.9994 26.959 25.1418 26.4466 24.3866 25.864C23.6314 25.2707 23.0327 24.5803 22.5904 23.7927C22.1481 22.9944 21.9269 22.0666 21.9269 21.0094C21.9269 19.9953 22.1535 19.0837 22.6066 18.2746C23.0597 17.4547 23.6907 16.7589 24.4999 16.1871C25.3198 15.6045 26.2799 15.1622 27.3803 14.8601C28.4807 14.5473 29.6836 14.3909 30.9889 14.3909C32.715 14.3909 34.2362 14.6929 35.5523 15.2971C36.8793 15.8904 37.9149 16.7373 38.6593 17.8377C39.4145 18.9273 39.7921 20.2165 39.7921 21.7052H34.1445C34.1445 21.1119 34.0204 20.5887 33.7723 20.1356C33.535 19.6825 33.1736 19.3264 32.6881 19.0675C32.2026 18.8086 31.5931 18.6791 30.8595 18.6791C30.1475 18.6791 29.5488 18.787 29.0632 19.0028C28.5778 19.2185 28.211 19.5098 27.9628 19.8767C27.7148 20.2326 27.5907 20.6264 27.5907 21.0579C27.5907 21.4139 27.6878 21.7376 27.882 22.0289C28.0869 22.3094 28.3728 22.5737 28.7396 22.8218C29.1172 23.0699 29.5703 23.3073 30.0989 23.5338C30.6383 23.7604 31.2425 23.9815 31.9113 24.1973C33.1628 24.5964 34.274 25.0441 35.2449 25.5404C36.2266 26.0259 37.0519 26.5815 37.7207 27.2072C38.4004 27.8221 38.9128 28.5233 39.2581 29.3109C39.614 30.0984 39.7921 30.9884 39.7921 31.981C39.7921 33.0382 39.5871 33.9767 39.1772 34.7966C38.7672 35.6165 38.1792 36.3123 37.4133 36.8841C36.6473 37.4451 35.7303 37.8713 34.6623 38.1625C33.5943 38.4538 32.4022 38.5995 31.086 38.5995C29.8778 38.5995 28.6857 38.4484 27.5097 38.1464C26.3446 37.8335 25.2874 37.3588 24.338 36.7223C23.3887 36.075 22.6282 35.2497 22.0564 34.2465C21.4954 33.2323 21.2149 32.0295 21.2149 30.6378H26.911C26.911 31.3282 27.0027 31.9108 27.1861 32.3855C27.3695 32.8602 27.6392 33.2431 27.9953 33.5344C28.3512 33.8149 28.7882 34.0199 29.306 34.1493C29.8238 34.268 30.4172 34.3273 31.086 34.3273C31.8088 34.3273 32.3914 34.2249 32.8337 34.0199C33.2761 33.8041 33.5997 33.5236 33.8047 33.1784C34.0096 32.8224 34.1121 32.4341 34.1121 32.0133ZM58.0456 14.7145V38.2758H52.3821V14.7145H58.0456ZM67.6581 24.5047V38.2758H62.2043V20.7666H67.3179L67.6581 24.5047ZM67.0108 28.9225L65.7323 28.9549C65.7323 27.6171 65.8939 26.425 66.2175 25.3786C66.5412 24.3214 66.9999 23.4259 67.5929 22.6923C68.1863 21.9587 68.8931 21.4032 69.7129 21.0256C70.5435 20.6372 71.4662 20.443 72.4802 20.443C73.289 20.443 74.0285 20.5617 74.697 20.799C75.3769 21.0363 75.9595 21.4193 76.4447 21.948C76.9413 22.4766 77.3188 23.1778 77.5777 24.0516C77.8475 24.9147 77.9821 25.9827 77.9821 27.2557V38.2758H72.4962V27.2395C72.4962 26.5383 72.3994 26.0043 72.2052 25.6375C72.011 25.2599 71.7303 25.001 71.3637 24.8608C70.9966 24.7205 70.5492 24.6504 70.0205 24.6504C69.4596 24.6504 68.9848 24.7582 68.5964 24.974C68.208 25.1898 67.8953 25.4919 67.6581 25.8802C67.4313 26.2578 67.264 26.7055 67.1563 27.2233C67.059 27.7412 67.0108 28.3076 67.0108 28.9225ZM90.7016 33.3564C90.7016 33.0544 90.5991 32.7954 90.394 32.5797C90.1998 32.3531 89.8544 32.1482 89.3583 31.9647C88.8617 31.7706 88.1663 31.5764 87.2704 31.3822C86.4186 31.1988 85.6149 30.9561 84.8594 30.654C84.1153 30.3519 83.4623 29.9851 82.9015 29.5536C82.3407 29.1221 81.8985 28.6096 81.5743 28.0163C81.2615 27.423 81.1051 26.7433 81.1051 25.9773C81.1051 25.2329 81.2615 24.5317 81.5743 23.8736C81.8985 23.2048 82.3676 22.6168 82.9823 22.1097C83.6083 21.5919 84.3685 21.1874 85.2644 20.8961C86.1597 20.5941 87.1788 20.443 88.3227 20.443C89.8974 20.443 91.2567 20.6857 92.4006 21.1712C93.544 21.6459 94.4232 22.3148 95.0379 23.1778C95.664 24.0301 95.9767 25.0172 95.9767 26.1391H90.5235C90.5235 25.6968 90.4479 25.3193 90.2966 25.0064C90.1563 24.6935 89.9248 24.4562 89.6007 24.2944C89.2775 24.1218 88.8457 24.0355 88.3061 24.0355C87.9286 24.0355 87.5837 24.1056 87.2704 24.2458C86.9685 24.3861 86.7257 24.5803 86.5424 24.8284C86.3591 25.0765 86.2674 25.3678 86.2674 25.7023C86.2674 25.9396 86.3213 26.1554 86.4295 26.3495C86.5481 26.5329 86.7257 26.7055 86.9634 26.8674C87.2005 27.0184 87.5024 27.1586 87.8696 27.2881C88.2362 27.4067 88.6784 27.5147 89.1963 27.6117C90.3723 27.8275 91.4726 28.135 92.4974 28.5341C93.5222 28.9333 94.3533 29.4997 94.9897 30.2333C95.637 30.9668 95.9607 31.954 95.9607 33.1946C95.9607 33.9713 95.7825 34.6887 95.4263 35.3469C95.0705 35.9941 94.5579 36.5659 93.8894 37.0621C93.2203 37.5476 92.4166 37.9252 91.4783 38.1949C90.5395 38.4646 89.4821 38.5995 88.3061 38.5995C86.634 38.5995 85.2209 38.3028 84.0666 37.7094C82.9124 37.1053 82.0383 36.3501 81.4448 35.4439C80.8628 34.5269 80.5713 33.5992 80.5713 32.6606H85.6527C85.674 33.2 85.8034 33.6423 86.0411 33.9875C86.2892 34.3327 86.618 34.5863 87.0281 34.7481C87.4377 34.9099 87.9125 34.9908 88.4521 34.9908C88.9482 34.9908 89.3583 34.9207 89.682 34.7804C90.0165 34.6402 90.2697 34.4514 90.4427 34.214C90.6151 33.966 90.7016 33.6801 90.7016 33.3564ZM104.796 23.7927V38.2758H99.3266V23.7927H104.796ZM119.684 20.7666H124.636V37.5962C124.636 39.2144 124.263 40.5845 123.519 41.7064C122.774 42.8392 121.734 43.6969 120.396 44.2794C119.069 44.8728 117.515 45.1694 115.735 45.1694C114.947 45.1694 114.144 45.067 113.324 44.862C112.504 44.6678 111.738 44.3765 111.026 43.9881C110.314 43.5997 109.715 43.1197 109.23 42.5479L111.512 39.3438C111.954 39.8401 112.51 40.2608 113.179 40.606C113.847 40.9621 114.635 41.14 115.541 41.14C116.329 41.14 116.987 40.9998 117.515 40.7193C118.054 40.4388 118.465 40.0289 118.745 39.4895C119.025 38.9608 119.166 38.3189 119.166 37.5638V24.9093L119.684 20.7666ZM108.049 29.7316V29.3918C108.049 28.0648 108.21 26.8565 108.534 25.767C108.869 24.6666 109.344 23.7226 109.958 22.9351C110.584 22.1367 111.339 21.5218 112.224 21.0903C113.108 20.6588 114.106 20.443 115.217 20.443C116.415 20.443 117.397 20.6749 118.163 21.1388C118.939 21.5919 119.56 22.2284 120.023 23.0484C120.498 23.8682 120.865 24.8284 121.124 25.9288C121.393 27.0184 121.62 28.1943 121.804 29.4565V29.8611C121.62 31.0478 121.367 32.1697 121.043 33.227C120.73 34.2734 120.32 35.2012 119.813 36.0103C119.306 36.8194 118.67 37.4559 117.904 37.9198C117.148 38.3729 116.242 38.5995 115.185 38.5995C114.085 38.5995 113.092 38.3783 112.208 37.936C111.334 37.4937 110.584 36.8734 109.958 36.075C109.344 35.2767 108.869 34.3381 108.534 33.2593C108.21 32.1805 108.049 31.0046 108.049 29.7316ZM113.502 29.3918V29.7316C113.502 30.3897 113.561 30.9992 113.68 31.5602C113.809 32.1212 114.004 32.6174 114.263 33.0489C114.522 33.4697 114.84 33.7987 115.217 34.0361C115.606 34.2734 116.059 34.3921 116.577 34.3921C117.364 34.3921 118.001 34.2249 118.486 33.8904C118.972 33.556 119.322 33.0813 119.538 32.4664C119.754 31.8515 119.846 31.1287 119.813 30.298V29.0196C119.835 28.3076 119.786 27.6819 119.668 27.1424C119.549 26.5922 119.36 26.1338 119.101 25.767C118.853 25.4001 118.518 25.1251 118.098 24.9417C117.688 24.7475 117.192 24.6504 116.609 24.6504C116.102 24.6504 115.654 24.7691 115.266 25.0064C114.878 25.2437 114.554 25.5782 114.295 26.0097C114.036 26.4304 113.837 26.9321 113.696 27.5147C113.567 28.0864 113.502 28.7121 113.502 29.3918ZM133.633 13.4199V38.2758H128.179V13.4199H133.633ZM132.986 28.9225L131.707 28.9549C131.707 27.725 131.858 26.5922 132.16 25.5566C132.462 24.5209 132.894 23.6201 133.455 22.8542C134.016 22.0882 134.69 21.4949 135.477 21.0741C136.265 20.6534 137.139 20.443 138.099 20.443C138.962 20.443 139.749 20.5671 140.462 20.8152C141.184 21.0633 141.805 21.4625 142.323 22.0127C142.851 22.5628 143.256 23.2803 143.536 24.1649C143.827 25.0495 143.973 26.1284 143.973 27.4014V38.2758H138.488V27.369C138.488 26.657 138.385 26.1068 138.18 25.7184C137.986 25.3193 137.705 25.0441 137.338 24.8931C136.972 24.7313 136.524 24.6504 135.995 24.6504C135.359 24.6504 134.841 24.7582 134.442 24.974C134.042 25.1898 133.735 25.4919 133.519 25.8802C133.314 26.2578 133.174 26.7055 133.098 27.2233C133.023 27.7412 132.986 28.3076 132.986 28.9225ZM156.741 20.7666V24.5533H146.19V20.7666H156.741ZM148.407 16.4136H153.86V32.5635C153.86 33.0274 153.914 33.3888 154.022 33.6477C154.13 33.8958 154.314 34.0738 154.572 34.1817C154.842 34.2788 155.198 34.3273 155.641 34.3273C155.953 34.3273 156.212 34.322 156.417 34.3112C156.623 34.2896 156.817 34.2626 157 34.2303V38.1302C156.536 38.2812 156.05 38.3945 155.543 38.47C155.036 38.5563 154.497 38.5995 153.925 38.5995C152.76 38.5995 151.762 38.416 150.932 38.0493C150.112 37.6825 149.486 37.1053 149.054 36.3178C148.623 35.5302 148.407 34.5054 148.407 33.2431V16.4136Z" fill="black"/>
<circle cx="101.754" cy="16.2673" r="5.43723" fill="#FF0202"/>
</svg>
