<svg width="23" height="25" viewBox="0 0 23 25" fill="none" xmlns="http://www.w3.org/2000/svg">
<path fill-rule="evenodd" clip-rule="evenodd" d="M11.5642 21.6275C7.61197 24.3667 3.69219 25.189 1.53862 23.3593C-1.56529 20.722 0.175149 13.5742 5.42601 7.39418C5.94746 6.78046 6.48391 6.19936 7.0303 5.65305H1.40891V3.05397H7.04026V5.65305H7.03727V12.341H9.61469V3.3782C13.8657 0.114421 18.2342 -0.991376 20.5537 0.979407C23.6576 3.61665 21.9171 10.7645 16.6663 16.9445C15.8644 17.8882 15.0271 18.7548 14.1728 19.5364H19.7748V22.1355H14.1435V19.5632C14.1429 19.5637 14.1422 19.5643 14.1416 19.5649V12.8068H11.5642V21.6275Z" fill="#FEFEFE" fill-opacity="0.25"/>
</svg>
