<svg width="32" height="31" viewBox="0 0 32 31" fill="none" xmlns="http://www.w3.org/2000/svg">
<path d="M17.4145 1.27617C16.8609 0.241277 15.1394 0.241277 14.5858 1.27617L0.186031 28.177C0.0568953 28.4182 -0.00698144 28.6883 0.000604949 28.9611C0.00819134 29.2339 0.086983 29.5001 0.229327 29.7339C0.371671 29.9677 0.572729 30.1611 0.812972 30.2953C1.05321 30.4296 1.32448 30.5001 1.60041 30.5H30.3999C30.6758 30.5006 30.9472 30.4304 31.1875 30.2964C31.4279 30.1623 31.629 29.969 31.7713 29.7352C31.9136 29.5014 31.9922 29.2351 31.9994 28.9623C32.0067 28.6895 31.9424 28.4195 31.8127 28.1786L17.4145 1.27617ZM17.6001 25.7528H14.4002V22.588H17.6001V25.7528ZM14.4002 19.4232V11.5112H17.6001L17.6017 19.4232H14.4002Z" fill="#FF0D11"/>
</svg>
