<svg width="22" height="20" viewBox="0 0 22 20" fill="none" xmlns="http://www.w3.org/2000/svg">
<path d="M21.6857 16.1152L13.0973 1.20018C12.8826 0.83477 12.5763 0.531788 12.2085 0.321268C11.8407 0.110749 11.4243 0 11.0005 0C10.5767 0 10.1603 0.110749 9.79251 0.321268C9.42472 0.531788 9.11834 0.83477 8.90372 1.20018L0.315323 16.1152C0.108824 16.4687 0 16.8706 0 17.28C0 17.6893 0.108824 18.0913 0.315323 18.4447C0.52719 18.8124 0.833053 19.117 1.20153 19.3274C1.57 19.5378 1.98781 19.6463 2.41209 19.6419H19.5889C20.0128 19.646 20.4302 19.5372 20.7983 19.3269C21.1664 19.1165 21.472 18.8121 21.6837 18.4447C21.8905 18.0915 21.9997 17.6896 22 17.2802C22.0003 16.8709 21.8919 16.4688 21.6857 16.1152ZM10.2148 7.8568C10.2148 7.64843 10.2976 7.44859 10.4449 7.30125C10.5923 7.15391 10.7921 7.07113 11.0005 7.07113C11.2089 7.07113 11.4087 7.15391 11.556 7.30125C11.7034 7.44859 11.7862 7.64843 11.7862 7.8568V11.7852C11.7862 11.9935 11.7034 12.1934 11.556 12.3407C11.4087 12.4881 11.2089 12.5708 11.0005 12.5708C10.7921 12.5708 10.5923 12.4881 10.4449 12.3407C10.2976 12.1934 10.2148 11.9935 10.2148 11.7852V7.8568ZM11.0005 16.4992C10.7674 16.4992 10.5395 16.4301 10.3457 16.3006C10.1519 16.1711 10.0009 15.987 9.91169 15.7717C9.82249 15.5564 9.79915 15.3194 9.84462 15.0908C9.8901 14.8622 10.0023 14.6522 10.1672 14.4874C10.332 14.3226 10.542 14.2103 10.7706 14.1648C10.9992 14.1194 11.2361 14.1427 11.4515 14.2319C11.6668 14.3211 11.8509 14.4722 11.9804 14.666C12.1099 14.8598 12.179 15.0876 12.179 15.3207C12.179 15.6333 12.0548 15.933 11.8338 16.154C11.6128 16.3751 11.3131 16.4992 11.0005 16.4992Z" fill="#f97449"/>
</svg>
