<svg width="18" height="18" viewBox="0 0 18 18" fill="none" xmlns="http://www.w3.org/2000/svg">
<rect width="18" height="18" rx="9" transform="matrix(-1 0 0 1 18 0)" fill="#9E69FD"/>
<path d="M4.46507 8.60487V9.39357C4.46507 9.61129 4.53182 9.79717 4.66533 9.95121C4.79883 10.1053 4.97239 10.1823 5.18599 10.1823H9.52386L7.71847 11.9938C7.56237 12.1417 7.48432 12.3266 7.48432 12.5484C7.48432 12.7702 7.56237 12.9551 7.71847 13.1029L8.1806 13.5712C8.33259 13.7232 8.51744 13.7992 8.73516 13.7992C8.94876 13.7992 9.13567 13.7232 9.29588 13.5712L13.3072 9.55378C13.4592 9.40179 13.5352 9.21693 13.5352 8.99922C13.5352 8.78561 13.4592 8.59871 13.3072 8.4385L9.29588 4.43337C9.13978 4.27727 8.95287 4.19922 8.73516 4.19922C8.52155 4.19922 8.3367 4.27727 8.1806 4.43337L7.71847 4.88933C7.56237 5.04543 7.48432 5.23234 7.48432 5.45005C7.48432 5.66777 7.56237 5.85467 7.71847 6.01077L9.52386 7.81616H5.18599C4.97239 7.81616 4.79883 7.89319 4.66533 8.04723C4.53182 8.20127 4.46507 8.38715 4.46507 8.60487Z" fill="white"/>
</svg>
