<svg width="32" height="34" viewBox="0 0 32 34" fill="none" xmlns="http://www.w3.org/2000/svg">
<path d="M15.8909 21.6472C15.2735 21.6616 14.6596 21.5506 14.0863 21.3209C13.5131 21.0912 12.9923 20.7477 12.5557 20.311C12.119 19.8743 11.7754 19.3536 11.5458 18.7804C11.3161 18.2071 11.2051 17.5932 11.2195 16.9758C11.2051 16.3584 11.3161 15.7445 11.5458 15.1713C11.7754 14.598 12.119 14.0773 12.5557 13.6406C12.9923 13.204 13.5131 12.8604 14.0863 12.6307C14.6596 12.4011 15.2735 12.2901 15.8909 12.3044C16.5082 12.2901 17.1221 12.4011 17.6954 12.6307C18.2687 12.8604 18.7894 13.204 19.226 13.6406C19.6627 14.0773 20.0063 14.598 20.236 15.1713C20.4656 15.7445 20.5766 16.3584 20.5622 16.9758H22.8979C22.8979 15.59 22.487 14.2352 21.717 13.0829C20.9471 11.9306 19.8527 11.0325 18.5723 10.5021C17.292 9.97179 15.8831 9.83302 14.5238 10.1034C13.1646 10.3738 11.9161 11.0411 10.9361 12.0211C9.95616 13.001 9.2888 14.2496 9.01843 15.6088C8.74806 16.968 8.88683 18.3769 9.41717 19.6573C9.94752 20.9377 10.8456 22.032 11.9979 22.802C13.1502 23.5719 14.505 23.9829 15.8909 23.9829V21.6472Z" fill="#9155FD"/>
<path d="M31.4297 11.187L28.6736 6.41284C28.4036 5.94486 27.9798 5.58493 27.4743 5.39434C26.9688 5.20376 26.4128 5.19432 25.9011 5.36762L23.0586 6.32992C22.5688 5.99998 22.0568 5.7042 21.5263 5.44469L20.9378 2.50173C20.8317 1.97245 20.5456 1.49626 20.1281 1.15412C19.7105 0.811971 19.1874 0.625002 18.6476 0.625H13.1354C12.5954 0.625056 12.0722 0.812191 11.6546 1.15457C11.2371 1.49694 10.9511 1.97341 10.8452 2.50289L10.2567 5.44469C9.72035 5.7016 9.20252 5.99544 8.70692 6.32408L5.88074 5.36762C5.36934 5.19492 4.81392 5.20468 4.30891 5.39523C3.80389 5.58578 3.38046 5.94537 3.11061 6.41284L0.354501 11.187C0.0845079 11.6545 -0.0152153 12.201 0.0722914 12.7337C0.159798 13.2664 0.429131 13.7524 0.834485 14.1089L3.08959 16.0908C3.06974 16.3851 3.04521 16.677 3.04521 16.9748C3.04521 17.2761 3.05611 17.5743 3.07791 17.8694L0.835652 19.8407C0.429921 20.1969 0.16014 20.6828 0.0722048 21.2155C-0.0157302 21.7482 0.0836126 22.2949 0.353333 22.7627L3.10944 27.5368C3.37938 28.0048 3.80321 28.3647 4.30873 28.5553C4.81425 28.7459 5.3702 28.7553 5.88191 28.582L8.72444 27.6197C9.21419 27.9501 9.72614 28.2462 10.2567 28.5061L10.8441 31.4468C10.95 31.9764 11.2361 32.453 11.6539 32.7954C12.0717 33.1378 12.5952 33.3249 13.1354 33.3246H15.8915V30.989H13.1354L12.3062 26.8431C11.1592 26.4169 10.0945 25.7958 9.15888 25.0073L5.13332 26.369L2.37721 21.5948L5.55958 18.7978C5.34122 17.5902 5.33845 16.3534 5.55141 15.1448L2.37721 12.3537L5.13332 7.58068L9.13552 8.93538C10.0773 8.14501 11.1505 7.52601 12.3062 7.10654L13.1354 2.96069H18.6476L19.4768 7.10654C20.6238 7.53274 21.6885 8.15381 22.6241 8.94239L26.6497 7.58068L29.4058 12.3548L26.1382 15.2184L27.6774 16.9748L30.9473 14.1089C31.3531 13.7527 31.6229 13.2669 31.7108 12.7342C31.7987 12.2015 31.6994 11.6547 31.4297 11.187Z" fill="#9155FD"/>
<path d="M31.0487 32.8236H17.9302V31.366H31.0487V32.8236ZM21.5742 24.8067H18.659V29.9084H21.5742V24.8067ZM25.9471 19.7051H23.0318V29.9084H25.9471V19.7051ZM30.3199 21.8915H27.4047V29.9084H30.3199V21.8915Z" fill="#9155FD"/>
</svg>
