<svg width="30" height="30" viewBox="0 0 30 30" fill="none" xmlns="http://www.w3.org/2000/svg">
<rect x="0.5" y="0.5" width="29" height="29" rx="14.5" stroke="#B6B7BA"/>
<path d="M21.5 18.9613C21.5 19.2531 21.3979 19.5011 21.1936 19.7054L19.7054 21.1936C19.5011 21.3979 19.2531 21.5 18.9613 21.5C18.6695 21.5 18.4214 21.3979 18.2172 21.1936L15 17.9764L11.7828 21.1936C11.5786 21.3979 11.3305 21.5 11.0387 21.5C10.7469 21.5 10.4989 21.3979 10.2946 21.1936L8.8064 19.7054C8.60213 19.5011 8.5 19.2531 8.5 18.9613C8.5 18.6695 8.60213 18.4214 8.8064 18.2172L12.0236 15L8.8064 11.7828C8.60213 11.5786 8.5 11.3305 8.5 11.0387C8.5 10.7469 8.60213 10.4989 8.8064 10.2946L10.2946 8.8064C10.4989 8.60213 10.7469 8.5 11.0387 8.5C11.3305 8.5 11.5786 8.60213 11.7828 8.8064L15 12.0236L18.2172 8.8064C18.4214 8.60213 18.6695 8.5 18.9613 8.5C19.2531 8.5 19.5011 8.60213 19.7054 8.8064L21.1936 10.2946C21.3979 10.4989 21.5 10.7469 21.5 11.0387C21.5 11.3305 21.3979 11.5786 21.1936 11.7828L17.9764 15L21.1936 18.2172C21.3979 18.4214 21.5 18.6695 21.5 18.9613Z" fill="#B6B7BA"/>
</svg>
