<svg width="50" height="18" viewBox="0 0 50 18" fill="none" xmlns="http://www.w3.org/2000/svg">
<path d="M16.5 3.38642C16.5 3.15132 16.596 2.92586 16.7667 2.75963C16.9375 2.59339 17.1692 2.5 17.4107 2.5H32.5893C32.8308 2.5 33.0625 2.59339 33.2333 2.75963C33.404 2.92586 33.5 3.15132 33.5 3.38642C33.5 3.62151 33.404 3.84697 33.2333 4.01321C33.0625 4.17944 32.8308 4.27283 32.5893 4.27283H17.4107C17.1692 4.27283 16.9375 4.17944 16.7667 4.01321C16.596 3.84697 16.5 3.62151 16.5 3.38642ZM25 6.93208C25 6.69699 25.096 6.47153 25.2667 6.30529C25.4375 6.13906 25.6692 6.04567 25.9107 6.04567H32.5893C32.8308 6.04567 33.0625 6.13906 33.2333 6.30529C33.404 6.47153 33.5 6.69699 33.5 6.93208C33.5 7.16718 33.404 7.39264 33.2333 7.55888C33.0625 7.72511 32.8308 7.8185 32.5893 7.8185H25.9107C25.6692 7.8185 25.4375 7.72511 25.2667 7.55888C25.096 7.39264 25 7.16718 25 6.93208ZM23.5186 12.877L21.09 15.2408C20.9192 15.4068 20.6878 15.5 20.4464 15.5C20.2051 15.5 19.9736 15.4068 19.8029 15.2408L17.3743 12.877C17.2848 12.7958 17.213 12.698 17.1633 12.5892C17.1135 12.4805 17.0867 12.3631 17.0846 12.2441C17.0824 12.1251 17.1049 12.0069 17.1507 11.8965C17.1965 11.7861 17.2647 11.6859 17.3512 11.6017C17.4376 11.5175 17.5407 11.4512 17.6541 11.4066C17.7675 11.362 17.8889 11.3401 18.0112 11.3422C18.1335 11.3443 18.2541 11.3703 18.3658 11.4188C18.4775 11.4672 18.5781 11.5371 18.6614 11.6242L19.5357 12.4751V6.93208C19.5357 6.69699 19.6317 6.47153 19.8025 6.30529C19.9732 6.13906 20.2049 6.04567 20.4464 6.04567C20.688 6.04567 20.9196 6.13906 21.0904 6.30529C21.2612 6.47153 21.3571 6.69699 21.3571 6.93208V12.4751L22.2314 11.6242C22.4041 11.4676 22.6324 11.3824 22.8683 11.3864C23.1043 11.3905 23.3294 11.4835 23.4963 11.6459C23.6631 11.8083 23.7587 12.0274 23.7629 12.2571C23.767 12.4867 23.6794 12.709 23.5186 12.877Z" fill="#9747FF"/>
</svg>
