<svg width="50" height="17" viewBox="0 0 50 17" fill="none" xmlns="http://www.w3.org/2000/svg">
<path d="M16.5 2.73293C16.5 2.4914 16.596 2.25977 16.7667 2.08899C16.9375 1.91821 17.1692 1.82227 17.4107 1.82227H32.5893C32.8308 1.82227 33.0625 1.91821 33.2333 2.08899C33.404 2.25977 33.5 2.4914 33.5 2.73293C33.5 2.97445 33.404 3.20608 33.2333 3.37686C33.0625 3.54764 32.8308 3.64358 32.5893 3.64358H17.4107C17.1692 3.64358 16.9375 3.54764 16.7667 3.37686C16.596 3.20608 16.5 2.97445 16.5 2.73293ZM25 6.37556C25 6.13404 25.096 5.90241 25.2667 5.73163C25.4375 5.56085 25.6692 5.4649 25.9107 5.4649H32.5893C32.8308 5.4649 33.0625 5.56085 33.2333 5.73163C33.404 5.90241 33.5 6.13404 33.5 6.37556C33.5 6.61709 33.404 6.84872 33.2333 7.0195C33.0625 7.19028 32.8308 7.28622 32.5893 7.28622H25.9107C25.6692 7.28622 25.4375 7.19028 25.2667 7.0195C25.096 6.84872 25 6.61709 25 6.37556ZM21.09 5.73203C20.9192 5.56149 20.6878 5.46571 20.4464 5.46571C20.2051 5.46571 19.9736 5.56149 19.8029 5.73203L17.3743 8.16046C17.2134 8.33309 17.1258 8.56142 17.13 8.79734C17.1342 9.03326 17.2297 9.25836 17.3966 9.42521C17.5635 9.59206 17.7886 9.68763 18.0245 9.69179C18.2604 9.69595 18.4888 9.60838 18.6614 9.44752L19.5357 8.57329V14.2679C19.5357 14.5095 19.6317 14.7411 19.8025 14.9119C19.9732 15.0827 20.2049 15.1786 20.4464 15.1786C20.688 15.1786 20.9196 15.0827 21.0904 14.9119C21.2612 14.7411 21.3571 14.5095 21.3571 14.2679V8.57329L22.2314 9.44752C22.4041 9.60838 22.6324 9.69595 22.8683 9.69179C23.1043 9.68763 23.3294 9.59206 23.4963 9.42521C23.6631 9.25836 23.7587 9.03326 23.7629 8.79734C23.767 8.56142 23.6794 8.33309 23.5186 8.16046L21.09 5.73203Z" fill="#9747FF"/>
</svg>
