<svg width="23" height="19" viewBox="0 0 23 19" fill="none" xmlns="http://www.w3.org/2000/svg">
<path d="M20.9373 17.8748H10.9375V16.7637H20.9373V17.8748ZM13.7152 11.7638H11.493V15.6526H13.7152V11.7638ZM17.0485 7.875H14.8263V15.6526H17.0485V7.875ZM20.3818 9.54164H18.1596V15.6526H20.3818V9.54164Z" fill="#4F4B55"/>
<path d="M8.6875 14C8.6875 11.3 9.925 8.9375 11.725 7.25H3.0625L4.75 2.1875H17.125L18.025 5C18.7 5 19.375 5.1125 19.9375 5.3375L18.7 1.625C18.475 0.95 17.8 0.5 17.125 0.5H4.75C3.9625 0.5 3.4 0.95 3.175 1.625L0.8125 8.375V17.375C0.8125 17.9375 1.375 18.5 1.9375 18.5H3.0625C3.625 18.5 4.1875 17.9375 4.1875 17.375V16.25H9.025C8.8 15.575 8.6875 14.7875 8.6875 14ZM4.75 12.875C3.85 12.875 3.0625 12.0875 3.0625 11.1875C3.0625 10.2875 3.85 9.5 4.75 9.5C5.65 9.5 6.4375 10.2875 6.4375 11.1875C6.4375 12.0875 5.65 12.875 4.75 12.875Z" fill="#4F4B55"/>
</svg>
