<svg width="19" height="20" viewBox="0 0 19 20" fill="none" xmlns="http://www.w3.org/2000/svg">
<path d="M18.4998 19.408H8.5V18.2969H18.4998V19.408ZM11.2777 13.297H9.05555V17.1859H11.2777V13.297ZM14.611 9.4082H12.3888V17.1859H14.611V9.4082ZM17.9443 11.0748H15.7221V17.1859H17.9443V11.0748Z" fill="#4F4B55"/>
<path d="M12.952 0.5H9.73768C9.48193 0.5 9.23666 0.601594 9.05582 0.782433C8.87499 0.963271 8.77339 1.20854 8.77339 1.46429C8.77339 1.72003 8.87499 1.9653 9.05582 2.14614C9.23666 2.32698 9.48193 2.42857 9.73768 2.42857H10.6216L9.36482 3.68777C8.72128 3.15299 7.96352 2.77315 7.14998 2.57754C6.33643 2.38192 5.48882 2.37574 4.67251 2.55949C3.8562 2.74324 3.093 3.11201 2.44174 3.63735C1.79048 4.1627 1.26856 4.83059 0.916237 5.58953C0.56391 6.34847 0.390582 7.17818 0.409618 8.0147C0.428653 8.85122 0.639543 9.6722 1.02603 10.4143C1.41251 11.1565 1.96427 11.7999 2.63875 12.2951C3.31323 12.7903 4.09242 13.1239 4.91625 13.2704V14.3214H3.3091C3.05336 14.3214 2.80809 14.423 2.62725 14.6039C2.44641 14.7847 2.34482 15.03 2.34482 15.2857C2.34482 15.5415 2.44641 15.7867 2.62725 15.9676C2.80809 16.1484 3.05336 16.25 3.3091 16.25H4.91625V17.5357C4.91625 17.7915 5.01784 18.0367 5.19868 18.2176C5.37952 18.3984 5.62479 18.5 5.88053 18.5C6.13628 18.5 6.38155 18.3984 6.56239 18.2176C6.74322 18.0367 6.84482 17.7915 6.84482 17.5357V16.25H8.45196C8.70771 16.25 8.95298 16.1484 9.13381 15.9676C9.31465 15.7867 9.41625 15.5415 9.41625 15.2857C9.41625 15.03 9.31465 14.7847 9.13381 14.6039C8.95298 14.423 8.70771 14.3214 8.45196 14.3214H6.84482V13.2704C7.70782 13.1164 8.52106 12.7569 9.21574 12.2222C9.91042 11.6875 10.4661 10.9934 10.8358 10.1985C11.2055 9.40365 11.3783 8.53144 11.3396 7.65567C11.3009 6.77989 11.0519 5.92632 10.6136 5.16714L11.9877 3.79464V4.67857C11.9877 4.93432 12.0893 5.17959 12.2701 5.36042C12.4509 5.54126 12.6962 5.64286 12.952 5.64286C13.2077 5.64286 13.453 5.54126 13.6338 5.36042C13.8147 5.17959 13.9162 4.93432 13.9162 4.67857V1.46429C13.9162 1.20854 13.8147 0.963271 13.6338 0.782433C13.453 0.601594 13.2077 0.5 12.952 0.5ZM5.88053 11.4286C5.18124 11.4286 4.49764 11.2212 3.9162 10.8327C3.33475 10.4442 2.88157 9.89198 2.61396 9.24592C2.34635 8.59985 2.27633 7.88893 2.41276 7.20307C2.54918 6.51721 2.88593 5.88721 3.38041 5.39273C3.87488 4.89825 4.50489 4.56151 5.19075 4.42508C5.87661 4.28865 6.58753 4.35867 7.23359 4.62628C7.87966 4.89389 8.43186 5.34707 8.82037 5.92852C9.20888 6.50996 9.41625 7.19356 9.41625 7.89286C9.41518 8.83026 9.04233 9.72897 8.37949 10.3918C7.71664 11.0547 6.81794 11.4275 5.88053 11.4286Z" fill="#4F4B55"/>
</svg>
