<svg width="23" height="17" viewBox="0 0 23 17" fill="none" xmlns="http://www.w3.org/2000/svg">
<path fill-rule="evenodd" clip-rule="evenodd" d="M7.83333 14.8095L15.1667 16.9064V15.0855C15.1113 15.0872 15.0558 15.088 15 15.088C11.9624 15.088 9.5 12.6256 9.5 9.58802C9.5 6.55046 11.9624 4.08802 15 4.08802C15.0558 4.08802 15.1113 4.08885 15.1667 4.0905V2.19005L7.83333 0.0931727V14.8095ZM16.3889 14.9112C18.754 14.2958 20.5 12.1458 20.5 9.58802C20.5 7.03025 18.754 4.88027 16.3889 4.26489V2.09838L21.2434 0.154284C21.8469 -0.0863413 22.5 0.356714 22.5 1.00602V13.7935C22.5 14.1678 22.2708 14.5039 21.9233 14.6453L16.3889 16.8567V14.9112ZM6.61111 0.142825L1.07674 2.35428C0.729167 2.4956 0.5 2.83171 0.5 3.20602V15.9935C0.5 16.6428 1.15313 17.0859 1.7566 16.8453L6.61111 14.905V0.142825Z" fill="#4F4B55"/>
<path d="M17.5225 10.2254L18.3923 8.93577C18.529 8.73312 18.4751 8.45547 18.2724 8.31878L13.8509 5.33642C13.6482 5.19973 13.3706 5.2537 13.2339 5.45635L10.7486 9.14096C10.6119 9.34362 10.6659 9.62126 10.8685 9.75795L15.2901 12.7403C15.4927 12.877 15.7704 12.823 15.907 12.6204L16.7769 11.3308L17.2566 13.7987L19.9905 9.74566L17.5225 10.2254Z" fill="#4F4B55"/>
</svg>
