<svg width="23" height="19" viewBox="0 0 23 19" fill="none" xmlns="http://www.w3.org/2000/svg">
<path d="M22.3631 18.5565H12.3633V17.4454H22.3631V18.5565ZM15.141 12.4455H12.9188V16.3343H15.141V12.4455ZM18.4743 8.55664H16.2521V16.3343H18.4743V8.55664ZM21.8076 10.2233H19.5854V16.3343H21.8076V10.2233Z" fill="#4F4B55"/>
<path fill-rule="evenodd" clip-rule="evenodd" d="M8.07284 1.51386C7.42367 2.16303 7.05898 3.04348 7.05898 3.96154C7.05898 4.8796 7.42367 5.76005 8.07284 6.40922C8.722 7.05838 9.60246 7.42308 10.5205 7.42308C11.4386 7.42308 12.319 7.05838 12.9682 6.40922C13.6174 5.76005 13.9821 4.8796 13.9821 3.96154C13.9821 3.04348 13.6174 2.16303 12.9682 1.51386C12.319 0.864697 11.4386 0.5 10.5205 0.5C9.60246 0.5 8.722 0.864697 8.07284 1.51386ZM6.97498 9.41601C7.36448 9.02651 7.89276 8.80769 8.44359 8.80769H12.5974C13.1483 8.80769 13.6765 9.02651 14.066 9.41601C14.1742 9.52412 14.2691 9.64293 14.3499 9.76995C12.103 10.6912 10.5205 12.9003 10.5205 15.4791C10.5205 16.5487 10.7927 17.5546 11.2717 18.4315C11.0256 18.4768 10.7742 18.5 10.5205 18.5C9.41885 18.5 8.3623 18.0624 7.5833 17.2834C6.8043 16.5044 6.36667 15.4478 6.36667 14.3462V10.8846C6.36667 10.3338 6.58549 9.80551 6.97498 9.41601ZM4.98205 10.8846C4.98168 10.6379 5.00767 10.3919 5.05959 10.1508L2.3679 10.8708C2.10442 10.9413 1.85742 11.0631 1.641 11.2291C1.42458 11.3951 1.24297 11.6021 1.10655 11.8383C0.970135 12.0745 0.881577 12.3352 0.845934 12.6056C0.810292 12.876 0.828263 13.1508 0.898822 13.4143L1.43744 15.422C1.72269 16.4857 2.41864 17.3925 3.37231 17.9432C4.32598 18.4939 5.4593 18.6434 6.52313 18.3588L6.66159 18.32C6.13002 17.8037 5.70748 17.1859 5.41899 16.5033C5.13049 15.8207 4.98191 15.0872 4.98205 14.3462V10.8846ZM1.6393 4.08032C1.11996 4.59965 0.828207 5.30402 0.828207 6.03846C0.828207 6.77291 1.11996 7.47727 1.6393 7.9966C2.15863 8.51594 2.86299 8.80769 3.59744 8.80769C4.33188 8.80769 5.03625 8.51594 5.55558 7.9966C6.07491 7.47727 6.36667 6.77291 6.36667 6.03846C6.36667 5.30402 6.07491 4.59965 5.55558 4.08032C5.03625 3.56099 4.33188 3.26923 3.59744 3.26923C2.86299 3.26923 2.15863 3.56099 1.6393 4.08032Z" fill="#4F4B55"/>
</svg>
