<svg width="23" height="19" viewBox="0 0 23 19" fill="none" xmlns="http://www.w3.org/2000/svg">
<path d="M22.6795 18.2166H12.6797V17.1055H22.6795V18.2166ZM15.4574 12.1056H13.2352V15.9944H15.4574V12.1056ZM18.7907 8.2168H16.5685V15.9944H18.7907V8.2168ZM22.124 9.88344H19.9018V15.9944H22.124V9.88344Z" fill="#4F4B55"/>
<path fill-rule="evenodd" clip-rule="evenodd" d="M7.58838 1.01385C6.93922 1.66301 6.57453 2.54345 6.57453 3.4615C6.57453 4.37955 6.93922 5.25999 7.58838 5.90915C8.23754 6.55831 9.11798 6.923 10.036 6.923C10.9541 6.923 11.8345 6.55831 12.4837 5.90915C13.1328 5.25999 13.4975 4.37955 13.4975 3.4615C13.4975 2.54345 13.1328 1.66301 12.4837 1.01385C11.8345 0.364693 10.9541 0 10.036 0C9.11798 0 8.23754 0.364693 7.58838 1.01385ZM6.49054 8.91591C6.88004 8.52642 7.4083 8.3076 7.95913 8.3076H12.1129C12.6638 8.3076 13.192 8.52642 13.5815 8.91591C13.6896 9.02402 13.7846 9.14283 13.8654 9.26984C11.6185 10.1911 10.036 12.4002 10.036 14.9789C10.036 16.0485 10.3082 17.0545 10.7872 17.9313C10.5411 17.9766 10.2898 17.9998 10.036 17.9998C8.93437 17.9998 7.87784 17.5622 7.09885 16.7832C6.31986 16.0042 5.88223 14.9477 5.88223 13.846V10.3845C5.88223 9.83367 6.10105 9.3054 6.49054 8.91591ZM4.49763 10.3845C4.49726 10.1378 4.52325 9.89181 4.57517 9.65066L1.88351 10.3707C1.62003 10.4412 1.37303 10.5629 1.15661 10.7289C0.940194 10.8949 0.758591 11.102 0.622175 11.3381C0.485759 11.5743 0.397201 11.8351 0.361559 12.1055C0.325917 12.3759 0.343888 12.6507 0.414447 12.9142L0.953056 14.9218C1.2383 15.9855 1.93425 16.8923 2.8879 17.443C3.84156 17.9937 4.97487 18.1432 6.03869 17.8586L6.17715 17.8198C5.64559 17.3035 5.22305 16.6857 4.93456 16.0032C4.64607 15.3206 4.49749 14.587 4.49763 13.846V10.3845ZM1.15491 3.58028C0.635586 4.09961 0.343832 4.80396 0.343832 5.5384C0.343832 6.27284 0.635586 6.9772 1.15491 7.49652C1.67424 8.01585 2.37859 8.3076 3.11303 8.3076C3.84747 8.3076 4.55183 8.01585 5.07115 7.49652C5.59048 6.9772 5.88223 6.27284 5.88223 5.5384C5.88223 4.80396 5.59048 4.09961 5.07115 3.58028C4.55183 3.06095 3.84747 2.7692 3.11303 2.7692C2.37859 2.7692 1.67424 3.06095 1.15491 3.58028ZM15.0009 2.61907C14.4816 3.1384 14.1898 3.84276 14.1898 4.57719C14.1898 5.31163 14.4816 6.01599 15.0009 6.53531C15.5202 7.05464 16.2246 7.34639 16.959 7.34639C17.6935 7.34639 18.3978 7.05464 18.9172 6.53531C19.4365 6.01599 19.7282 5.31163 19.7282 4.57719C19.7282 3.84276 19.4365 3.1384 18.9172 2.61907C18.3978 2.09975 17.6935 1.80799 16.959 1.80799C16.2246 1.80799 15.5202 2.09975 15.0009 2.61907Z" fill="#4F4B55"/>
</svg>
