<svg width="21" height="25" viewBox="0 0 21 25" fill="none" xmlns="http://www.w3.org/2000/svg">
<path d="M1.875 13.25C2.17337 13.25 2.45952 13.1315 2.6705 12.9205C2.88147 12.7095 3 12.4234 3 12.125C3 11.8266 2.88147 11.5405 2.6705 11.3295C2.45952 11.1185 2.17337 11 1.875 11H1.125C0.826631 11 0.540483 11.1185 0.329505 11.3295C0.118526 11.5405 0 11.8266 0 12.125C0 12.4234 0.118526 12.7095 0.329505 12.9205C0.540483 13.1315 0.826631 13.25 1.125 13.25H1.875ZM7.5 12.125C7.5 12.4234 7.38147 12.7095 7.1705 12.9205C6.95952 13.1315 6.67337 13.25 6.375 13.25H5.625C5.32663 13.25 5.04048 13.1315 4.8295 12.9205C4.61853 12.7095 4.5 12.4234 4.5 12.125C4.5 11.8266 4.61853 11.5405 4.8295 11.3295C5.04048 11.1185 5.32663 11 5.625 11H6.375C6.67337 11 6.95952 11.1185 7.1705 11.3295C7.38147 11.5405 7.5 11.8266 7.5 12.125ZM10.875 13.25C11.1734 13.25 11.4595 13.1315 11.6705 12.9205C11.8815 12.7095 12 12.4234 12 12.125C12 11.8266 11.8815 11.5405 11.6705 11.3295C11.4595 11.1185 11.1734 11 10.875 11H10.125C9.82663 11 9.54048 11.1185 9.3295 11.3295C9.11853 11.5405 9 11.8266 9 12.125C9 12.4234 9.11853 12.7095 9.3295 12.9205C9.54048 13.1315 9.82663 13.25 10.125 13.25H10.875ZM16.5 12.125C16.5 12.4234 16.3815 12.7095 16.1705 12.9205C15.9595 13.1315 15.6734 13.25 15.375 13.25H14.625C14.3266 13.25 14.0405 13.1315 13.8295 12.9205C13.6185 12.7095 13.5 12.4234 13.5 12.125C13.5 11.8266 13.6185 11.5405 13.8295 11.3295C14.0405 11.1185 14.3266 11 14.625 11H15.375C15.6734 11 15.9595 11.1185 16.1705 11.3295C16.3815 11.5405 16.5 11.8266 16.5 12.125ZM19.875 13.25C20.1734 13.25 20.4595 13.1315 20.6705 12.9205C20.8815 12.7095 21 12.4234 21 12.125C21 11.8266 20.8815 11.5405 20.6705 11.3295C20.4595 11.1185 20.1734 11 19.875 11H19.125C18.8266 11 18.5405 11.1185 18.3295 11.3295C18.1185 11.5405 18 11.8266 18 12.125C18 12.4234 18.1185 12.7095 18.3295 12.9205C18.5405 13.1315 18.8266 13.25 19.125 13.25H19.875Z" fill="#9155FD"/>
<path d="M6.37383 5.09375L9.59283 5.09375L9.59283 6.96875C9.59283 7.26712 9.71136 7.55327 9.92233 7.76424C10.1333 7.97522 10.4195 8.09375 10.7178 8.09375C11.0162 8.09375 11.3023 7.97522 11.5133 7.76424C11.7243 7.55327 11.8428 7.26712 11.8428 6.96875L11.8428 5.09375L15.0618 5.09375C15.1361 5.09388 15.2087 5.07196 15.2705 5.03077C15.3323 4.98957 15.3805 4.93095 15.4089 4.86235C15.4374 4.79374 15.4448 4.71824 15.4303 4.64541C15.4157 4.57258 15.3799 4.5057 15.3273 4.45325L10.9833 0.10925C10.9485 0.0743271 10.9071 0.04662 10.8616 0.0277153C10.816 0.00881059 10.7672 -0.000920704 10.7178 -0.000920708C10.6685 -0.000920713 10.6197 0.00881058 10.5741 0.0277153C10.5285 0.0466199 10.4872 0.074327 10.4523 0.10925L6.10833 4.45325C6.05575 4.5057 6.01993 4.57257 6.0054 4.64541C5.99088 4.71824 5.9983 4.79374 6.02674 4.86235C6.05518 4.93095 6.10335 4.98957 6.16514 5.03076C6.22693 5.07196 6.29956 5.09388 6.37383 5.09375Z" fill="#9155FD"/>
<path d="M15.0637 19H11.8447V17.125C11.8447 16.8266 11.7261 16.5405 11.5152 16.3295C11.3042 16.1185 11.018 16 10.7197 16C10.4213 16 10.1352 16.1185 9.92418 16.3295C9.7132 16.5405 9.59467 16.8266 9.59467 17.125V19H6.37567C6.30141 18.9999 6.22877 19.0218 6.16698 19.063C6.10519 19.1042 6.05702 19.1628 6.02858 19.2314C6.00014 19.3 5.99272 19.3755 6.00724 19.4483C6.02177 19.5212 6.05759 19.5881 6.11017 19.6405L10.4542 23.9845C10.489 24.0194 10.5304 24.0471 10.5759 24.066C10.6215 24.0849 10.6703 24.0947 10.7197 24.0947C10.769 24.0947 10.8178 24.0849 10.8634 24.066C10.909 24.0471 10.9503 24.0194 10.9852 23.9845L15.3292 19.6405C15.3818 19.5881 15.4176 19.5212 15.4321 19.4483C15.4466 19.3755 15.4392 19.3 15.4108 19.2314C15.3823 19.1628 15.3342 19.1042 15.2724 19.063C15.2106 19.0218 15.1379 18.9999 15.0637 19Z" fill="#9155FD"/>
</svg>
