<svg width="23" height="16" viewBox="0 0 23 16" fill="none" xmlns="http://www.w3.org/2000/svg">
<path d="M22.2143 5H12.7857C12.3536 5 12 5.45 12 6V8C12 8.55 12.3536 9 12.7857 9H22.2143C22.6464 9 23 8.55 23 8V6C23 5.45 22.6464 5 22.2143 5Z" fill="#FCC40B"/>
<path d="M7 8C9.20938 8 11 6.20937 11 4C11 1.79063 9.20938 0 7 0C4.79063 0 3 1.79063 3 4C3 6.20937 4.79063 8 7 8ZM9.8 9H9.27812C8.58437 9.31875 7.8125 9.5 7 9.5C6.1875 9.5 5.41875 9.31875 4.72188 9H4.2C1.88125 9 0 10.8813 0 13.2V14.5C0 15.3281 0.671875 16 1.5 16H12.5C13.3281 16 14 15.3281 14 14.5V13.2C14 10.8813 12.1187 9 9.8 9Z" fill="white"/>
</svg>
