<svg width="22" height="16" viewBox="0 0 22 16" fill="none" xmlns="http://www.w3.org/2000/svg">
<path d="M7 8C9.20938 8 11 6.20937 11 4C11 1.79063 9.20938 0 7 0C4.79063 0 3 1.79063 3 4C3 6.20937 4.79063 8 7 8ZM9.8 9H9.27812C8.58437 9.31875 7.8125 9.5 7 9.5C6.1875 9.5 5.41875 9.31875 4.72188 9H4.2C1.88125 9 0 10.8813 0 13.2V14.5C0 15.3281 0.671875 16 1.5 16H12.5C13.3281 16 14 15.3281 14 14.5V13.2C14 10.8813 12.1187 9 9.8 9Z" fill="white"/>
<path d="M21.2143 5.92857H18.0714V2.78571C18.0714 2.35357 17.7179 2 17.2857 2H15.7143C15.2821 2 14.9286 2.35357 14.9286 2.78571V5.92857H11.7857C11.3536 5.92857 11 6.28214 11 6.71429V8.28571C11 8.71786 11.3536 9.07143 11.7857 9.07143H14.9286V12.2143C14.9286 12.6464 15.2821 13 15.7143 13H17.2857C17.7179 13 18.0714 12.6464 18.0714 12.2143V9.07143H21.2143C21.6464 9.07143 22 8.71786 22 8.28571V6.71429C22 6.28214 21.6464 5.92857 21.2143 5.92857Z" fill="#64FF27"/>
</svg>
