<svg width="21" height="20" viewBox="0 0 21 20" fill="none" xmlns="http://www.w3.org/2000/svg">
<path d="M2 2V16H11V18H1C0.734784 18 0.48043 17.8946 0.292893 17.7071C0.105357 17.5196 0 17.2652 0 17V1C0 0.734784 0.105357 0.48043 0.292893 0.292893C0.48043 0.105357 0.734784 0 1 0H19C19.2652 0 19.5196 0.105357 19.7071 0.292893C19.8946 0.48043 20 0.734784 20 1V6H18V2H2ZM17.707 8.293L17 7.586L16.293 8.293L13.293 11.293L14.707 12.707L17 10.414L19.293 12.707L20.707 11.293L17.707 8.293ZM14.707 14.293L17 16.586L19.293 14.293L20.707 15.707L17.707 18.707L17 19.414L16.293 18.707L13.293 15.707L14.707 14.293Z" fill="#9155FD"/>
</svg>
