<svg width="18" height="18" viewBox="0 0 18 18" fill="none" xmlns="http://www.w3.org/2000/svg">
<path d="M15.1584 0L18.0023 2.8439L15.8343 5.01285L12.9904 2.16895L15.1584 0ZM4.74219 13.2602H7.58609L14.4939 6.35233L11.65 3.50842L4.74219 10.4163V13.2602Z" fill="#F3F3F3"/>
<path d="M15.1675 16.104H4.88961C4.86497 16.104 4.83937 16.1135 4.81472 16.1135C4.78344 16.1135 4.75216 16.1049 4.71993 16.104H1.89593V2.83246H8.38666L10.2826 0.936523H1.89593C0.850326 0.936523 0 1.7859 0 2.83246V16.104C0 17.1505 0.850326 17.9999 1.89593 17.9999H15.1675C15.6703 17.9999 16.1525 17.8002 16.5081 17.4446C16.8637 17.0891 17.0634 16.6068 17.0634 16.104V7.88702L15.1675 9.78295V16.104Z" fill="#F3F3F3"/>
</svg>
