<svg width="70" height="22" viewBox="0 0 70 22" fill="none" xmlns="http://www.w3.org/2000/svg">
<rect x="0.5" y="0.5" width="69" height="21" rx="4.5" stroke="#9155FD"/>
<path d="M1 0H36V21H1V0Z" fill="#F28A6A"/>
<path d="M14.5798 11.2727C14.5798 12.2914 14.389 13.1639 14.0074 13.8903C13.6288 14.6135 13.1118 15.1675 12.4562 15.5522C11.8038 15.9369 11.0636 16.1293 10.2357 16.1293C9.40781 16.1293 8.6661 15.9369 8.01056 15.5522C7.35809 15.1644 6.84105 14.6089 6.45942 13.8857C6.08087 13.1593 5.89159 12.2884 5.89159 11.2727C5.89159 10.254 6.08087 9.38305 6.45942 8.6598C6.84105 7.93348 7.35809 7.37796 8.01056 6.99325C8.6661 6.60855 9.40781 6.41619 10.2357 6.41619C11.0636 6.41619 11.8038 6.60855 12.4562 6.99325C13.1118 7.37796 13.6288 7.93348 14.0074 8.6598C14.389 9.38305 14.5798 10.254 14.5798 11.2727ZM12.8579 11.2727C12.8579 10.5556 12.7455 9.95088 12.5209 9.45845C12.2993 8.96295 11.9915 8.58902 11.5976 8.33665C11.2036 8.0812 10.7497 7.95348 10.2357 7.95348C9.72173 7.95348 9.26778 8.0812 8.87384 8.33665C8.4799 8.58902 8.17059 8.96295 7.94593 9.45845C7.72433 9.95088 7.61354 10.5556 7.61354 11.2727C7.61354 11.9898 7.72433 12.5961 7.94593 13.0916C8.17059 13.584 8.4799 13.958 8.87384 14.2134C9.26778 14.4658 9.72173 14.592 10.2357 14.592C10.7497 14.592 11.2036 14.4658 11.5976 14.2134C11.9915 13.958 12.2993 13.584 12.5209 13.0916C12.7455 12.5961 12.8579 11.9898 12.8579 11.2727ZM16.349 16V6.54545H22.4059V7.98118H18.0617V10.5479H21.9904V11.9837H18.0617V16H16.349ZM24.1162 16V6.54545H30.173V7.98118H25.8289V10.5479H29.7576V11.9837H25.8289V16H24.1162Z" fill="white"/>
<path d="M51.4541 11.2727C51.4541 12.2914 51.2633 13.1639 50.8817 13.8903C50.5031 14.6135 49.9861 15.1675 49.3305 15.5522C48.6781 15.9369 47.9379 16.1293 47.11 16.1293C46.2821 16.1293 45.5404 15.9369 44.8849 15.5522C44.2324 15.1644 43.7154 14.6089 43.3337 13.8857C42.9552 13.1593 42.7659 12.2884 42.7659 11.2727C42.7659 10.254 42.9552 9.38305 43.3337 8.6598C43.7154 7.93348 44.2324 7.37796 44.8849 6.99325C45.5404 6.60855 46.2821 6.41619 47.11 6.41619C47.9379 6.41619 48.6781 6.60855 49.3305 6.99325C49.9861 7.37796 50.5031 7.93348 50.8817 8.6598C51.2633 9.38305 51.4541 10.254 51.4541 11.2727ZM49.7322 11.2727C49.7322 10.5556 49.6198 9.95088 49.3952 9.45845C49.1736 8.96295 48.8658 8.58902 48.4719 8.33665C48.0779 8.0812 47.624 7.95348 47.11 7.95348C46.596 7.95348 46.1421 8.0812 45.7482 8.33665C45.3542 8.58902 45.0449 8.96295 44.8202 9.45845C44.5987 9.95088 44.4879 10.5556 44.4879 11.2727C44.4879 11.9898 44.5987 12.5961 44.8202 13.0916C45.0449 13.584 45.3542 13.958 45.7482 14.2134C46.1421 14.4658 46.596 14.592 47.11 14.592C47.624 14.592 48.0779 14.4658 48.4719 14.2134C48.8658 13.958 49.1736 13.584 49.3952 13.0916C49.6198 12.5961 49.7322 11.9898 49.7322 11.2727ZM60.9929 6.54545V16H59.4694L55.0145 9.56001H54.9361V16H53.2233V6.54545H54.756L59.2063 12.9901H59.2894V6.54545H60.9929Z" fill="#AFA8BA"/>
</svg>
