<svg width="14" height="18" viewBox="0 0 14 18" fill="none" xmlns="http://www.w3.org/2000/svg">
<path d="M6.95455 18C6.95455 18 0 9.783 0 6.3C-1.3609e-08 5.47267 0.179885 4.65345 0.529383 3.88909C0.878882 3.12474 1.39115 2.43024 2.03694 1.84523C2.68273 1.26022 3.44939 0.796164 4.29316 0.479559C5.13692 0.162954 6.04126 0 6.95455 0C7.86783 0 8.77217 0.162954 9.61594 0.479559C10.4597 0.796164 11.2264 1.26022 11.8722 1.84523C12.5179 2.43024 13.0302 3.12474 13.3797 3.88909C13.7292 4.65345 13.9091 5.47267 13.9091 6.3C13.9091 9.783 6.95455 18 6.95455 18ZM6.95455 8.1C7.48153 8.1 7.98694 7.91036 8.35958 7.57279C8.73221 7.23523 8.94156 6.77739 8.94156 6.3C8.94156 5.82261 8.73221 5.36477 8.35958 5.02721C7.98694 4.68964 7.48153 4.5 6.95455 4.5C6.42756 4.5 5.92215 4.68964 5.54952 5.02721C5.17688 5.36477 4.96753 5.82261 4.96753 6.3C4.96753 6.77739 5.17688 7.23523 5.54952 7.57279C5.92215 7.91036 6.42756 8.1 6.95455 8.1Z" fill="#9155FD"/>
</svg>
