<svg width="69" height="81" viewBox="0 0 69 81" fill="none" xmlns="http://www.w3.org/2000/svg">
<path fill-rule="evenodd" clip-rule="evenodd" d="M58.8952 10.1048C52.4252 3.63481 43.65 0 34.5 0C25.35 0 16.5748 3.63481 10.1048 10.1048C3.63481 16.5748 0 25.35 0 34.5C0 48.783 10.8867 63.7483 32.2 79.7333C32.8635 80.231 33.6706 80.5 34.5 80.5C35.3294 80.5 36.1365 80.231 36.8 79.7333C58.1133 63.7483 69 48.783 69 34.5C69 25.35 65.3652 16.5748 58.8952 10.1048Z" fill="#378100"/>
<path d="M28.5 36C30.9853 36 33 33.9853 33 31.5C33 29.0147 30.9853 27 28.5 27C26.0147 27 24 29.0147 24 31.5C24 33.9853 26.0147 36 28.5 36Z" fill="#BAC588" fill-opacity="0.48"/>
<path d="M33.625 38.5C31.865 37.6062 29.9225 37.25 28.5 37.25C25.7137 37.25 20 38.9588 20 42.375V45H29.375V43.9956C29.375 42.8081 29.875 41.6175 30.75 40.625C31.4481 39.8325 32.4256 39.0969 33.625 38.5Z" fill="#BAC588" fill-opacity="0.48"/>
<path d="M40.25 38C36.9956 38 30.5 40.01 30.5 44V47H50V44C50 40.01 43.5044 38 40.25 38Z" fill="#BAC588"/>
<path d="M40.25 36C43.2876 36 45.75 33.5376 45.75 30.5C45.75 27.4624 43.2876 25 40.25 25C37.2124 25 34.75 27.4624 34.75 30.5C34.75 33.5376 37.2124 36 40.25 36Z" fill="#BAC588"/>
</svg>
