<svg width="30" height="33" viewBox="0 0 30 33" fill="none" xmlns="http://www.w3.org/2000/svg">
<path d="M30.0013 32.2316H13.1719V30.3617H30.0013V32.2316ZM17.8467 21.9471H14.1068V28.4918H17.8467V21.9471ZM23.4565 15.4023H19.7167V28.4918H23.4565V15.4023ZM29.0664 18.2072H25.3265V28.4918H29.0664V18.2072Z" fill="#717171"/>
<path fill-rule="evenodd" clip-rule="evenodd" d="M21.6949 3.17907H26.516C27.8418 3.17907 28.9265 4.26381 28.9265 5.58959V15.4026H26.516V12.8211H2.41054V29.6948H11.7078V32.1053H2.41054C1.08474 32.1053 0 31.0206 0 29.6948V5.58959C0 4.26381 1.08474 3.17907 2.41054 3.17907H7.23163V0.768555H9.64217V3.17907H19.2843V0.768555H21.6949V3.17907ZM2.41054 10.4106H26.516V5.58959H21.6949V8.00011H19.2843V5.58959H9.64217V8.00011H7.23163V5.58959H2.41054V10.4106Z" fill="#717171"/>
</svg>
