<svg width="30" height="31" viewBox="0 0 30 31" fill="none" xmlns="http://www.w3.org/2000/svg">
<path d="M26.667 0.5C27.5509 0.500086 28.3984 0.851518 29.0234 1.47656C29.6485 2.10161 29.9999 2.94907 30 3.83301V12.3408C28.9876 11.7549 27.8638 11.3415 26.667 11.1406V3.83301H3.33301V27.167H17.1309C18.3364 28.7031 19.9804 29.877 21.876 30.5H3.33301C2.44907 30.4999 1.60161 30.1485 0.976562 29.5234C0.351518 28.8984 8.63654e-05 28.0509 0 27.167V3.83301C8.6176e-05 2.94907 0.351518 2.10161 0.976562 1.47656C1.60161 0.851518 2.44907 0.500086 3.33301 0.5H26.667ZM10 23.833H6.66699V15.5H10V23.833ZM16.667 15.4727C15.6145 17.0562 15 18.9561 15 21C15 21.9842 15.1442 22.9346 15.4092 23.833H13.333V7.16699H16.667V15.4727ZM20.3115 12.167C20.2064 12.2229 20.1028 12.2813 20 12.3408V12.167H20.3115Z" fill="#757575"/>
<path d="M24 13C20.6876 13 18 15.4479 18 18.4643C18 23.3214 24 30 24 30C24 30 30 23.3214 30 18.4643C30 15.4479 27.3124 13 24 13ZM24 21.5C23.5253 21.5 23.0613 21.3576 22.6666 21.0907C22.272 20.8239 21.9643 20.4446 21.7827 20.0008C21.601 19.557 21.5535 19.0687 21.6461 18.5976C21.7387 18.1265 21.9673 17.6938 22.3029 17.3542C22.6386 17.0145 23.0662 16.7832 23.5318 16.6895C23.9973 16.5958 24.4799 16.6439 24.9184 16.8277C25.357 17.0115 25.7318 17.3228 25.9955 17.7222C26.2592 18.1216 26.4 18.5911 26.4 19.0714C26.3993 19.7153 26.1462 20.3326 25.6963 20.7879C25.2464 21.2432 24.6363 21.4993 24 21.5Z" fill="#757575"/>
</svg>
