<svg width="161" height="148" viewBox="0 0 161 148" fill="none" xmlns="http://www.w3.org/2000/svg">
<path d="M-25.6153 290L-31.4262 243.6C-34.5738 242.392 -37.5422 240.942 -40.3315 239.25C-43.1207 237.558 -45.8422 235.746 -48.4959 233.812L-91.7148 251.938L-131.665 183.062L-94.2571 154.788C-94.4992 153.096 -94.6203 151.462 -94.6203 149.887V140.113C-94.6203 138.538 -94.4992 136.904 -94.2571 135.212L-131.665 106.938L-91.7148 38.0625L-48.4959 56.1875C-45.8325 54.2542 -43.0481 52.4417 -40.1426 50.75C-37.2372 49.0583 -34.3317 47.6083 -31.4262 46.4L-25.6153 0H54.2852L60.0962 46.4C63.2438 47.6083 66.2122 49.0583 69.0014 50.75C71.7907 52.4417 74.5122 54.2542 77.1658 56.1875L120.385 38.0625L160.335 106.938L122.927 135.212C123.169 136.904 123.29 138.538 123.29 140.113V149.887C123.29 151.462 123.048 153.096 122.564 154.788L159.972 183.062L120.022 251.938L77.1658 233.812C74.5025 235.746 71.7181 237.558 68.8126 239.25C65.9071 240.942 63.0016 242.392 60.0962 243.6L54.2852 290H-25.6153ZM15.0614 195.75C29.1045 195.75 41.0895 190.796 51.0166 180.888C60.9436 170.979 65.9071 159.017 65.9071 145C65.9071 130.983 60.9436 119.021 51.0166 109.112C41.0895 99.2042 29.1045 94.25 15.0614 94.25C0.776108 94.25 -11.2719 99.2042 -21.0827 109.112C-30.8935 119.021 -35.7941 130.983 -35.7844 145C-35.7844 159.017 -30.8839 170.979 -21.0827 180.888C-11.2816 190.796 0.766418 195.75 15.0614 195.75Z" fill="#544E5B" fill-opacity="0.07"/>
</svg>
