<svg width="25" height="18" viewBox="0 0 25 18" fill="none" xmlns="http://www.w3.org/2000/svg">
<path d="M17.0455 0C17.3468 0 17.6359 0.118527 17.849 0.329505C18.0621 0.540483 18.1818 0.826631 18.1818 1.125V5.85L24.1057 1.74375C24.1909 1.68464 24.2908 1.64981 24.3946 1.64306C24.4984 1.63632 24.6021 1.65791 24.6943 1.70549C24.7866 1.75308 24.8639 1.82482 24.9178 1.9129C24.9717 2.00098 25.0001 2.10202 25 2.205V15.795C25.0001 15.898 24.9717 15.999 24.9178 16.0871C24.8639 16.1752 24.7866 16.2469 24.6943 16.2945C24.6021 16.3421 24.4984 16.3637 24.3946 16.3569C24.2908 16.3502 24.1909 16.3154 24.1057 16.2563L18.1818 12.15V16.875C18.1818 17.1734 18.0621 17.4595 17.849 17.6705C17.6359 17.8815 17.3468 18 17.0455 18H1.13636C0.834981 18 0.545943 17.8815 0.332833 17.6705C0.119724 17.4595 0 17.1734 0 16.875V1.125C0 0.826631 0.119724 0.540483 0.332833 0.329505C0.545943 0.118527 0.834981 0 1.13636 0H17.0455Z" fill="white"/>
<path d="M7.83333 3H9.72222V5.83333H12.5556V7.72222H9.72222V10.5556H7.83333V7.72222H5V5.83333H7.83333V3ZM5 12.4444H12.5556V14.3333H5V12.4444Z" fill="#9155FD"/>
<path d="M7.83333 3H9.72222V5.83333H12.5556V7.72222H9.72222V10.5556H7.83333V7.72222H5V5.83333H7.83333V3ZM5 12.4444H12.5556V14.3333H5V12.4444Z" fill="#9155FD"/>
</svg>
