<svg width="35" height="32" viewBox="0 0 35 32" fill="none" xmlns="http://www.w3.org/2000/svg">
<path d="M6.00902 2.43967C6.26079 2.13522 6.38131 1.74323 6.34406 1.34993C6.30682 0.956623 6.11486 0.594223 5.81042 0.342451C5.50597 0.0906796 5.11398 -0.0298405 4.72068 0.00740416C4.32737 0.0446488 3.96497 0.236607 3.7132 0.541051C1.89325 2.7418 0.629057 5.34784 0.0271907 8.13948C-0.0469107 8.522 0.0318263 8.91833 0.246518 9.24348C0.46121 9.56863 0.794761 9.79671 1.17565 9.87881C1.55653 9.96091 1.95443 9.8905 2.284 9.68267C2.61358 9.47484 2.8486 9.14614 2.93866 8.76706C3.44016 6.44231 4.4932 4.27221 6.00902 2.43967ZM31.2868 0.541051C31.035 0.236344 30.6725 0.0441329 30.279 0.00670196C29.8855 -0.0307289 29.4933 0.0896867 29.1886 0.341459C28.8839 0.59323 28.6917 0.955735 28.6542 1.34923C28.6168 1.74272 28.7372 2.13496 28.989 2.43967C30.5055 4.27201 31.5593 6.44213 32.0613 8.76706C32.1514 9.14614 32.3864 9.47484 32.716 9.68267C33.0456 9.8905 33.4435 9.96091 33.8244 9.87881C34.2052 9.79671 34.5388 9.56863 34.7535 9.24348C34.9682 8.91833 35.0469 8.522 34.9728 8.13948C34.3709 5.34786 33.1067 2.74184 31.2868 0.541051Z" fill="#ffee00" fill-opacity="0.76"/>
<path fill-rule="evenodd" clip-rule="evenodd" d="M17.4988 0.00280762C14.3385 0.00280762 11.3076 1.25824 9.07293 3.49292C6.83825 5.7276 5.58282 8.75848 5.58282 11.9188C5.58282 15.6664 4.68117 19.1975 3.08642 22.3135C2.98197 22.5176 2.92604 22.743 2.92298 22.9723C2.91993 23.2015 2.96984 23.4284 3.06881 23.6352C3.16779 23.842 3.31317 24.0231 3.49362 24.1645C3.67408 24.3059 3.88474 24.4038 4.10921 24.4504C6.24649 24.8944 8.40466 25.2311 10.5756 25.4593C10.7307 27.1884 11.5272 28.7968 12.8084 29.9682C14.0896 31.1396 15.7628 31.7892 17.4988 31.7892C19.2348 31.7892 20.908 31.1396 22.1892 29.9682C23.4704 28.7968 24.2669 27.1884 24.422 25.4593C26.5929 25.2312 28.7511 24.8944 30.8884 24.4504C31.1129 24.4038 31.3235 24.3059 31.504 24.1645C31.6844 24.0231 31.8298 23.842 31.9288 23.6352C32.0278 23.4284 32.0777 23.2015 32.0746 22.9723C32.0716 22.743 32.0156 22.5176 31.9112 22.3135C30.2647 19.0963 29.4089 15.5329 29.4148 11.9188C29.4148 8.75848 28.1594 5.7276 25.9247 3.49292C23.69 1.25824 20.6591 0.00280762 17.4988 0.00280762ZM17.4988 28.7998C16.5984 28.7996 15.7247 28.4935 15.0211 27.9317C14.3174 27.3699 13.8256 26.5856 13.6261 25.7076C16.2057 25.8578 18.7919 25.8578 21.3715 25.7076C21.1721 26.5856 20.6802 27.3699 19.9765 27.9317C19.2729 28.4935 18.3992 28.7996 17.4988 28.7998Z" fill="#ffee00"/>
</svg>
