<svg width="26" height="26" viewBox="0 0 26 26" fill="none" xmlns="http://www.w3.org/2000/svg">
<g clip-path="url(#clip0_47_116532)">
<path d="M13 24.375C19.2822 24.375 24.375 19.2822 24.375 13C24.375 6.71776 19.2822 1.625 13 1.625C6.71776 1.625 1.625 6.71776 1.625 13C1.625 19.2822 6.71776 24.375 13 24.375Z" fill="white"/>
<path d="M13 26C5.83172 26 0 20.1683 0 13C0 5.83172 5.83172 0 13 0C20.1683 0 26 5.83172 26 13C26 20.1683 20.1683 26 13 26ZM13 2.21203C7.05047 2.21203 2.21203 7.0525 2.21203 13C2.21203 18.9495 7.0525 23.788 13 23.788C18.9475 23.788 23.788 18.9495 23.788 13C23.788 7.05047 18.9495 2.21203 13 2.21203Z" fill="#DB4437"/>
<path d="M17.4688 12.3906H5.48438C5.14922 12.3906 4.875 12.6648 4.875 13V14.4219C4.875 14.757 5.14922 15.0312 5.48438 15.0312H17.4688C17.8039 15.0312 18.0781 14.757 18.0781 14.4219V13C18.0781 12.6648 17.8039 12.3906 17.4688 12.3906Z" fill="#2F2F2F"/>
<path d="M18.6471 14.6535C18.6105 15.0496 18.9091 14.9298 19.1996 14.9318C19.4413 14.9318 19.6648 14.9582 19.9024 14.9582C20.1259 14.9582 20.3046 14.8749 20.526 14.877C20.6885 14.879 21.0765 14.9196 21.1354 14.7104C21.1679 14.5966 21.1354 14.3996 21.1273 14.2798C21.0968 13.778 21.1334 13.2621 21.0602 12.7645C21.0379 12.608 20.9404 12.4618 20.7677 12.4455C20.658 12.4354 20.5504 12.4902 20.4407 12.5004C20.3371 12.5126 20.2477 12.476 20.1502 12.4679C19.9938 12.4557 19.811 12.3988 19.6424 12.3907C19.6302 12.3907 19.618 12.3907 19.6059 12.3887C19.549 12.3887 19.4941 12.3927 19.4434 12.411C19.2727 12.4679 19.2077 12.4862 19.0351 12.4638C18.9599 12.4537 18.7873 12.4415 18.7182 12.472C18.6694 12.4923 18.639 12.5329 18.6207 12.5816C18.5699 12.7137 18.6126 12.9168 18.6573 13.0163C18.7405 13.2093 18.6857 13.3941 18.6857 13.6013C18.6837 13.9527 18.6816 14.3062 18.6471 14.6535Z" fill="#ED6C30"/>
<path d="M12.1265 6.13465C12.618 7.78606 14.107 8.6534 15.7177 8.93981C16.191 9.02512 16.6724 9.07184 17.1538 9.10637C17.4118 9.12465 19.502 9.08199 18.8723 9.66293C18.6204 9.89449 18.2141 10.0956 18.0252 10.4043C17.9541 10.5181 17.9115 10.644 17.9196 10.7943C17.9521 11.4261 18.7768 11.7653 19.2968 11.8709C19.4065 11.8932 19.5893 11.942 19.7538 11.942C19.8777 11.942 19.9915 11.9136 20.0524 11.8201C20.1865 11.617 19.957 11.5154 19.8107 11.4261C19.5832 11.2859 19.4776 11.162 19.5385 10.8695C19.6645 10.2642 20.4749 10.2134 20.9624 10.1261C21.2651 10.0712 21.5718 9.97777 21.8379 9.82543C22.1568 9.64465 22.4188 9.38262 22.5305 8.99668C22.5671 8.87074 22.5834 8.74074 22.5874 8.61074C22.5996 8.08059 22.3559 7.54231 21.913 7.2559C21.2935 6.85574 20.5338 6.90246 19.8209 6.86793C19.7376 6.86387 19.6543 6.85981 19.571 6.85168C19.1445 6.81512 18.5655 6.64652 18.2405 6.36418C17.942 6.10418 18.0537 5.85637 18.2873 5.65934C18.5168 5.46637 18.8662 5.32418 19.0591 5.26934C19.3943 5.17793 19.7416 5.15356 20.089 5.15356C20.4424 5.15356 20.7979 5.17793 21.1493 5.17793H21.1554C21.2976 5.17793 21.4377 5.17387 21.5779 5.16371C22.303 5.10684 23.0262 4.80215 23.538 4.27605C23.6193 4.19277 23.6945 4.10543 23.7635 4.00996C24.2835 3.30105 24.3302 2.34434 23.538 1.8284C23.3755 1.72277 23.0343 1.54199 22.7601 1.54199C22.6524 1.54199 22.5529 1.57043 22.4777 1.64152C22.4026 1.71465 22.4371 1.84871 22.4838 1.94012C22.6301 2.22449 22.5834 2.46418 22.4107 2.60637C22.303 2.69574 22.1487 2.74855 21.9577 2.74855C21.8379 2.74855 21.7262 2.74043 21.6124 2.72824C21.2895 2.69168 20.9868 2.44793 20.7248 2.27527C20.483 2.1148 20.2474 1.94215 20.0016 1.7898C19.7762 1.65168 19.5426 1.52777 19.2887 1.44855C18.726 1.2698 18.0882 1.18652 17.4341 1.18652C16.8471 1.18652 16.2479 1.25355 15.6771 1.37949C15.1063 1.5034 14.566 1.68621 14.0927 1.91574C13.9729 1.97465 13.8571 2.04371 13.7434 2.1148C12.937 2.62668 12.3398 3.44527 12.1041 4.35934C11.9579 4.93012 11.9498 5.54152 12.1265 6.13465Z" fill="#78A3AD"/>
<path d="M22.622 20.8387L20.9097 22.547L3.37793 5.13309L5.09027 3.4248L22.622 20.8387Z" fill="#DB4437"/>
</g>
<defs>
<clipPath id="clip0_47_116532">
<rect width="26" height="26" fill="white"/>
</clipPath>
</defs>
</svg>
