<svg width="18" height="22" viewBox="0 0 18 22" fill="none" xmlns="http://www.w3.org/2000/svg">
<path d="M15.057 7.536L14.057 6.923C13.054 6.308 12.553 6 11.999 6C11.445 6 10.944 6.308 9.94102 6.923L8.94102 7.536C7.99202 8.118 7.51802 8.409 7.25902 8.878C6.99902 9.348 6.99902 9.913 6.99902 11.044V16.909C6.99902 18.838 6.99902 19.802 7.58502 20.401C8.17102 21 9.11302 21 10.999 21H12.999C14.885 21 15.827 21 16.413 20.4C16.999 19.802 16.999 18.838 16.999 16.91V11.044C16.999 9.913 16.999 9.347 16.739 8.878C16.479 8.409 16.006 8.118 15.057 7.536Z" stroke="#28243D" stroke-width="1.5" stroke-linecap="round" stroke-linejoin="round"/>
<path d="M10.9988 6.10789C10.3598 5.49489 9.97885 5.17289 9.49585 5.05189C8.93585 4.91089 8.34785 5.06889 7.17085 5.38489L5.99885 5.69889C4.88585 5.99889 4.32885 6.14689 3.94285 6.51589C3.55585 6.88589 3.40585 7.40989 3.10685 8.45889L1.55285 13.8969C1.04285 15.6849 0.786846 16.5789 1.22085 17.2839C1.59285 17.8889 3.08285 18.6339 4.49985 18.9999" stroke="#28243D" stroke-width="1.5" stroke-linecap="round" stroke-linejoin="round"/>
<path d="M11.494 8.9997C12.335 8.4397 13.082 7.5427 13.546 6.4267C14.504 4.1217 13.893 1.7567 12.183 1.1457C10.472 0.5337 8.30802 1.9057 7.35002 4.2107C7.19462 4.58228 7.07703 4.96856 6.99902 5.3637" stroke="#28243D" stroke-width="1.5" stroke-linecap="round" stroke-linejoin="round"/>
</svg>
