<svg width="24" height="20" viewBox="0 0 24 20" fill="none" xmlns="http://www.w3.org/2000/svg">
<path d="M4.09375 0.799805C3.14063 0.799805 2.22654 1.17843 1.55259 1.85239C0.878626 2.52635 0.5 3.44043 0.5 4.39355V15.6061C0.5 16.5592 0.878626 17.4733 1.55259 18.1472C2.22654 18.8212 3.14063 19.1998 4.09375 19.1998H19.9062C20.8594 19.1998 21.7735 18.8212 22.4474 18.1472C23.1214 17.4733 23.5 16.5592 23.5 15.6061V4.39355C23.5 3.44043 23.1214 2.52635 22.4474 1.85239C21.7735 1.17843 20.8594 0.799805 19.9062 0.799805H4.09375ZM1.9375 4.39355C1.9375 3.82168 2.16468 3.27323 2.56905 2.86886C2.97343 2.46448 3.52188 2.2373 4.09375 2.2373H19.9062C20.4781 2.2373 21.0266 2.46448 21.4309 2.86886C21.8353 3.27323 22.0625 3.82168 22.0625 4.39355V15.6061C22.0625 16.1779 21.8353 16.7264 21.4309 17.1308C21.0266 17.5351 20.4781 17.7623 19.9062 17.7623H4.09375C3.52188 17.7623 2.97343 17.5351 2.56905 17.1308C2.16468 16.7264 1.9375 16.1779 1.9375 15.6061V4.39355ZM8.55 6.5498V13.4498C8.55 13.5994 8.58892 13.7465 8.66293 13.8765C8.73694 14.0065 8.8435 14.115 8.97215 14.1914C9.10079 14.2678 9.24709 14.3094 9.39668 14.3122C9.54626 14.3149 9.69399 14.2787 9.82535 14.2071L16.1503 10.7571C16.2864 10.6829 16.4 10.5734 16.4791 10.4402C16.5582 10.3069 16.6 10.1548 16.6 9.9998C16.6 9.84482 16.5582 9.69271 16.4791 9.55945C16.4 9.42619 16.2864 9.31671 16.1503 9.24253L9.82535 5.79253C9.69399 5.72092 9.54626 5.6847 9.39668 5.68745C9.24709 5.69019 9.10079 5.7318 8.97215 5.80819C8.8435 5.88457 8.73694 5.99311 8.66293 6.12313C8.58892 6.25315 8.55 6.40019 8.55 6.5498Z" fill="#28243D"/>
</svg>
