<svg width="27" height="18" viewBox="0 0 27 18" fill="none" xmlns="http://www.w3.org/2000/svg">
<path d="M13.5 15.8996C19.8513 15.8996 25 8.99961 25 8.99961C25 8.99961 19.8513 2.09961 13.5 2.09961C7.14872 2.09961 2 8.99961 2 8.99961C2 8.99961 7.14872 15.8996 13.5 15.8996Z" fill="#B793F8" stroke="#9155FD" stroke-width="4" stroke-linejoin="round"/>
<path d="M13.5 11.8779C15.0878 11.8779 16.375 10.5907 16.375 9.00293C16.375 7.41512 15.0878 6.12793 13.5 6.12793C11.9122 6.12793 10.625 7.41512 10.625 9.00293C10.625 10.5907 11.9122 11.8779 13.5 11.8779Z" fill="#43CCF8" stroke="white" stroke-width="4" stroke-linejoin="round"/>
<path d="M14.5 12.2275C16.2259 12.2275 17.625 10.8284 17.625 9.10254C17.625 7.37666 16.2259 5.97754 14.5 5.97754C12.7741 5.97754 11.375 7.37666 11.375 9.10254C11.375 10.8284 12.7741 12.2275 14.5 12.2275Z" fill="#43CCF8" stroke="white" stroke-width="4" stroke-linejoin="round"/>
</svg>
