<svg width="30" height="30" viewBox="0 0 30 30" fill="none" xmlns="http://www.w3.org/2000/svg">
<circle cx="15" cy="15" r="14" fill="#EDE3FF" stroke="white" stroke-width="2"/>
<path d="M11.25 22.5H18.75H11.25Z" fill="#B68DFF"/>
<path d="M11.25 22.5H18.75" stroke="#9155FD" stroke-width="1.5" stroke-linecap="round" stroke-linejoin="round"/>
<path d="M7.5 18.75V9C7.5 8.60218 7.65804 8.22064 7.93934 7.93934C8.22064 7.65804 8.60218 7.5 9 7.5H21C21.3978 7.5 21.7794 7.65804 22.0607 7.93934C22.342 8.22064 22.5 8.60218 22.5 9V18.75C22.5 19.1478 22.342 19.5294 22.0607 19.8107C21.7794 20.092 21.3978 20.25 21 20.25H9C8.60218 20.25 8.22064 20.092 7.93934 19.8107C7.65804 19.5294 7.5 19.1478 7.5 18.75Z" fill="#B68DFF" stroke="#9155FD" stroke-width="1.5"/>
<path d="M13.9198 13.7036V14.2114H11.3588L11.3319 13.8208L12.8383 11.4453H13.3534L12.7968 12.3901L11.9887 13.7036H13.9198ZM13.4975 11.4453V15H12.8505V11.4453H13.4975ZM16.2524 11.416H16.3403V11.936H16.2988C16.1019 11.936 15.9285 11.9661 15.7788 12.0264C15.6307 12.0866 15.507 12.1712 15.4077 12.2803C15.3101 12.3877 15.236 12.5155 15.1855 12.6636C15.1351 12.8101 15.1099 12.9704 15.1099 13.1445V13.7207C15.1099 13.8558 15.1237 13.9746 15.1514 14.0771C15.1807 14.1781 15.2205 14.2635 15.271 14.3335C15.3231 14.4019 15.3833 14.4531 15.4517 14.4873C15.5216 14.5215 15.5981 14.5386 15.6812 14.5386C15.7642 14.5386 15.839 14.5215 15.9058 14.4873C15.9725 14.4531 16.0295 14.4051 16.0767 14.3433C16.1255 14.2798 16.1621 14.2057 16.1865 14.1211C16.2126 14.0365 16.2256 13.9437 16.2256 13.8428C16.2256 13.7435 16.2134 13.6515 16.189 13.5669C16.1646 13.4823 16.1287 13.4082 16.0815 13.3447C16.0343 13.2796 15.9757 13.23 15.9058 13.1958C15.8374 13.16 15.7593 13.1421 15.6714 13.1421C15.5575 13.1421 15.4557 13.1689 15.3662 13.2227C15.2767 13.2747 15.2059 13.3431 15.1538 13.4277C15.1017 13.5124 15.0732 13.6019 15.0684 13.6963L14.8511 13.5889C14.8592 13.4505 14.8885 13.3236 14.939 13.208C14.991 13.0924 15.0602 12.9915 15.1465 12.9053C15.2344 12.819 15.3377 12.7523 15.4565 12.7051C15.577 12.6579 15.7104 12.6343 15.8569 12.6343C16.0262 12.6343 16.1743 12.6668 16.3013 12.7319C16.4282 12.7954 16.5332 12.8825 16.6162 12.9932C16.7008 13.1038 16.7643 13.2316 16.8066 13.3765C16.849 13.5197 16.8701 13.6711 16.8701 13.8306C16.8701 14.0015 16.8424 14.161 16.7871 14.3091C16.7334 14.4572 16.6553 14.5866 16.5527 14.6973C16.4502 14.8079 16.3265 14.8942 16.1816 14.9561C16.0368 15.0179 15.874 15.0488 15.6934 15.0488C15.5029 15.0488 15.332 15.013 15.1807 14.9414C15.0309 14.8698 14.9023 14.7705 14.7949 14.6436C14.6875 14.5166 14.6053 14.3685 14.5483 14.1992C14.4914 14.0299 14.4629 13.8468 14.4629 13.6499V13.3911C14.4629 13.1128 14.5011 12.854 14.5776 12.6147C14.6541 12.3755 14.7673 12.1663 14.917 11.9873C15.0684 11.8066 15.2555 11.6667 15.4785 11.5674C15.7015 11.4665 15.9595 11.416 16.2524 11.416ZM17.86 11.2476V11.5845L17.7696 12.5488H17.401V11.6138V11.2476H17.86ZM18.6217 11.2476V11.5845L18.5313 12.5488H18.1651V11.5942V11.2476H18.6217Z" fill="white"/>
</svg>
