<svg width="30" height="30" viewBox="0 0 30 30" fill="none" xmlns="http://www.w3.org/2000/svg">
<circle cx="15" cy="15" r="14" fill="#EDE3FF" stroke="white" stroke-width="2"/>
<path d="M23.3571 14.5714H22.0714V11.1429C22.0714 10.6882 21.8908 10.2522 21.5693 9.93067C21.2478 9.60918 20.8118 9.42857 20.3571 9.42857H16.9286V8.14286C16.9286 7.57454 16.7028 7.02949 16.3009 6.62763C15.8991 6.22576 15.354 6 14.7857 6C14.2174 6 13.6723 6.22576 13.2705 6.62763C12.8686 7.02949 12.6429 7.57454 12.6429 8.14286V9.42857H9.21429C8.75963 9.42857 8.32359 9.60918 8.0021 9.93067C7.68061 10.2522 7.5 10.6882 7.5 11.1429V14.4H8.78571C10.0714 14.4 11.1 15.4286 11.1 16.7143C11.1 18 10.0714 19.0286 8.78571 19.0286H7.5V22.2857C7.5 22.7404 7.68061 23.1764 8.0021 23.4979C8.32359 23.8194 8.75963 24 9.21429 24H12.4714V22.7143C12.4714 21.4286 13.5 20.4 14.7857 20.4C16.0714 20.4 17.1 21.4286 17.1 22.7143V24H20.3571C20.8118 24 21.2478 23.8194 21.5693 23.4979C21.8908 23.1764 22.0714 22.7404 22.0714 22.2857V18.8571H23.3571C23.9255 18.8571 24.4705 18.6314 24.8724 18.2295C25.2742 17.8277 25.5 17.2826 25.5 16.7143C25.5 16.146 25.2742 15.6009 24.8724 15.1991C24.4705 14.7972 23.9255 14.5714 23.3571 14.5714Z" fill="#9155FD"/>
</svg>
