<svg width="30" height="30" viewBox="0 0 30 30" fill="none" xmlns="http://www.w3.org/2000/svg">
<circle cx="15" cy="15" r="14" fill="#EDE3FF" stroke="white" stroke-width="2"/>
<path d="M9.501 10.1006C9.47825 9.86636 9.50475 9.62993 9.57881 9.40653C9.65287 9.18312 9.77284 8.97767 9.93102 8.80339C10.0892 8.6291 10.2821 8.48983 10.4973 8.39453C10.7125 8.29923 10.9453 8.25 11.1806 8.25H13.875C14.0242 8.25 14.1673 8.30926 14.2727 8.41475C14.3782 8.52024 14.4375 8.66332 14.4375 8.8125V9.24225C14.4375 10.0252 13.8784 10.572 13.4565 10.8949C13.4063 10.9317 13.3626 10.9765 13.3271 11.0276L13.3136 11.0557L13.3125 11.0625V11.0659L13.3159 11.0771C13.3196 11.0884 13.3331 11.1082 13.3564 11.1367C13.4432 11.2277 13.5462 11.3017 13.6601 11.355C13.9763 11.5125 14.4487 11.625 15 11.625C15.5535 11.625 16.026 11.5125 16.3387 11.355C16.4531 11.3019 16.5565 11.2278 16.6436 11.1367C16.6603 11.1188 16.674 11.0983 16.6841 11.076L16.6875 11.0647V11.0557L16.674 11.0276C16.6385 10.9765 16.5948 10.9317 16.5446 10.8949C16.1228 10.572 15.5636 10.0252 15.5636 9.24225V8.8125C15.5636 8.66351 15.6227 8.52061 15.728 8.41515C15.8332 8.30969 15.976 8.2503 16.125 8.25H18.8194C19.0547 8.25 19.2875 8.29923 19.5027 8.39453C19.7179 8.48983 19.9108 8.6291 20.069 8.80339C20.2272 8.97767 20.3471 9.18312 20.4212 9.40653C20.4952 9.62993 20.5218 9.86636 20.499 10.1006L20.2256 13.3125H20.4923C20.7116 13.3125 20.9648 13.1471 21.2516 12.7725C21.4879 12.4643 21.8456 12.1875 22.3125 12.1875C22.9515 12.1875 23.3779 12.6904 23.6108 13.1572C23.8616 13.6579 24 14.3104 24 15C24 15.6896 23.8616 16.3421 23.6108 16.8427C23.3779 17.3096 22.9515 17.8125 22.3125 17.8125C21.8456 17.8125 21.4879 17.5357 21.2516 17.2275C20.9648 16.8529 20.7116 16.6875 20.4923 16.6875H20.2256L20.499 19.8994C20.5218 20.1336 20.4952 20.3701 20.4212 20.5935C20.3471 20.8169 20.2272 21.0223 20.069 21.1966C19.9108 21.3709 19.7179 21.5102 19.5027 21.6055C19.2875 21.7008 19.0547 21.75 18.8194 21.75H16.125C15.9758 21.75 15.8327 21.6907 15.7273 21.5852C15.6218 21.4798 15.5625 21.3367 15.5625 21.1875V20.7577C15.5625 19.9748 16.1216 19.428 16.5435 19.1051C16.5937 19.0683 16.6374 19.0235 16.6729 18.9724L16.6864 18.9442L16.6875 18.9375V18.9341L16.6841 18.9229C16.6739 18.901 16.6602 18.8808 16.6436 18.8632C16.5568 18.7723 16.4538 18.6983 16.3399 18.645C16.0238 18.4875 15.5513 18.375 15 18.375C14.4487 18.375 13.974 18.4875 13.6613 18.645C13.5469 18.6981 13.4435 18.7722 13.3564 18.8632C13.3397 18.8812 13.326 18.9017 13.3159 18.924L13.3125 18.9353V18.9375L13.3136 18.9442L13.3271 18.9724C13.3451 19.0028 13.3834 19.0489 13.4565 19.1051C13.8784 19.428 14.4375 19.9748 14.4375 20.7577V21.1875C14.4375 21.3367 14.3782 21.4798 14.2727 21.5852C14.1673 21.6907 14.0242 21.75 13.875 21.75H11.1806C10.9453 21.75 10.7125 21.7008 10.4973 21.6055C10.2821 21.5102 10.0892 21.3709 9.93102 21.1966C9.77284 21.0223 9.65287 20.8169 9.57881 20.5935C9.50475 20.3701 9.47825 20.1336 9.501 19.8994L9.7755 16.6875H9.50775C9.28838 16.6875 9.03525 16.8529 8.74838 17.2275C8.51213 17.5357 8.15438 17.8125 7.6875 17.8125C7.0485 17.8125 6.62212 17.3096 6.38925 16.8427C6.13837 16.3421 6 15.6896 6 15C6 14.3104 6.13837 13.6579 6.38925 13.1572C6.62212 12.6904 7.0485 12.1875 7.6875 12.1875C8.15438 12.1875 8.51213 12.4643 8.74838 12.7725C9.03525 13.1471 9.28838 13.3125 9.50775 13.3125H9.7755L9.501 10.1006Z" fill="#9155FD"/>
</svg>
