<svg width="30" height="30" viewBox="0 0 30 30" fill="none" xmlns="http://www.w3.org/2000/svg">
<circle cx="15" cy="15" r="14" fill="#EDE3FF" stroke="white" stroke-width="2"/>
<path d="M9.627 14.7258L11.427 17.8488L9.15 20.7108L6 15.2568L9.627 14.7258ZM19.5 20.0988V17.6598C20.292 17.3088 20.85 16.5258 20.85 15.5988C20.85 15.0858 20.67 14.6088 20.373 14.2488L22.146 13.2138C23.055 12.6828 23.37 11.5218 22.839 10.6128L21.597 8.45278C21.3438 8.01628 20.9283 7.69757 20.4411 7.56607C19.9539 7.43458 19.4345 7.50097 18.996 7.75078L11.679 11.9988C10.824 12.4758 10.527 13.5738 11.022 14.4378L12.372 16.7778C12.867 17.6328 13.974 17.9298 14.829 17.4348L16.521 16.4628C16.746 16.9938 17.169 17.4258 17.7 17.6598V20.0988C17.7 21.0888 18.51 21.8988 19.5 21.8988H24V20.0988H19.5Z" fill="#9155FD"/>
</svg>
