<svg width="30" height="30" viewBox="0 0 30 30" fill="none" xmlns="http://www.w3.org/2000/svg">
<circle cx="15" cy="15" r="14" fill="#EDE3FF" stroke="white" stroke-width="2"/>
<path d="M12.51 6H7.29C6.99177 6 6.75 6.24177 6.75 6.54V9.96C6.75 10.2582 6.99177 10.5 7.29 10.5H12.51C12.8082 10.5 13.05 10.2582 13.05 9.96V6.54C13.05 6.24177 12.8082 6 12.51 6Z" fill="#9155FD" stroke="#9155FD" stroke-width="1.5"/>
<path d="M17.4602 19.5H12.2402C11.942 19.5 11.7002 19.7418 11.7002 20.04V23.46C11.7002 23.7582 11.942 24 12.2402 24H17.4602C17.7584 24 18.0002 23.7582 18.0002 23.46V20.04C18.0002 19.7418 17.7584 19.5 17.4602 19.5Z" fill="#9155FD" stroke="#9155FD" stroke-width="1.5"/>
<path d="M22.4099 6H17.1899C16.8917 6 16.6499 6.24177 16.6499 6.54V9.96C16.6499 10.2582 16.8917 10.5 17.1899 10.5H22.4099C22.7081 10.5 22.9499 10.2582 22.9499 9.96V6.54C22.9499 6.24177 22.7081 6 22.4099 6Z" fill="#9155FD" stroke="#9155FD" stroke-width="1.5"/>
<path d="M9.8999 10.5V13.65C9.8999 14.1274 10.0895 14.5852 10.4271 14.9228C10.7647 15.2604 11.2225 15.45 11.6999 15.45H17.9999C18.4773 15.45 18.9351 15.2604 19.2727 14.9228C19.6103 14.5852 19.7999 14.1274 19.7999 13.65V10.5M14.8499 15.45V19.5" stroke="#9155FD" stroke-width="1.5"/>
</svg>
