<svg width="30" height="30" viewBox="0 0 30 30" fill="none" xmlns="http://www.w3.org/2000/svg">
<circle cx="15" cy="15" r="14" fill="#EDE3FF" stroke="white" stroke-width="2"/>
<path d="M13.92 14.28V7.08C13.92 6.79357 14.0338 6.51886 14.2363 6.31632C14.4389 6.11379 14.7136 6 15 6C15.2864 6 15.5611 6.11379 15.7637 6.31632C15.9662 6.51886 16.08 6.79357 16.08 7.08V14.28C16.08 14.5664 15.9662 14.8411 15.7637 15.0437C15.5611 15.2462 15.2864 15.36 15 15.36C14.7136 15.36 14.4389 15.2462 14.2363 15.0437C14.0338 14.8411 13.92 14.5664 13.92 14.28ZM19.9095 6.9C19.6697 6.75234 19.3817 6.70419 19.1069 6.76583C18.8321 6.82747 18.5922 6.99401 18.4384 7.22995C18.2847 7.46589 18.2291 7.75257 18.2837 8.02887C18.3383 8.30516 18.4986 8.54922 18.7305 8.709C20.7069 9.9933 21.84 12.03 21.84 14.28C21.84 16.0941 21.1194 17.8339 19.8366 19.1166C18.5539 20.3994 16.8141 21.12 15 21.12C13.1859 21.12 11.4461 20.3994 10.1634 19.1166C8.88064 17.8339 8.16 16.0941 8.16 14.28C8.16 12.03 9.2931 9.9933 11.2695 8.7045C11.4891 8.53994 11.6378 8.29796 11.6854 8.02773C11.733 7.7575 11.676 7.47927 11.5259 7.24956C11.3758 7.01984 11.1439 6.85587 10.8773 6.79095C10.6107 6.72602 10.3294 6.76501 10.0905 6.9C7.4904 8.5902 6 11.2821 6 14.28C6 16.6669 6.94821 18.9561 8.63604 20.644C10.3239 22.3318 12.6131 23.28 15 23.28C17.3869 23.28 19.6761 22.3318 21.364 20.644C23.0518 18.9561 24 16.6669 24 14.28C24 11.2821 22.5096 8.5902 19.9095 6.9Z" fill="#9155FD"/>
</svg>
