<svg width="30" height="30" viewBox="0 0 30 30" fill="none" xmlns="http://www.w3.org/2000/svg">
<circle cx="15" cy="15" r="14" fill="#EDE3FF" stroke="white" stroke-width="2"/>
<path d="M13.2446 21.8226L7.70054 16.1913C7.01225 15.4922 7.01225 14.3701 7.70054 13.671L13.2446 8.03967C14.372 6.89447 16.3208 7.69281 16.3208 9.29984V20.5624C16.3208 22.1694 14.372 22.9678 13.2446 21.8226Z" fill="#B68DFF"/>
<path d="M10.3478 18.9043H7.05518C6.47483 18.9043 6 18.4295 6 17.8491V12.0161C6 11.4358 6.47483 10.9609 7.05518 10.9609H10.3478L10.3478 18.9043Z" fill="#9155FD"/>
<path d="M19.0815 19.2831C18.9227 19.2831 18.7672 19.2043 18.6758 19.0603C18.5337 18.8364 18.5999 18.5398 18.8238 18.3976C19.7721 17.7956 20.449 16.7677 20.6345 15.6479C20.8906 14.1021 20.1693 12.4874 18.8396 11.6298C18.6167 11.486 18.5526 11.1889 18.6963 10.9661C18.84 10.7432 19.1371 10.679 19.36 10.8228C21.0067 11.8849 21.8996 13.887 21.5818 15.8048C21.3523 17.1899 20.5137 18.4622 19.3384 19.2083C19.2617 19.2572 19.1725 19.2831 19.0815 19.2831ZM20.9235 20.6068C22.4907 19.612 23.6091 17.9151 23.9152 16.0677C24.3389 13.5105 23.148 10.8407 20.952 9.4244C20.7291 9.28059 20.432 9.34478 20.2883 9.56765C20.1446 9.79049 20.2087 10.0876 20.4315 10.2313C22.3106 11.4432 23.3299 13.7257 22.9679 15.9108C22.7057 17.4929 21.7491 18.9455 20.4089 19.7962C20.185 19.9383 20.1188 20.235 20.2608 20.4589C20.2946 20.5121 20.3385 20.5582 20.3901 20.5945C20.4417 20.6308 20.4999 20.6565 20.5615 20.6703C20.623 20.684 20.6867 20.6855 20.7488 20.6746C20.8109 20.6637 20.8703 20.6407 20.9235 20.6068ZM18.0019 17.3148C18.6561 16.8994 19.1045 16.2195 19.2321 15.4492C19.4064 14.3969 18.9169 13.2987 18.0141 12.7164C17.7913 12.5727 17.4941 12.6368 17.3504 12.8597C17.2067 13.0825 17.2708 13.3796 17.4937 13.5234C18.0795 13.9012 18.3975 14.612 18.2848 15.2922C18.203 15.786 17.9048 16.239 17.4872 16.5041C17.2634 16.6463 17.1971 16.943 17.3392 17.1668C17.3826 17.2352 17.4425 17.2914 17.5135 17.3304C17.5844 17.3694 17.6641 17.3897 17.745 17.3897C17.836 17.3896 17.9251 17.3637 18.0019 17.3148Z" fill="#9155FD"/>
</svg>
