<svg width="30" height="30" viewBox="0 0 30 30" fill="none" xmlns="http://www.w3.org/2000/svg">
<circle cx="15" cy="15" r="14" fill="#EDE3FF" stroke="white" stroke-width="2"/>
<path d="M15.4783 17.6836V13.7727C15.4783 13.5557 15.3921 13.3476 15.2386 13.1942C15.0852 13.0407 14.8771 12.9545 14.6601 12.9545C14.4431 12.9545 14.235 13.0407 14.0816 13.1942C13.9281 13.3476 13.8419 13.5557 13.8419 13.7727V17.6836C13.5946 17.8264 13.389 18.0314 13.2454 18.2783C13.1019 18.5252 13.0255 18.8053 13.0237 19.0909C13.0237 19.5249 13.1961 19.9411 13.503 20.248C13.8099 20.5548 14.2261 20.7272 14.6601 20.7272C15.0941 20.7272 15.5103 20.5548 15.8172 20.248C16.1241 19.9411 16.2965 19.5249 16.2965 19.0909C16.2947 18.8053 16.2183 18.5252 16.0748 18.2783C15.9312 18.0314 15.7256 17.8264 15.4783 17.6836ZM18.3419 15.8182V9.68181C18.3419 8.70533 17.954 7.76885 17.2635 7.07838C16.5731 6.3879 15.6366 6 14.6601 6C13.6836 6 12.7471 6.3879 12.0567 7.07838C11.3662 7.76885 10.9783 8.70533 10.9783 9.68181V15.8182C10.4128 16.459 10.0244 17.2363 9.8515 18.0732C9.67861 18.9102 9.72721 19.7778 9.99251 20.5902C10.2578 21.4027 10.7306 22.1317 11.3641 22.7054C11.9977 23.279 12.77 23.6773 13.6046 23.8609C13.9514 23.9399 14.3047 23.9865 14.6601 23.9999C15.6097 24.0044 16.5402 23.7333 17.3388 23.2195C18.1375 22.7058 18.7699 21.9714 19.1596 21.1054C19.5493 20.2395 19.6795 19.2791 19.5343 18.3406C19.3892 17.4022 18.975 16.5259 18.3419 15.8182ZM16.7055 21.6027C16.0546 22.1799 15.2009 22.4748 14.3325 22.4227C13.464 22.3705 12.6519 21.9755 12.0747 21.3245C11.4974 20.6735 11.2025 19.8199 11.2547 18.9514C11.3068 18.083 11.7018 17.2708 12.3528 16.6936C12.4301 16.6178 12.4916 16.5275 12.5338 16.4278C12.5759 16.328 12.5978 16.2209 12.5983 16.1127V9.68181C12.5983 9.13932 12.8138 8.61905 13.1974 8.23546C13.581 7.85186 14.1012 7.63636 14.6437 7.63636C15.1862 7.63636 15.7065 7.85186 16.0901 8.23546C16.4737 8.61905 16.6892 9.13932 16.6892 9.68181V16.1782C16.6896 16.2864 16.7116 16.3935 16.7537 16.4932C16.7958 16.5929 16.8573 16.6833 16.9346 16.7591C17.2691 17.0821 17.5308 17.4728 17.7024 17.9049C17.8741 18.3371 17.9516 18.8009 17.9299 19.2654C17.9083 19.7299 17.7878 20.1844 17.5767 20.5987C17.3656 21.013 17.0686 21.3776 16.7055 21.6681V21.6027Z" fill="#9155FD"/>
</svg>
